<?xml version="1.0" encoding="UTF-8" standalone="no"?><svg xmlns="http://www.w3.org/2000/svg" xmlns:xlink="http://www.w3.org/1999/xlink" contentScriptType="application/ecmascript" contentStyleType="text/css" height="2093px" preserveAspectRatio="none" style="width:2231px;height:2093px;" version="1.1" viewBox="0 0 2231 2093" width="2231px" zoomAndPan="magnify"><defs><filter height="300%" id="fvpczrzjsabuv" width="300%" x="-1" y="-1"><feGaussianBlur result="blurOut" stdDeviation="2.0"/><feColorMatrix in="blurOut" result="blurOut2" type="matrix" values="0 0 0 0 0 0 0 0 0 0 0 0 0 0 0 0 0 0 .4 0"/><feOffset dx="4.0" dy="4.0" in="blurOut2" result="blurOut3"/><feBlend in="SourceGraphic" in2="blurOut3" mode="normal"/></filter></defs><g><!--MD5=[a60570e4b426f702ccbb0d459e3b9417]
cluster models--><polygon fill="#FFFFFF" filter="url(#fvpczrzjsabuv)" points="1836.37,1101,1899.37,1101,1906.37,1123.2969,2209.37,1123.2969,2209.37,2081,1836.37,2081,1836.37,1101" style="stroke: #000000; stroke-width: 1.5;"/><line style="stroke: #000000; stroke-width: 1.5;" x1="1836.37" x2="1906.37" y1="1123.2969" y2="1123.2969"/><text fill="#000000" font-family="sans-serif" font-size="14" font-weight="bold" lengthAdjust="spacingAndGlyphs" textLength="57" x="1840.37" y="1115.9951">models</text><!--MD5=[10ea673caf457862023e152271927b45]
cluster controller--><polygon fill="#FFFFFF" filter="url(#fvpczrzjsabuv)" points="881.374,215.5,964.374,215.5,971.374,237.7969,1812.37,237.7969,1812.37,1341,881.374,1341,881.374,215.5" style="stroke: #000000; stroke-width: 1.5;"/><line style="stroke: #000000; stroke-width: 1.5;" x1="881.374" x2="971.374" y1="237.7969" y2="237.7969"/><text fill="#000000" font-family="sans-serif" font-size="14" font-weight="bold" lengthAdjust="spacingAndGlyphs" textLength="77" x="885.374" y="230.4951">controller</text><!--MD5=[e320b41f2d43b11d6de1346cab4ea5fc]
cluster View--><polygon fill="#FFFFFF" filter="url(#fvpczrzjsabuv)" points="114.374,158,159.374,158,166.374,180.2969,857.374,180.2969,857.374,620.5,114.374,620.5,114.374,158" style="stroke: #000000; stroke-width: 1.5;"/><line style="stroke: #000000; stroke-width: 1.5;" x1="114.374" x2="166.374" y1="180.2969" y2="180.2969"/><text fill="#000000" font-family="sans-serif" font-size="14" font-weight="bold" lengthAdjust="spacingAndGlyphs" textLength="39" x="118.374" y="172.9951">View</text><!--MD5=[b6dcce5e5ef3c84b0b048d11301373dd]
class Game--><rect fill="#FEFECE" filter="url(#fvpczrzjsabuv)" height="188.8516" id="Game" style="stroke: #A80036; stroke-width: 1.5;" width="239" x="1852.87" y="1136"/><ellipse cx="1950.12" cy="1152" fill="#ADD1B2" rx="11" ry="11" style="stroke: #A80036; stroke-width: 1.0;"/><path d="M1952.4638,1147.6719 L1952.6356,1147.75 C1952.8544,1147.4375 1953.0575,1147.3438 1953.3544,1147.3438 C1953.6513,1147.3438 1953.9325,1147.4844 1954.0888,1147.75 C1954.1825,1147.9063 1954.1981,1148.0313 1954.1981,1148.4688 L1954.1981,1149.8906 C1954.1981,1150.3125 1954.1669,1150.5 1954.0575,1150.6563 C1953.8856,1150.875 1953.62,1151.0156 1953.3544,1151.0156 C1953.1356,1151.0156 1952.9013,1150.9063 1952.7606,1150.7656 C1952.62,1150.6406 1952.5888,1150.5156 1952.5263,1150.1094 C1952.4325,1149.7031 1952.2606,1149.4844 1951.7763,1149.2031 C1951.3075,1148.9531 1950.6981,1148.7969 1950.12,1148.7969 C1948.3856,1148.7969 1947.1356,1150.1094 1947.1356,1151.8906 L1947.1356,1152.9844 C1947.1356,1154.6875 1948.4325,1155.7813 1950.4794,1155.7813 C1951.245,1155.7813 1951.9325,1155.6563 1952.3544,1155.3906 C1952.5419,1155.2969 1952.5419,1155.2969 1952.995,1154.8125 C1953.1825,1154.625 1953.3856,1154.5469 1953.6044,1154.5469 C1954.0731,1154.5469 1954.4638,1154.9375 1954.4638,1155.3906 C1954.4638,1155.7813 1954.1356,1156.2344 1953.5575,1156.6406 C1952.8075,1157.1875 1951.6513,1157.4844 1950.4325,1157.4844 C1947.5419,1157.4844 1945.4325,1155.5938 1945.4325,1153.0156 L1945.4325,1151.8906 C1945.4325,1149.1719 1947.4325,1147.0938 1950.0575,1147.0938 C1950.9325,1147.0938 1951.5263,1147.2344 1952.4638,1147.6719 Z "/><text fill="#000000" font-family="sans-serif" font-size="12" lengthAdjust="spacingAndGlyphs" textLength="36" x="1970.62" y="1156.1543">Game</text><line style="stroke: #A80036; stroke-width: 1.5;" x1="1853.87" x2="2090.87" y1="1168" y2="1168"/><rect fill="none" height="6" style="stroke: #C82930; stroke-width: 1.0;" width="6" x="1860.87" y="1176"/><text fill="#000000" font-family="sans-serif" font-size="11" lengthAdjust="spacingAndGlyphs" textLength="95" x="1872.87" y="1182.2104">Solution solution</text><text fill="#000000" font-family="sans-serif" font-size="11" lengthAdjust="spacingAndGlyphs" textLength="0" x="1876.87" y="1195.0151"/><rect fill="none" height="6" style="stroke: #C82930; stroke-width: 1.0;" width="6" x="1860.87" y="1201.6094"/><text fill="#000000" font-family="sans-serif" font-size="11" lengthAdjust="spacingAndGlyphs" textLength="68" x="1872.87" y="1207.8198">boolean win</text><text fill="#000000" font-family="sans-serif" font-size="11" lengthAdjust="spacingAndGlyphs" textLength="0" x="1876.87" y="1220.6245"/><rect fill="none" height="6" style="stroke: #C82930; stroke-width: 1.0;" width="6" x="1860.87" y="1227.2188"/><text fill="#000000" font-family="sans-serif" font-size="11" lengthAdjust="spacingAndGlyphs" textLength="160" x="1872.87" y="1233.4292">ArrayList&lt;Attempt&gt; attempt</text><line style="stroke: #A80036; stroke-width: 1.5;" x1="1853.87" x2="2090.87" y1="1240.0234" y2="1240.0234"/><ellipse cx="1863.87" cy="1251.0234" fill="#84BE84" rx="3" ry="3" style="stroke: #038048; stroke-width: 1.0;"/><text fill="#000000" font-family="sans-serif" font-size="11" lengthAdjust="spacingAndGlyphs" textLength="42" x="1872.87" y="1254.2339">Game()</text><ellipse cx="1863.87" cy="1263.8281" fill="#84BE84" rx="3" ry="3" style="stroke: #038048; stroke-width: 1.0;"/><text fill="#000000" font-family="sans-serif" font-size="11" lengthAdjust="spacingAndGlyphs" textLength="62" x="1872.87" y="1267.0386">void start()</text><ellipse cx="1863.87" cy="1276.6328" fill="#84BE84" rx="3" ry="3" style="stroke: #038048; stroke-width: 1.0;"/><text fill="#000000" font-family="sans-serif" font-size="11" lengthAdjust="spacingAndGlyphs" textLength="213" x="1872.87" y="1279.8433">void nextAttempt(String attemptInput)</text><ellipse cx="1863.87" cy="1289.4375" fill="#84BE84" rx="3" ry="3" style="stroke: #038048; stroke-width: 1.0;"/><text fill="#000000" font-family="sans-serif" font-size="11" lengthAdjust="spacingAndGlyphs" textLength="90" x="1872.87" y="1292.6479">boolean isWon()</text><ellipse cx="1863.87" cy="1302.2422" fill="#84BE84" rx="3" ry="3" style="stroke: #038048; stroke-width: 1.0;"/><text fill="#000000" font-family="sans-serif" font-size="11" lengthAdjust="spacingAndGlyphs" textLength="177" x="1872.87" y="1305.4526">ArrayList&lt;Attempt&gt; getResult()</text><ellipse cx="1863.87" cy="1315.0469" fill="#84BE84" rx="3" ry="3" style="stroke: #038048; stroke-width: 1.0;"/><text fill="#000000" font-family="sans-serif" font-size="11" lengthAdjust="spacingAndGlyphs" textLength="133" x="1872.87" y="1318.2573">int getAttemptNumber()</text><!--MD5=[28491d17d5ee38c9c116625a5ffc259a]
class Combination--><rect fill="#FEFECE" filter="url(#fvpczrzjsabuv)" height="60.8047" id="Combination" style="stroke: #A80036; stroke-width: 1.5;" width="141" x="2051.87" y="1767.5"/><ellipse cx="2080.82" cy="1783.5" fill="#ADD1B2" rx="11" ry="11" style="stroke: #A80036; stroke-width: 1.0;"/><path d="M2083.1637,1779.1719 L2083.3356,1779.25 C2083.5544,1778.9375 2083.7575,1778.8438 2084.0544,1778.8438 C2084.3512,1778.8438 2084.6325,1778.9844 2084.7887,1779.25 C2084.8825,1779.4063 2084.8981,1779.5313 2084.8981,1779.9688 L2084.8981,1781.3906 C2084.8981,1781.8125 2084.8669,1782 2084.7575,1782.1563 C2084.5856,1782.375 2084.32,1782.5156 2084.0544,1782.5156 C2083.8356,1782.5156 2083.6012,1782.4063 2083.4606,1782.2656 C2083.32,1782.1406 2083.2887,1782.0156 2083.2262,1781.6094 C2083.1325,1781.2031 2082.9606,1780.9844 2082.4762,1780.7031 C2082.0075,1780.4531 2081.3981,1780.2969 2080.82,1780.2969 C2079.0856,1780.2969 2077.8356,1781.6094 2077.8356,1783.3906 L2077.8356,1784.4844 C2077.8356,1786.1875 2079.1325,1787.2813 2081.1794,1787.2813 C2081.945,1787.2813 2082.6325,1787.1563 2083.0544,1786.8906 C2083.2419,1786.7969 2083.2419,1786.7969 2083.695,1786.3125 C2083.8825,1786.125 2084.0856,1786.0469 2084.3044,1786.0469 C2084.7731,1786.0469 2085.1637,1786.4375 2085.1637,1786.8906 C2085.1637,1787.2813 2084.8356,1787.7344 2084.2575,1788.1406 C2083.5075,1788.6875 2082.3512,1788.9844 2081.1325,1788.9844 C2078.2419,1788.9844 2076.1325,1787.0938 2076.1325,1784.5156 L2076.1325,1783.3906 C2076.1325,1780.6719 2078.1325,1778.5938 2080.7575,1778.5938 C2081.6325,1778.5938 2082.2262,1778.7344 2083.1637,1779.1719 Z "/><text fill="#000000" font-family="sans-serif" font-size="12" lengthAdjust="spacingAndGlyphs" textLength="78" x="2097.92" y="1787.6543">Combination</text><line style="stroke: #A80036; stroke-width: 1.5;" x1="2052.87" x2="2191.87" y1="1799.5" y2="1799.5"/><polygon fill="none" points="2062.87,1805.5,2066.87,1809.5,2062.87,1813.5,2058.87,1809.5" style="stroke: #B38D22; stroke-width: 1.0;"/><text fill="#000000" font-family="sans-serif" font-size="11" lengthAdjust="spacingAndGlyphs" textLength="115" x="2071.87" y="1813.7104">Color [] combination</text><line style="stroke: #A80036; stroke-width: 1.5;" x1="2052.87" x2="2191.87" y1="1820.3047" y2="1820.3047"/><!--MD5=[14dcd1c6f0ba10ad7a0e543e42252a17]
class Solution--><rect fill="#FEFECE" filter="url(#fvpczrzjsabuv)" height="73.6094" id="Solution" style="stroke: #A80036; stroke-width: 1.5;" width="206" x="1987.37" y="1385"/><ellipse cx="2060.62" cy="1401" fill="#ADD1B2" rx="11" ry="11" style="stroke: #A80036; stroke-width: 1.0;"/><path d="M2062.9638,1396.6719 L2063.1356,1396.75 C2063.3544,1396.4375 2063.5575,1396.3438 2063.8544,1396.3438 C2064.1513,1396.3438 2064.4325,1396.4844 2064.5888,1396.75 C2064.6825,1396.9063 2064.6981,1397.0313 2064.6981,1397.4688 L2064.6981,1398.8906 C2064.6981,1399.3125 2064.6669,1399.5 2064.5575,1399.6563 C2064.3856,1399.875 2064.12,1400.0156 2063.8544,1400.0156 C2063.6356,1400.0156 2063.4013,1399.9063 2063.2606,1399.7656 C2063.12,1399.6406 2063.0888,1399.5156 2063.0263,1399.1094 C2062.9325,1398.7031 2062.7606,1398.4844 2062.2763,1398.2031 C2061.8075,1397.9531 2061.1981,1397.7969 2060.62,1397.7969 C2058.8856,1397.7969 2057.6356,1399.1094 2057.6356,1400.8906 L2057.6356,1401.9844 C2057.6356,1403.6875 2058.9325,1404.7813 2060.9794,1404.7813 C2061.745,1404.7813 2062.4325,1404.6563 2062.8544,1404.3906 C2063.0419,1404.2969 2063.0419,1404.2969 2063.495,1403.8125 C2063.6825,1403.625 2063.8856,1403.5469 2064.1044,1403.5469 C2064.5731,1403.5469 2064.9638,1403.9375 2064.9638,1404.3906 C2064.9638,1404.7813 2064.6356,1405.2344 2064.0575,1405.6406 C2063.3075,1406.1875 2062.1513,1406.4844 2060.9325,1406.4844 C2058.0419,1406.4844 2055.9325,1404.5938 2055.9325,1402.0156 L2055.9325,1400.8906 C2055.9325,1398.1719 2057.9325,1396.0938 2060.5575,1396.0938 C2061.4325,1396.0938 2062.0263,1396.2344 2062.9638,1396.6719 Z "/><text fill="#000000" font-family="sans-serif" font-size="12" lengthAdjust="spacingAndGlyphs" textLength="51" x="2081.12" y="1405.1543">Solution</text><line style="stroke: #A80036; stroke-width: 1.5;" x1="1988.37" x2="2192.37" y1="1417" y2="1417"/><line style="stroke: #A80036; stroke-width: 1.5;" x1="1988.37" x2="2192.37" y1="1425" y2="1425"/><ellipse cx="1998.37" cy="1436" fill="#84BE84" rx="3" ry="3" style="stroke: #038048; stroke-width: 1.0;"/><text fill="#000000" font-family="sans-serif" font-size="11" lengthAdjust="spacingAndGlyphs" textLength="54" x="2007.37" y="1439.2104">Solution()</text><ellipse cx="1998.37" cy="1448.8047" fill="#84BE84" rx="3" ry="3" style="stroke: #038048; stroke-width: 1.0;"/><text fill="#000000" font-family="sans-serif" font-size="11" lengthAdjust="spacingAndGlyphs" textLength="180" x="2007.37" y="1452.0151">Attempt check(Attempt attempt)</text><!--MD5=[9bcb9a691789609c473493f37f542ed0]
class Attempt--><rect fill="#FEFECE" filter="url(#fvpczrzjsabuv)" height="150.4375" id="Attempt" style="stroke: #A80036; stroke-width: 1.5;" width="220" x="1852.37" y="1519"/><ellipse cx="1933.12" cy="1535" fill="#ADD1B2" rx="11" ry="11" style="stroke: #A80036; stroke-width: 1.0;"/><path d="M1935.4638,1530.6719 L1935.6356,1530.75 C1935.8544,1530.4375 1936.0575,1530.3438 1936.3544,1530.3438 C1936.6513,1530.3438 1936.9325,1530.4844 1937.0888,1530.75 C1937.1825,1530.9063 1937.1981,1531.0313 1937.1981,1531.4688 L1937.1981,1532.8906 C1937.1981,1533.3125 1937.1669,1533.5 1937.0575,1533.6563 C1936.8856,1533.875 1936.62,1534.0156 1936.3544,1534.0156 C1936.1356,1534.0156 1935.9013,1533.9063 1935.7606,1533.7656 C1935.62,1533.6406 1935.5888,1533.5156 1935.5263,1533.1094 C1935.4325,1532.7031 1935.2606,1532.4844 1934.7763,1532.2031 C1934.3075,1531.9531 1933.6981,1531.7969 1933.12,1531.7969 C1931.3856,1531.7969 1930.1356,1533.1094 1930.1356,1534.8906 L1930.1356,1535.9844 C1930.1356,1537.6875 1931.4325,1538.7813 1933.4794,1538.7813 C1934.245,1538.7813 1934.9325,1538.6563 1935.3544,1538.3906 C1935.5419,1538.2969 1935.5419,1538.2969 1935.995,1537.8125 C1936.1825,1537.625 1936.3856,1537.5469 1936.6044,1537.5469 C1937.0731,1537.5469 1937.4638,1537.9375 1937.4638,1538.3906 C1937.4638,1538.7813 1937.1356,1539.2344 1936.5575,1539.6406 C1935.8075,1540.1875 1934.6513,1540.4844 1933.4325,1540.4844 C1930.5419,1540.4844 1928.4325,1538.5938 1928.4325,1536.0156 L1928.4325,1534.8906 C1928.4325,1532.1719 1930.4325,1530.0938 1933.0575,1530.0938 C1933.9325,1530.0938 1934.5263,1530.2344 1935.4638,1530.6719 Z "/><text fill="#000000" font-family="sans-serif" font-size="12" lengthAdjust="spacingAndGlyphs" textLength="50" x="1953.62" y="1539.1543">Attempt</text><line style="stroke: #A80036; stroke-width: 1.5;" x1="1853.37" x2="2071.37" y1="1551" y2="1551"/><rect fill="none" height="6" style="stroke: #C82930; stroke-width: 1.0;" width="6" x="1860.37" y="1559"/><text fill="#000000" font-family="sans-serif" font-size="11" lengthAdjust="spacingAndGlyphs" textLength="72" x="1872.37" y="1565.2104">Result result</text><line style="stroke: #A80036; stroke-width: 1.5;" x1="1853.37" x2="2071.37" y1="1571.8047" y2="1571.8047"/><ellipse cx="1863.37" cy="1582.8047" fill="#84BE84" rx="3" ry="3" style="stroke: #038048; stroke-width: 1.0;"/><text fill="#000000" font-family="sans-serif" font-size="11" lengthAdjust="spacingAndGlyphs" textLength="118" x="1872.37" y="1586.0151">Attempt(String input)</text><text fill="#000000" font-family="sans-serif" font-size="11" lengthAdjust="spacingAndGlyphs" textLength="0" x="1876.37" y="1598.8198"/><ellipse cx="1863.37" cy="1608.4141" fill="#84BE84" rx="3" ry="3" style="stroke: #038048; stroke-width: 1.0;"/><text fill="#000000" font-family="sans-serif" font-size="11" lengthAdjust="spacingAndGlyphs" textLength="194" x="1872.37" y="1611.6245">Color getCombination(int position)</text><text fill="#000000" font-family="sans-serif" font-size="11" lengthAdjust="spacingAndGlyphs" textLength="0" x="1876.37" y="1624.4292"/><ellipse cx="1863.37" cy="1634.0234" fill="#84BE84" rx="3" ry="3" style="stroke: #038048; stroke-width: 1.0;"/><text fill="#000000" font-family="sans-serif" font-size="11" lengthAdjust="spacingAndGlyphs" textLength="160" x="1872.37" y="1637.2339">void setResult(Result result)</text><text fill="#000000" font-family="sans-serif" font-size="11" lengthAdjust="spacingAndGlyphs" textLength="0" x="1876.37" y="1650.0386"/><ellipse cx="1863.37" cy="1659.6328" fill="#84BE84" rx="3" ry="3" style="stroke: #038048; stroke-width: 1.0;"/><text fill="#000000" font-family="sans-serif" font-size="11" lengthAdjust="spacingAndGlyphs" textLength="100" x="1872.37" y="1662.8433">Result getResult()</text><!--MD5=[2741598bdf59a7d7e0d5c97658fd3022]
class Result--><rect fill="#FEFECE" filter="url(#fvpczrzjsabuv)" height="137.6328" id="Result" style="stroke: #A80036; stroke-width: 1.5;" width="164" x="1852.37" y="1729"/><ellipse cx="1910.62" cy="1745" fill="#ADD1B2" rx="11" ry="11" style="stroke: #A80036; stroke-width: 1.0;"/><path d="M1912.9638,1740.6719 L1913.1356,1740.75 C1913.3544,1740.4375 1913.5575,1740.3438 1913.8544,1740.3438 C1914.1513,1740.3438 1914.4325,1740.4844 1914.5888,1740.75 C1914.6825,1740.9063 1914.6981,1741.0313 1914.6981,1741.4688 L1914.6981,1742.8906 C1914.6981,1743.3125 1914.6669,1743.5 1914.5575,1743.6563 C1914.3856,1743.875 1914.12,1744.0156 1913.8544,1744.0156 C1913.6356,1744.0156 1913.4013,1743.9063 1913.2606,1743.7656 C1913.12,1743.6406 1913.0888,1743.5156 1913.0263,1743.1094 C1912.9325,1742.7031 1912.7606,1742.4844 1912.2763,1742.2031 C1911.8075,1741.9531 1911.1981,1741.7969 1910.62,1741.7969 C1908.8856,1741.7969 1907.6356,1743.1094 1907.6356,1744.8906 L1907.6356,1745.9844 C1907.6356,1747.6875 1908.9325,1748.7813 1910.9794,1748.7813 C1911.745,1748.7813 1912.4325,1748.6563 1912.8544,1748.3906 C1913.0419,1748.2969 1913.0419,1748.2969 1913.495,1747.8125 C1913.6825,1747.625 1913.8856,1747.5469 1914.1044,1747.5469 C1914.5731,1747.5469 1914.9638,1747.9375 1914.9638,1748.3906 C1914.9638,1748.7813 1914.6356,1749.2344 1914.0575,1749.6406 C1913.3075,1750.1875 1912.1513,1750.4844 1910.9325,1750.4844 C1908.0419,1750.4844 1905.9325,1748.5938 1905.9325,1746.0156 L1905.9325,1744.8906 C1905.9325,1742.1719 1907.9325,1740.0938 1910.5575,1740.0938 C1911.4325,1740.0938 1912.0263,1740.2344 1912.9638,1740.6719 Z "/><text fill="#000000" font-family="sans-serif" font-size="12" lengthAdjust="spacingAndGlyphs" textLength="39" x="1931.12" y="1749.1543">Result</text><line style="stroke: #A80036; stroke-width: 1.5;" x1="1853.37" x2="2015.37" y1="1761" y2="1761"/><rect fill="none" height="6" style="stroke: #C82930; stroke-width: 1.0;" width="6" x="1860.37" y="1769"/><text fill="#000000" font-family="sans-serif" font-size="11" lengthAdjust="spacingAndGlyphs" textLength="46" x="1872.37" y="1775.2104">int dead</text><text fill="#000000" font-family="sans-serif" font-size="11" lengthAdjust="spacingAndGlyphs" textLength="0" x="1876.37" y="1788.0151"/><rect fill="none" height="6" style="stroke: #C82930; stroke-width: 1.0;" width="6" x="1860.37" y="1794.6094"/><text fill="#000000" font-family="sans-serif" font-size="11" lengthAdjust="spacingAndGlyphs" textLength="41" x="1872.37" y="1800.8198">int hurt</text><line style="stroke: #A80036; stroke-width: 1.5;" x1="1853.37" x2="2015.37" y1="1807.4141" y2="1807.4141"/><ellipse cx="1863.37" cy="1818.4141" fill="#84BE84" rx="3" ry="3" style="stroke: #038048; stroke-width: 1.0;"/><text fill="#000000" font-family="sans-serif" font-size="11" lengthAdjust="spacingAndGlyphs" textLength="138" x="1872.37" y="1821.6245">Result(int dead, int hurt)</text><ellipse cx="1863.37" cy="1831.2188" fill="#84BE84" rx="3" ry="3" style="stroke: #038048; stroke-width: 1.0;"/><text fill="#000000" font-family="sans-serif" font-size="11" lengthAdjust="spacingAndGlyphs" textLength="76" x="1872.37" y="1834.4292">boolean win()</text><ellipse cx="1863.37" cy="1844.0234" fill="#84BE84" rx="3" ry="3" style="stroke: #038048; stroke-width: 1.0;"/><text fill="#000000" font-family="sans-serif" font-size="11" lengthAdjust="spacingAndGlyphs" textLength="73" x="1872.37" y="1847.2339">int getDead()</text><ellipse cx="1863.37" cy="1856.8281" fill="#84BE84" rx="3" ry="3" style="stroke: #038048; stroke-width: 1.0;"/><text fill="#000000" font-family="sans-serif" font-size="11" lengthAdjust="spacingAndGlyphs" textLength="68" x="1872.37" y="1860.0386">int getHurt()</text><!--MD5=[18eee71c88ab61f27581b8cbdd3ef5ee]
class Color--><rect fill="#FEFECE" filter="url(#fvpczrzjsabuv)" height="137.6328" id="Color" style="stroke: #A80036; stroke-width: 1.5;" width="64" x="1852.37" y="1927"/><ellipse cx="1867.37" cy="1943" fill="#EB937F" rx="11" ry="11" style="stroke: #A80036; stroke-width: 1.0;"/><path d="M1865.6669,1943.875 L1865.6669,1946.2969 L1870.0263,1946.2969 L1870.0263,1945.4219 C1870.0263,1944.9375 1870.0575,1944.7969 1870.1669,1944.6406 C1870.3388,1944.3906 1870.6044,1944.2813 1870.87,1944.2813 C1871.1513,1944.2813 1871.4325,1944.4375 1871.6044,1944.6875 C1871.6825,1944.8438 1871.7138,1944.9844 1871.7138,1945.4219 L1871.7138,1948 L1863.7138,1948 C1863.3231,1948 1863.0888,1947.9531 1862.9481,1947.8281 C1862.7294,1947.6719 1862.5888,1947.4219 1862.5888,1947.1563 C1862.5888,1946.8594 1862.745,1946.5938 1862.995,1946.4219 C1863.1513,1946.3125 1863.3075,1946.2969 1863.7138,1946.2969 L1863.9638,1946.2969 L1863.9638,1939.7813 L1863.7138,1939.7813 C1863.2919,1939.7813 1863.1044,1939.75 1862.9481,1939.6406 C1862.7294,1939.4688 1862.5888,1939.2188 1862.5888,1938.9375 C1862.5888,1938.6563 1862.745,1938.3594 1862.995,1938.2031 C1863.1513,1938.1094 1863.2763,1938.0938 1863.7138,1938.0938 L1871.3388,1938.0938 L1871.3388,1940.6406 C1871.3388,1941.1094 1871.3075,1941.25 1871.1981,1941.4219 C1871.0263,1941.6406 1870.7606,1941.7813 1870.495,1941.7813 C1870.2138,1941.7813 1869.9325,1941.625 1869.7606,1941.375 C1869.6825,1941.2188 1869.6513,1941.0469 1869.6513,1940.6406 L1869.6513,1939.7813 L1865.6669,1939.7813 L1865.6669,1942.1875 L1867.12,1942.1875 L1867.12,1942.0625 C1867.12,1941.6094 1867.1513,1941.4531 1867.2606,1941.2813 C1867.4325,1941.0625 1867.6981,1940.9219 1867.9481,1940.9219 C1868.4013,1940.9219 1868.7138,1941.2344 1868.7763,1941.7031 C1868.7919,1941.8594 1868.7919,1941.9063 1868.7919,1942.0625 L1868.7919,1943.9844 C1868.7919,1944.4375 1868.7606,1944.5938 1868.6356,1944.75 C1868.4794,1944.9688 1868.2138,1945.1094 1867.9638,1945.1094 C1867.6669,1945.1094 1867.3856,1944.9531 1867.2294,1944.7031 C1867.1513,1944.5469 1867.12,1944.3906 1867.12,1943.9844 L1867.12,1943.875 Z "/><text fill="#000000" font-family="sans-serif" font-size="12" lengthAdjust="spacingAndGlyphs" textLength="32" x="1881.37" y="1947.1543">Color</text><line style="stroke: #A80036; stroke-width: 1.5;" x1="1853.37" x2="1915.37" y1="1959" y2="1959"/><text fill="#000000" font-family="sans-serif" font-size="11" lengthAdjust="spacingAndGlyphs" textLength="9" x="1858.37" y="1973.2104">r,</text><text fill="#000000" font-family="sans-serif" font-size="11" lengthAdjust="spacingAndGlyphs" textLength="11" x="1858.37" y="1986.0151">b,</text><text fill="#000000" font-family="sans-serif" font-size="11" lengthAdjust="spacingAndGlyphs" textLength="10" x="1858.37" y="1998.8198">y,</text><text fill="#000000" font-family="sans-serif" font-size="11" lengthAdjust="spacingAndGlyphs" textLength="11" x="1858.37" y="2011.6245">o,</text><text fill="#000000" font-family="sans-serif" font-size="11" lengthAdjust="spacingAndGlyphs" textLength="11" x="1858.37" y="2024.4292">p,</text><text fill="#000000" font-family="sans-serif" font-size="11" lengthAdjust="spacingAndGlyphs" textLength="11" x="1858.37" y="2037.2339">g,</text><text fill="#000000" font-family="sans-serif" font-size="11" lengthAdjust="spacingAndGlyphs" textLength="13" x="1858.37" y="2050.0386">all</text><line style="stroke: #A80036; stroke-width: 1.5;" x1="1853.37" x2="1915.37" y1="2056.6328" y2="2056.6328"/><!--MD5=[202eb055b61e3635d6abeb6d1809ebdd]
class ControllerVisitor--><rect fill="#FEFECE" filter="url(#fvpczrzjsabuv)" height="86.4141" id="ControllerVisitor" style="stroke: #A80036; stroke-width: 1.5;" width="277" x="1078.87" y="263.5"/><ellipse cx="1163.62" cy="279.5" fill="#B4A7E5" rx="11" ry="11" style="stroke: #A80036; stroke-width: 1.0;"/><path d="M1164.5731,276.2813 L1164.5731,282.7969 L1166.2919,282.7969 C1166.745,282.7969 1166.8856,282.8281 1167.0575,282.9531 C1167.2919,283.125 1167.4013,283.375 1167.4013,283.6563 C1167.4013,284.2188 1167.0419,284.5 1166.2919,284.5 L1161.1513,284.5 C1160.745,284.5 1160.5419,284.4531 1160.3856,284.3281 C1160.1669,284.1719 1160.0263,283.9063 1160.0263,283.6563 C1160.0263,283.3594 1160.1825,283.0781 1160.4325,282.9219 C1160.5888,282.8125 1160.7138,282.7969 1161.1513,282.7969 L1162.87,282.7969 L1162.87,276.2813 L1161.1513,276.2813 C1160.7294,276.2813 1160.5419,276.25 1160.3856,276.1406 C1160.1669,275.9688 1160.0263,275.7188 1160.0263,275.4375 C1160.0263,275.1563 1160.1825,274.8594 1160.4325,274.7031 C1160.5888,274.6094 1160.7138,274.5938 1161.1513,274.5938 L1166.2919,274.5938 C1166.745,274.5938 1166.8856,274.625 1167.0575,274.7344 C1167.2919,274.9063 1167.4013,275.1719 1167.4013,275.4375 C1167.4013,275.7344 1167.2606,276.0156 1166.995,276.1719 C1166.87,276.25 1166.6825,276.2813 1166.2919,276.2813 Z "/><text fill="#000000" font-family="sans-serif" font-size="12" font-style="italic" lengthAdjust="spacingAndGlyphs" textLength="99" x="1184.12" y="283.6543">ControllerVisitor</text><line style="stroke: #A80036; stroke-width: 1.5;" x1="1079.87" x2="1354.87" y1="295.5" y2="295.5"/><line style="stroke: #A80036; stroke-width: 1.5;" x1="1079.87" x2="1354.87" y1="303.5" y2="303.5"/><text fill="#000000" font-family="sans-serif" font-size="11" lengthAdjust="spacingAndGlyphs" textLength="240" x="1084.87" y="317.7104">void visit(GameController gameController)</text><text fill="#000000" font-family="sans-serif" font-size="11" lengthAdjust="spacingAndGlyphs" textLength="265" x="1084.87" y="330.5151">void visit(SolutionController solutionController)</text><text fill="#000000" font-family="sans-serif" font-size="11" lengthAdjust="spacingAndGlyphs" textLength="262" x="1084.87" y="343.3198">void visit(AttemptController attemptController)</text><!--MD5=[1d7ba1c7002d54515419844fbd155368]
class Controller--><rect fill="#FEFECE" filter="url(#fvpczrzjsabuv)" height="99.2188" id="Controller" style="stroke: #A80036; stroke-width: 1.5;" width="335" x="1236.87" y="690"/><ellipse cx="1369.62" cy="706" fill="#A9DCDF" rx="11" ry="11" style="stroke: #A80036; stroke-width: 1.0;"/><path d="M1371.1981,707.8125 L1367.1513,707.8125 L1366.7606,708.7969 L1367.1513,708.7969 C1367.6044,708.7969 1367.745,708.8281 1367.9169,708.9531 C1368.1356,709.125 1368.2606,709.375 1368.2606,709.6563 C1368.2606,709.9375 1368.12,710.2344 1367.8544,710.375 C1367.7294,710.4688 1367.5106,710.5 1367.1513,710.5 L1364.8856,710.5 C1364.1356,710.5 1363.7606,710.2188 1363.7606,709.6563 C1363.7606,709.3594 1363.9169,709.0781 1364.1669,708.9219 C1364.3231,708.8125 1364.4794,708.7969 1364.9013,708.7969 L1367.5419,702.2813 L1366.4638,702.2813 C1366.0263,702.2813 1365.8544,702.25 1365.6825,702.1406 C1365.4638,701.9688 1365.3231,701.7188 1365.3231,701.4375 C1365.3231,701.1563 1365.4794,700.875 1365.7294,700.7031 C1365.8856,700.6094 1366.0106,700.5938 1366.4638,700.5938 L1370.1356,700.5938 L1373.5263,708.7969 C1373.995,708.7969 1374.1513,708.8281 1374.3231,708.9688 C1374.5419,709.125 1374.6825,709.375 1374.6825,709.6563 C1374.6825,709.9375 1374.5263,710.2344 1374.2763,710.375 C1374.1356,710.4688 1373.9169,710.5 1373.5575,710.5 L1371.1981,710.5 C1370.7763,710.5 1370.5731,710.4531 1370.4325,710.3281 C1370.2138,710.1719 1370.0731,709.9219 1370.0731,709.6563 C1370.0731,709.3594 1370.2294,709.0781 1370.4794,708.9219 C1370.6356,708.8125 1370.745,708.7969 1371.1981,708.7969 L1371.5888,708.7969 Z M1370.495,706.1094 L1369.1669,702.8438 L1367.8231,706.1094 Z "/><text fill="#000000" font-family="sans-serif" font-size="12" font-style="italic" lengthAdjust="spacingAndGlyphs" textLength="61" x="1390.12" y="710.1543">Controller</text><line style="stroke: #A80036; stroke-width: 1.5;" x1="1237.87" x2="1570.87" y1="722" y2="722"/><polygon fill="none" points="1247.87,728,1251.87,732,1247.87,736,1243.87,732" style="stroke: #B38D22; stroke-width: 1.0;"/><text fill="#000000" font-family="sans-serif" font-size="11" lengthAdjust="spacingAndGlyphs" textLength="63" x="1256.87" y="736.2104">State state</text><line style="stroke: #A80036; stroke-width: 1.5;" x1="1237.87" x2="1570.87" y1="742.8047" y2="742.8047"/><ellipse cx="1247.87" cy="753.8047" fill="#84BE84" rx="3" ry="3" style="stroke: #038048; stroke-width: 1.0;"/><text fill="#000000" font-family="sans-serif" font-size="11" lengthAdjust="spacingAndGlyphs" textLength="127" x="1256.87" y="757.0151">Controller(State state)</text><ellipse cx="1247.87" cy="766.6094" fill="#84BE84" rx="3" ry="3" style="stroke: #038048; stroke-width: 1.0;"/><text fill="#000000" font-family="sans-serif" font-size="11" lengthAdjust="spacingAndGlyphs" textLength="59" x="1256.87" y="769.8198">void next()</text><ellipse cx="1247.87" cy="779.4141" fill="#84BE84" rx="3" ry="3" style="stroke: #038048; stroke-width: 1.0;"/><text fill="#000000" font-family="sans-serif" font-size="11" lengthAdjust="spacingAndGlyphs" textLength="309" x="1256.87" y="782.6245">abstract void accept(ControllerVisitor controllerVisitor)</text><!--MD5=[82d9c97a467af7c0b2c072e754b85475]
class GameController--><rect fill="#FEFECE" filter="url(#fvpczrzjsabuv)" height="150.4375" id="GameController" style="stroke: #A80036; stroke-width: 1.5;" width="284" x="897.374" y="480"/><ellipse cx="986.624" cy="496" fill="#ADD1B2" rx="11" ry="11" style="stroke: #A80036; stroke-width: 1.0;"/><path d="M988.9678,491.6719 L989.1396,491.75 C989.3584,491.4375 989.5615,491.3438 989.8584,491.3438 C990.1553,491.3438 990.4365,491.4844 990.5928,491.75 C990.6865,491.9063 990.7021,492.0313 990.7021,492.4688 L990.7021,493.8906 C990.7021,494.3125 990.6709,494.5 990.5615,494.6563 C990.3896,494.875 990.124,495.0156 989.8584,495.0156 C989.6396,495.0156 989.4053,494.9063 989.2646,494.7656 C989.124,494.6406 989.0928,494.5156 989.0303,494.1094 C988.9365,493.7031 988.7646,493.4844 988.2803,493.2031 C987.8115,492.9531 987.2021,492.7969 986.624,492.7969 C984.8896,492.7969 983.6396,494.1094 983.6396,495.8906 L983.6396,496.9844 C983.6396,498.6875 984.9365,499.7813 986.9834,499.7813 C987.749,499.7813 988.4365,499.6563 988.8584,499.3906 C989.0459,499.2969 989.0459,499.2969 989.499,498.8125 C989.6865,498.625 989.8896,498.5469 990.1084,498.5469 C990.5771,498.5469 990.9678,498.9375 990.9678,499.3906 C990.9678,499.7813 990.6396,500.2344 990.0615,500.6406 C989.3115,501.1875 988.1553,501.4844 986.9365,501.4844 C984.0459,501.4844 981.9365,499.5938 981.9365,497.0156 L981.9365,495.8906 C981.9365,493.1719 983.9365,491.0938 986.5615,491.0938 C987.4365,491.0938 988.0303,491.2344 988.9678,491.6719 Z "/><text fill="#000000" font-family="sans-serif" font-size="12" lengthAdjust="spacingAndGlyphs" textLength="97" x="1007.124" y="500.1543">GameController</text><line style="stroke: #A80036; stroke-width: 1.5;" x1="898.374" x2="1180.374" y1="512" y2="512"/><line style="stroke: #A80036; stroke-width: 1.5;" x1="898.374" x2="1180.374" y1="520" y2="520"/><ellipse cx="908.374" cy="531" fill="#84BE84" rx="3" ry="3" style="stroke: #038048; stroke-width: 1.0;"/><text fill="#000000" font-family="sans-serif" font-size="11" lengthAdjust="spacingAndGlyphs" textLength="161" x="917.374" y="534.2104">GameController(State state)</text><ellipse cx="908.374" cy="543.8047" fill="#84BE84" rx="3" ry="3" style="stroke: #038048; stroke-width: 1.0;"/><text fill="#000000" font-family="sans-serif" font-size="11" lengthAdjust="spacingAndGlyphs" textLength="62" x="917.374" y="547.0151">void start()</text><ellipse cx="908.374" cy="556.6094" fill="#84BE84" rx="3" ry="3" style="stroke: #038048; stroke-width: 1.0;"/><text fill="#000000" font-family="sans-serif" font-size="11" lengthAdjust="spacingAndGlyphs" textLength="90" x="917.374" y="559.8198">boolean isWon()</text><ellipse cx="908.374" cy="569.4141" fill="#84BE84" rx="3" ry="3" style="stroke: #038048; stroke-width: 1.0;"/><text fill="#000000" font-family="sans-serif" font-size="11" lengthAdjust="spacingAndGlyphs" textLength="186" x="917.374" y="572.6245">ArrayList&lt;Attempt&gt; getAttempt()</text><ellipse cx="908.374" cy="582.2188" fill="#84BE84" rx="3" ry="3" style="stroke: #038048; stroke-width: 1.0;"/><text fill="#000000" font-family="sans-serif" font-size="11" lengthAdjust="spacingAndGlyphs" textLength="133" x="917.374" y="585.4292">int getAttemptNumber()</text><ellipse cx="908.374" cy="595.0234" fill="#84BE84" rx="3" ry="3" style="stroke: #038048; stroke-width: 1.0;"/><text fill="#000000" font-family="sans-serif" font-size="11" lengthAdjust="spacingAndGlyphs" textLength="258" x="917.374" y="598.2339">void accept(ControllerVisitor controllerVisitor)</text><ellipse cx="908.374" cy="607.8281" fill="#84BE84" rx="3" ry="3" style="stroke: #038048; stroke-width: 1.0;"/><text fill="#000000" font-family="sans-serif" font-size="11" lengthAdjust="spacingAndGlyphs" textLength="105" x="917.374" y="611.0386">int getStateValue()</text><rect fill="#F24D5C" height="6" style="stroke: #C82930; stroke-width: 1.0;" width="6" x="905.374" y="617.6328"/><text fill="#000000" font-family="sans-serif" font-size="11" lengthAdjust="spacingAndGlyphs" textLength="65" x="917.374" y="623.8433">void reset()</text><!--MD5=[b138570f890fce2c1faa390234055ad5]
class AttemptController--><rect fill="#FEFECE" filter="url(#fvpczrzjsabuv)" height="60.8047" id="AttemptController" style="stroke: #A80036; stroke-width: 1.5;" width="197" x="1487.87" y="524.5"/><ellipse cx="1527.17" cy="540.5" fill="#ADD1B2" rx="11" ry="11" style="stroke: #A80036; stroke-width: 1.0;"/><path d="M1529.5137,536.1719 L1529.6856,536.25 C1529.9044,535.9375 1530.1075,535.8438 1530.4044,535.8438 C1530.7012,535.8438 1530.9825,535.9844 1531.1387,536.25 C1531.2325,536.4063 1531.2481,536.5313 1531.2481,536.9688 L1531.2481,538.3906 C1531.2481,538.8125 1531.2169,539 1531.1075,539.1563 C1530.9356,539.375 1530.67,539.5156 1530.4044,539.5156 C1530.1856,539.5156 1529.9512,539.4063 1529.8106,539.2656 C1529.67,539.1406 1529.6387,539.0156 1529.5762,538.6094 C1529.4825,538.2031 1529.3106,537.9844 1528.8262,537.7031 C1528.3575,537.4531 1527.7481,537.2969 1527.17,537.2969 C1525.4356,537.2969 1524.1856,538.6094 1524.1856,540.3906 L1524.1856,541.4844 C1524.1856,543.1875 1525.4825,544.2813 1527.5294,544.2813 C1528.295,544.2813 1528.9825,544.1563 1529.4044,543.8906 C1529.5919,543.7969 1529.5919,543.7969 1530.045,543.3125 C1530.2325,543.125 1530.4356,543.0469 1530.6544,543.0469 C1531.1231,543.0469 1531.5137,543.4375 1531.5137,543.8906 C1531.5137,544.2813 1531.1856,544.7344 1530.6075,545.1406 C1529.8575,545.6875 1528.7012,545.9844 1527.4825,545.9844 C1524.5919,545.9844 1522.4825,544.0938 1522.4825,541.5156 L1522.4825,540.3906 C1522.4825,537.6719 1524.4825,535.5938 1527.1075,535.5938 C1527.9825,535.5938 1528.5762,535.7344 1529.5137,536.1719 Z "/><text fill="#000000" font-family="sans-serif" font-size="12" lengthAdjust="spacingAndGlyphs" textLength="111" x="1546.57" y="544.6543">AttemptController</text><line style="stroke: #A80036; stroke-width: 1.5;" x1="1488.87" x2="1683.87" y1="556.5" y2="556.5"/><line style="stroke: #A80036; stroke-width: 1.5;" x1="1488.87" x2="1683.87" y1="564.5" y2="564.5"/><ellipse cx="1498.87" cy="575.5" fill="#84BE84" rx="3" ry="3" style="stroke: #038048; stroke-width: 1.0;"/><text fill="#000000" font-family="sans-serif" font-size="11" lengthAdjust="spacingAndGlyphs" textLength="171" x="1507.87" y="578.7104">AttemptController(State state)</text><!--MD5=[14f028d922d9ed5631da998c56db54ff]
class SolutionController--><rect fill="#FEFECE" filter="url(#fvpczrzjsabuv)" height="60.8047" id="SolutionController" style="stroke: #A80036; stroke-width: 1.5;" width="199" x="1253.87" y="524.5"/><ellipse cx="1293.62" cy="540.5" fill="#ADD1B2" rx="11" ry="11" style="stroke: #A80036; stroke-width: 1.0;"/><path d="M1295.9638,536.1719 L1296.1356,536.25 C1296.3544,535.9375 1296.5575,535.8438 1296.8544,535.8438 C1297.1513,535.8438 1297.4325,535.9844 1297.5888,536.25 C1297.6825,536.4063 1297.6981,536.5313 1297.6981,536.9688 L1297.6981,538.3906 C1297.6981,538.8125 1297.6669,539 1297.5575,539.1563 C1297.3856,539.375 1297.12,539.5156 1296.8544,539.5156 C1296.6356,539.5156 1296.4013,539.4063 1296.2606,539.2656 C1296.12,539.1406 1296.0888,539.0156 1296.0263,538.6094 C1295.9325,538.2031 1295.7606,537.9844 1295.2763,537.7031 C1294.8075,537.4531 1294.1981,537.2969 1293.62,537.2969 C1291.8856,537.2969 1290.6356,538.6094 1290.6356,540.3906 L1290.6356,541.4844 C1290.6356,543.1875 1291.9325,544.2813 1293.9794,544.2813 C1294.745,544.2813 1295.4325,544.1563 1295.8544,543.8906 C1296.0419,543.7969 1296.0419,543.7969 1296.495,543.3125 C1296.6825,543.125 1296.8856,543.0469 1297.1044,543.0469 C1297.5731,543.0469 1297.9638,543.4375 1297.9638,543.8906 C1297.9638,544.2813 1297.6356,544.7344 1297.0575,545.1406 C1296.3075,545.6875 1295.1513,545.9844 1293.9325,545.9844 C1291.0419,545.9844 1288.9325,544.0938 1288.9325,541.5156 L1288.9325,540.3906 C1288.9325,537.6719 1290.9325,535.5938 1293.5575,535.5938 C1294.4325,535.5938 1295.0263,535.7344 1295.9638,536.1719 Z "/><text fill="#000000" font-family="sans-serif" font-size="12" lengthAdjust="spacingAndGlyphs" textLength="112" x="1313.12" y="544.6543">SolutionController</text><line style="stroke: #A80036; stroke-width: 1.5;" x1="1254.87" x2="1451.87" y1="556.5" y2="556.5"/><line style="stroke: #A80036; stroke-width: 1.5;" x1="1254.87" x2="1451.87" y1="564.5" y2="564.5"/><ellipse cx="1264.87" cy="575.5" fill="#84BE84" rx="3" ry="3" style="stroke: #038048; stroke-width: 1.0;"/><text fill="#000000" font-family="sans-serif" font-size="11" lengthAdjust="spacingAndGlyphs" textLength="173" x="1273.87" y="578.7104">SolutionController(State state)</text><!--MD5=[42fa18dda7351a0ae87d9497de925436]
class Logic--><rect fill="#FEFECE" filter="url(#fvpczrzjsabuv)" height="112.0234" id="Logic" style="stroke: #A80036; stroke-width: 1.5;" width="301" x="1494.87" y="250.5"/><ellipse cx="1625.12" cy="266.5" fill="#ADD1B2" rx="11" ry="11" style="stroke: #A80036; stroke-width: 1.0;"/><path d="M1627.4638,262.1719 L1627.6356,262.25 C1627.8544,261.9375 1628.0575,261.8438 1628.3544,261.8438 C1628.6513,261.8438 1628.9325,261.9844 1629.0888,262.25 C1629.1825,262.4063 1629.1981,262.5313 1629.1981,262.9688 L1629.1981,264.3906 C1629.1981,264.8125 1629.1669,265 1629.0575,265.1563 C1628.8856,265.375 1628.62,265.5156 1628.3544,265.5156 C1628.1356,265.5156 1627.9013,265.4063 1627.7606,265.2656 C1627.62,265.1406 1627.5888,265.0156 1627.5263,264.6094 C1627.4325,264.2031 1627.2606,263.9844 1626.7763,263.7031 C1626.3075,263.4531 1625.6981,263.2969 1625.12,263.2969 C1623.3856,263.2969 1622.1356,264.6094 1622.1356,266.3906 L1622.1356,267.4844 C1622.1356,269.1875 1623.4325,270.2813 1625.4794,270.2813 C1626.245,270.2813 1626.9325,270.1563 1627.3544,269.8906 C1627.5419,269.7969 1627.5419,269.7969 1627.995,269.3125 C1628.1825,269.125 1628.3856,269.0469 1628.6044,269.0469 C1629.0731,269.0469 1629.4638,269.4375 1629.4638,269.8906 C1629.4638,270.2813 1629.1356,270.7344 1628.5575,271.1406 C1627.8075,271.6875 1626.6513,271.9844 1625.4325,271.9844 C1622.5419,271.9844 1620.4325,270.0938 1620.4325,267.5156 L1620.4325,266.3906 C1620.4325,263.6719 1622.4325,261.5938 1625.0575,261.5938 C1625.9325,261.5938 1626.5263,261.7344 1627.4638,262.1719 Z "/><text fill="#000000" font-family="sans-serif" font-size="12" lengthAdjust="spacingAndGlyphs" textLength="32" x="1645.62" y="270.6543">Logic</text><line style="stroke: #A80036; stroke-width: 1.5;" x1="1495.87" x2="1794.87" y1="282.5" y2="282.5"/><rect fill="none" height="6" style="stroke: #C82930; stroke-width: 1.0;" width="6" x="1502.87" y="290.5"/><text fill="#000000" font-family="sans-serif" font-size="11" lengthAdjust="spacingAndGlyphs" textLength="275" x="1514.87" y="296.7104">Map&lt;StateValue, Controller&gt; acceptorController</text><text fill="#000000" font-family="sans-serif" font-size="11" lengthAdjust="spacingAndGlyphs" textLength="0" x="1518.87" y="309.5151"/><rect fill="none" height="6" style="stroke: #C82930; stroke-width: 1.0;" width="6" x="1502.87" y="316.1094"/><text fill="#000000" font-family="sans-serif" font-size="11" lengthAdjust="spacingAndGlyphs" textLength="63" x="1514.87" y="322.3198">State state</text><line style="stroke: #A80036; stroke-width: 1.5;" x1="1495.87" x2="1794.87" y1="328.9141" y2="328.9141"/><ellipse cx="1505.87" cy="339.9141" fill="#84BE84" rx="3" ry="3" style="stroke: #038048; stroke-width: 1.0;"/><text fill="#000000" font-family="sans-serif" font-size="11" lengthAdjust="spacingAndGlyphs" textLength="37" x="1514.87" y="343.1245">Logic()</text><ellipse cx="1505.87" cy="352.7188" fill="#84BE84" rx="3" ry="3" style="stroke: #038048; stroke-width: 1.0;"/><text fill="#000000" font-family="sans-serif" font-size="11" lengthAdjust="spacingAndGlyphs" textLength="142" x="1514.87" y="355.9292">Controller getController()</text><!--MD5=[60d6b92408f98aed8df94d5c6e04aa63]
class State--><rect fill="#FEFECE" filter="url(#fvpczrzjsabuv)" height="227.2656" id="State" style="stroke: #A80036; stroke-width: 1.5;" width="170" x="1626.37" y="849"/><ellipse cx="1690.12" cy="865" fill="#ADD1B2" rx="11" ry="11" style="stroke: #A80036; stroke-width: 1.0;"/><path d="M1692.4638,860.6719 L1692.6356,860.75 C1692.8544,860.4375 1693.0575,860.3438 1693.3544,860.3438 C1693.6513,860.3438 1693.9325,860.4844 1694.0888,860.75 C1694.1825,860.9063 1694.1981,861.0313 1694.1981,861.4688 L1694.1981,862.8906 C1694.1981,863.3125 1694.1669,863.5 1694.0575,863.6563 C1693.8856,863.875 1693.62,864.0156 1693.3544,864.0156 C1693.1356,864.0156 1692.9013,863.9063 1692.7606,863.7656 C1692.62,863.6406 1692.5888,863.5156 1692.5263,863.1094 C1692.4325,862.7031 1692.2606,862.4844 1691.7763,862.2031 C1691.3075,861.9531 1690.6981,861.7969 1690.12,861.7969 C1688.3856,861.7969 1687.1356,863.1094 1687.1356,864.8906 L1687.1356,865.9844 C1687.1356,867.6875 1688.4325,868.7813 1690.4794,868.7813 C1691.245,868.7813 1691.9325,868.6563 1692.3544,868.3906 C1692.5419,868.2969 1692.5419,868.2969 1692.995,867.8125 C1693.1825,867.625 1693.3856,867.5469 1693.6044,867.5469 C1694.0731,867.5469 1694.4638,867.9375 1694.4638,868.3906 C1694.4638,868.7813 1694.1356,869.2344 1693.5575,869.6406 C1692.8075,870.1875 1691.6513,870.4844 1690.4325,870.4844 C1687.5419,870.4844 1685.4325,868.5938 1685.4325,866.0156 L1685.4325,864.8906 C1685.4325,862.1719 1687.4325,860.0938 1690.0575,860.0938 C1690.9325,860.0938 1691.5263,860.2344 1692.4638,860.6719 Z "/><text fill="#000000" font-family="sans-serif" font-size="12" lengthAdjust="spacingAndGlyphs" textLength="34" x="1710.62" y="869.1543">State</text><line style="stroke: #A80036; stroke-width: 1.5;" x1="1627.37" x2="1795.37" y1="881" y2="881"/><rect fill="none" height="6" style="stroke: #C82930; stroke-width: 1.0;" width="6" x="1634.37" y="889"/><text fill="#000000" font-family="sans-serif" font-size="11" lengthAdjust="spacingAndGlyphs" textLength="125" x="1646.37" y="895.2104">StateValue stateValue</text><text fill="#000000" font-family="sans-serif" font-size="11" lengthAdjust="spacingAndGlyphs" textLength="0" x="1650.37" y="908.0151"/><rect fill="none" height="6" style="stroke: #C82930; stroke-width: 1.0;" width="6" x="1634.37" y="914.6094"/><text fill="#000000" font-family="sans-serif" font-size="11" lengthAdjust="spacingAndGlyphs" textLength="70" x="1646.37" y="920.8198">Game game</text><text fill="#000000" font-family="sans-serif" font-size="11" lengthAdjust="spacingAndGlyphs" textLength="0" x="1650.37" y="933.6245"/><text fill="#000000" font-family="sans-serif" font-size="11" lengthAdjust="spacingAndGlyphs" textLength="0" x="1650.37" y="946.4292"/><text fill="#000000" font-family="sans-serif" font-size="11" lengthAdjust="spacingAndGlyphs" textLength="0" x="1650.37" y="959.2339"/><text fill="#000000" font-family="sans-serif" font-size="11" lengthAdjust="spacingAndGlyphs" textLength="0" x="1650.37" y="972.0386"/><text fill="#000000" font-family="sans-serif" font-size="11" lengthAdjust="spacingAndGlyphs" textLength="0" x="1650.37" y="984.8433"/><ellipse cx="1637.37" cy="994.4375" fill="none" rx="3" ry="3" style="stroke: #038048; stroke-width: 1.0;"/><text fill="#000000" font-family="sans-serif" font-size="11" lengthAdjust="spacingAndGlyphs" textLength="144" x="1646.37" y="997.6479">StateValue getValueState</text><line style="stroke: #A80036; stroke-width: 1.5;" x1="1627.37" x2="1795.37" y1="1004.2422" y2="1004.2422"/><ellipse cx="1637.37" cy="1015.2422" fill="#84BE84" rx="3" ry="3" style="stroke: #038048; stroke-width: 1.0;"/><text fill="#000000" font-family="sans-serif" font-size="11" lengthAdjust="spacingAndGlyphs" textLength="38" x="1646.37" y="1018.4526">State()</text><ellipse cx="1637.37" cy="1028.0469" fill="#84BE84" rx="3" ry="3" style="stroke: #038048; stroke-width: 1.0;"/><text fill="#000000" font-family="sans-serif" font-size="11" lengthAdjust="spacingAndGlyphs" textLength="59" x="1646.37" y="1031.2573">void next()</text><ellipse cx="1637.37" cy="1040.8516" fill="#84BE84" rx="3" ry="3" style="stroke: #038048; stroke-width: 1.0;"/><text fill="#000000" font-family="sans-serif" font-size="11" lengthAdjust="spacingAndGlyphs" textLength="65" x="1646.37" y="1044.062">void reset()</text><ellipse cx="1637.37" cy="1053.6563" fill="#84BE84" rx="3" ry="3" style="stroke: #038048; stroke-width: 1.0;"/><text fill="#000000" font-family="sans-serif" font-size="11" lengthAdjust="spacingAndGlyphs" textLength="72" x="1646.37" y="1056.8667">void iterate()</text><ellipse cx="1637.37" cy="1066.4609" fill="#84BE84" rx="3" ry="3" style="stroke: #038048; stroke-width: 1.0;"/><text fill="#000000" font-family="sans-serif" font-size="11" lengthAdjust="spacingAndGlyphs" textLength="98" x="1646.37" y="1069.6714">Game getGame()</text><!--MD5=[167506e288131cdf3986fedef83acd94]
class StateValue--><rect fill="#FEFECE" filter="url(#fvpczrzjsabuv)" height="188.8516" id="StateValue" style="stroke: #A80036; stroke-width: 1.5;" width="101" x="1539.87" y="1136"/><ellipse cx="1554.87" cy="1152" fill="#EB937F" rx="11" ry="11" style="stroke: #A80036; stroke-width: 1.0;"/><path d="M1553.1669,1152.875 L1553.1669,1155.2969 L1557.5263,1155.2969 L1557.5263,1154.4219 C1557.5263,1153.9375 1557.5575,1153.7969 1557.6669,1153.6406 C1557.8388,1153.3906 1558.1044,1153.2813 1558.37,1153.2813 C1558.6513,1153.2813 1558.9325,1153.4375 1559.1044,1153.6875 C1559.1825,1153.8438 1559.2138,1153.9844 1559.2138,1154.4219 L1559.2138,1157 L1551.2138,1157 C1550.8231,1157 1550.5888,1156.9531 1550.4481,1156.8281 C1550.2294,1156.6719 1550.0888,1156.4219 1550.0888,1156.1563 C1550.0888,1155.8594 1550.245,1155.5938 1550.495,1155.4219 C1550.6513,1155.3125 1550.8075,1155.2969 1551.2138,1155.2969 L1551.4638,1155.2969 L1551.4638,1148.7813 L1551.2138,1148.7813 C1550.7919,1148.7813 1550.6044,1148.75 1550.4481,1148.6406 C1550.2294,1148.4688 1550.0888,1148.2188 1550.0888,1147.9375 C1550.0888,1147.6563 1550.245,1147.3594 1550.495,1147.2031 C1550.6513,1147.1094 1550.7763,1147.0938 1551.2138,1147.0938 L1558.8388,1147.0938 L1558.8388,1149.6406 C1558.8388,1150.1094 1558.8075,1150.25 1558.6981,1150.4219 C1558.5263,1150.6406 1558.2606,1150.7813 1557.995,1150.7813 C1557.7138,1150.7813 1557.4325,1150.625 1557.2606,1150.375 C1557.1825,1150.2188 1557.1513,1150.0469 1557.1513,1149.6406 L1557.1513,1148.7813 L1553.1669,1148.7813 L1553.1669,1151.1875 L1554.62,1151.1875 L1554.62,1151.0625 C1554.62,1150.6094 1554.6513,1150.4531 1554.7606,1150.2813 C1554.9325,1150.0625 1555.1981,1149.9219 1555.4481,1149.9219 C1555.9013,1149.9219 1556.2138,1150.2344 1556.2763,1150.7031 C1556.2919,1150.8594 1556.2919,1150.9063 1556.2919,1151.0625 L1556.2919,1152.9844 C1556.2919,1153.4375 1556.2606,1153.5938 1556.1356,1153.75 C1555.9794,1153.9688 1555.7138,1154.1094 1555.4638,1154.1094 C1555.1669,1154.1094 1554.8856,1153.9531 1554.7294,1153.7031 C1554.6513,1153.5469 1554.62,1153.3906 1554.62,1152.9844 L1554.62,1152.875 Z "/><text fill="#000000" font-family="sans-serif" font-size="12" lengthAdjust="spacingAndGlyphs" textLength="69" x="1568.87" y="1156.1543">StateValue</text><line style="stroke: #A80036; stroke-width: 1.5;" x1="1540.87" x2="1639.87" y1="1168" y2="1168"/><text fill="#000000" font-family="sans-serif" font-size="11" lengthAdjust="spacingAndGlyphs" textLength="49" x="1545.87" y="1182.2104">initialize,</text><text fill="#000000" font-family="sans-serif" font-size="11" lengthAdjust="spacingAndGlyphs" textLength="0" x="1549.87" y="1195.0151"/><text fill="#000000" font-family="sans-serif" font-size="11" lengthAdjust="spacingAndGlyphs" textLength="76" x="1545.87" y="1207.8198">printSolution,</text><text fill="#000000" font-family="sans-serif" font-size="11" lengthAdjust="spacingAndGlyphs" textLength="0" x="1549.87" y="1220.6245"/><text fill="#000000" font-family="sans-serif" font-size="11" lengthAdjust="spacingAndGlyphs" textLength="65" x="1545.87" y="1233.4292">printResult,</text><text fill="#000000" font-family="sans-serif" font-size="11" lengthAdjust="spacingAndGlyphs" textLength="0" x="1549.87" y="1246.2339"/><text fill="#000000" font-family="sans-serif" font-size="11" lengthAdjust="spacingAndGlyphs" textLength="72" x="1545.87" y="1259.0386">nextAttempt,</text><text fill="#000000" font-family="sans-serif" font-size="11" lengthAdjust="spacingAndGlyphs" textLength="0" x="1549.87" y="1271.8433"/><text fill="#000000" font-family="sans-serif" font-size="11" lengthAdjust="spacingAndGlyphs" textLength="57" x="1545.87" y="1284.6479">gameEnd,</text><text fill="#000000" font-family="sans-serif" font-size="11" lengthAdjust="spacingAndGlyphs" textLength="0" x="1549.87" y="1297.4526"/><text fill="#000000" font-family="sans-serif" font-size="11" lengthAdjust="spacingAndGlyphs" textLength="20" x="1545.87" y="1310.2573">exit</text><line style="stroke: #A80036; stroke-width: 1.5;" x1="1540.87" x2="1639.87" y1="1316.8516" y2="1316.8516"/><!--MD5=[c045e12321b83266d36d22b9096c24ea]
class View--><rect fill="#FEFECE" filter="url(#fvpczrzjsabuv)" height="60.8047" id="View" style="stroke: #A80036; stroke-width: 1.5;" width="204" x="637.374" y="524.5"/><ellipse cx="720.624" cy="540.5" fill="#B4A7E5" rx="11" ry="11" style="stroke: #A80036; stroke-width: 1.0;"/><path d="M721.5771,537.2813 L721.5771,543.7969 L723.2959,543.7969 C723.749,543.7969 723.8896,543.8281 724.0615,543.9531 C724.2959,544.125 724.4053,544.375 724.4053,544.6563 C724.4053,545.2188 724.0459,545.5 723.2959,545.5 L718.1553,545.5 C717.749,545.5 717.5459,545.4531 717.3896,545.3281 C717.1709,545.1719 717.0303,544.9063 717.0303,544.6563 C717.0303,544.3594 717.1865,544.0781 717.4365,543.9219 C717.5928,543.8125 717.7178,543.7969 718.1553,543.7969 L719.874,543.7969 L719.874,537.2813 L718.1553,537.2813 C717.7334,537.2813 717.5459,537.25 717.3896,537.1406 C717.1709,536.9688 717.0303,536.7188 717.0303,536.4375 C717.0303,536.1563 717.1865,535.8594 717.4365,535.7031 C717.5928,535.6094 717.7178,535.5938 718.1553,535.5938 L723.2959,535.5938 C723.749,535.5938 723.8896,535.625 724.0615,535.7344 C724.2959,535.9063 724.4053,536.1719 724.4053,536.4375 C724.4053,536.7344 724.2646,537.0156 723.999,537.1719 C723.874,537.25 723.6865,537.2813 723.2959,537.2813 Z "/><text fill="#000000" font-family="sans-serif" font-size="12" font-style="italic" lengthAdjust="spacingAndGlyphs" textLength="29" x="741.124" y="544.6543">View</text><line style="stroke: #A80036; stroke-width: 1.5;" x1="638.374" x2="840.374" y1="556.5" y2="556.5"/><line style="stroke: #A80036; stroke-width: 1.5;" x1="638.374" x2="840.374" y1="564.5" y2="564.5"/><text fill="#000000" font-family="sans-serif" font-size="11" lengthAdjust="spacingAndGlyphs" textLength="192" x="643.374" y="578.7104">void interact(Controller controller)</text><!--MD5=[5d3822d29342fbd355d1b65ea3562ec9]
class GameView--><rect fill="#FEFECE" filter="url(#fvpczrzjsabuv)" height="227.2656" id="GameView" style="stroke: #A80036; stroke-width: 1.5;" width="348" x="493.374" y="193"/><ellipse cx="631.124" cy="209" fill="#ADD1B2" rx="11" ry="11" style="stroke: #A80036; stroke-width: 1.0;"/><path d="M633.4678,204.6719 L633.6396,204.75 C633.8584,204.4375 634.0615,204.3438 634.3584,204.3438 C634.6553,204.3438 634.9365,204.4844 635.0928,204.75 C635.1865,204.9063 635.2021,205.0313 635.2021,205.4688 L635.2021,206.8906 C635.2021,207.3125 635.1709,207.5 635.0615,207.6563 C634.8896,207.875 634.624,208.0156 634.3584,208.0156 C634.1396,208.0156 633.9053,207.9063 633.7646,207.7656 C633.624,207.6406 633.5928,207.5156 633.5303,207.1094 C633.4365,206.7031 633.2646,206.4844 632.7803,206.2031 C632.3115,205.9531 631.7021,205.7969 631.124,205.7969 C629.3896,205.7969 628.1396,207.1094 628.1396,208.8906 L628.1396,209.9844 C628.1396,211.6875 629.4365,212.7813 631.4834,212.7813 C632.249,212.7813 632.9365,212.6563 633.3584,212.3906 C633.5459,212.2969 633.5459,212.2969 633.999,211.8125 C634.1865,211.625 634.3896,211.5469 634.6084,211.5469 C635.0771,211.5469 635.4678,211.9375 635.4678,212.3906 C635.4678,212.7813 635.1396,213.2344 634.5615,213.6406 C633.8115,214.1875 632.6553,214.4844 631.4365,214.4844 C628.5459,214.4844 626.4365,212.5938 626.4365,210.0156 L626.4365,208.8906 C626.4365,206.1719 628.4365,204.0938 631.0615,204.0938 C631.9365,204.0938 632.5303,204.2344 633.4678,204.6719 Z "/><text fill="#000000" font-family="sans-serif" font-size="12" lengthAdjust="spacingAndGlyphs" textLength="64" x="651.624" y="213.1543">GameView</text><line style="stroke: #A80036; stroke-width: 1.5;" x1="494.374" x2="840.374" y1="225" y2="225"/><rect fill="none" height="6" style="stroke: #C82930; stroke-width: 1.0;" width="6" x="501.374" y="233"/><text fill="#000000" font-family="sans-serif" font-size="11" lengthAdjust="spacingAndGlyphs" textLength="147" x="513.374" y="239.2104">SolutionView solutionView</text><text fill="#000000" font-family="sans-serif" font-size="11" lengthAdjust="spacingAndGlyphs" textLength="0" x="517.374" y="252.0151"/><rect fill="none" height="6" style="stroke: #C82930; stroke-width: 1.0;" width="6" x="501.374" y="258.6094"/><text fill="#000000" font-family="sans-serif" font-size="11" lengthAdjust="spacingAndGlyphs" textLength="144" x="513.374" y="264.8198">AttemptView attemptView</text><line style="stroke: #A80036; stroke-width: 1.5;" x1="494.374" x2="840.374" y1="271.4141" y2="271.4141"/><ellipse cx="504.374" cy="282.4141" fill="#84BE84" rx="3" ry="3" style="stroke: #038048; stroke-width: 1.0;"/><text fill="#000000" font-family="sans-serif" font-size="11" lengthAdjust="spacingAndGlyphs" textLength="127" x="513.374" y="285.6245">GameView(Logic logic)</text><rect fill="#F24D5C" height="6" style="stroke: #C82930; stroke-width: 1.0;" width="6" x="501.374" y="292.2188"/><text fill="#000000" font-family="sans-serif" font-size="11" lengthAdjust="spacingAndGlyphs" textLength="97" x="513.374" y="298.4292">void headGame()</text><rect fill="#F24D5C" height="6" style="stroke: #C82930; stroke-width: 1.0;" width="6" x="501.374" y="305.0234"/><text fill="#000000" font-family="sans-serif" font-size="11" lengthAdjust="spacingAndGlyphs" textLength="322" x="513.374" y="311.2339">void printAttemptNumberInformation(int attemptNumber)</text><rect fill="#F24D5C" height="6" style="stroke: #C82930; stroke-width: 1.0;" width="6" x="501.374" y="317.8281"/><text fill="#000000" font-family="sans-serif" font-size="11" lengthAdjust="spacingAndGlyphs" textLength="81" x="513.374" y="324.0386">void winLose()</text><rect fill="#F24D5C" height="6" style="stroke: #C82930; stroke-width: 1.0;" width="6" x="501.374" y="330.6328"/><text fill="#000000" font-family="sans-serif" font-size="11" lengthAdjust="spacingAndGlyphs" textLength="243" x="513.374" y="336.8433">void printResults(ArrayList&lt;Result&gt; result)</text><rect fill="#F24D5C" height="6" style="stroke: #C82930; stroke-width: 1.0;" width="6" x="501.374" y="343.4375"/><text fill="#000000" font-family="sans-serif" font-size="11" lengthAdjust="spacingAndGlyphs" textLength="104" x="513.374" y="349.6479">void menuOption()</text><text fill="#000000" font-family="sans-serif" font-size="11" lengthAdjust="spacingAndGlyphs" textLength="0" x="517.374" y="362.4526"/><ellipse cx="504.374" cy="372.0469" fill="#84BE84" rx="3" ry="3" style="stroke: #038048; stroke-width: 1.0;"/><text fill="#000000" font-family="sans-serif" font-size="11" lengthAdjust="spacingAndGlyphs" textLength="206" x="513.374" y="375.2573">void visit(GameController controller)</text><ellipse cx="504.374" cy="384.8516" fill="#84BE84" rx="3" ry="3" style="stroke: #038048; stroke-width: 1.0;"/><text fill="#000000" font-family="sans-serif" font-size="11" lengthAdjust="spacingAndGlyphs" textLength="218" x="513.374" y="388.062">void visit(SolutionController controller)</text><ellipse cx="504.374" cy="397.6563" fill="#84BE84" rx="3" ry="3" style="stroke: #038048; stroke-width: 1.0;"/><text fill="#000000" font-family="sans-serif" font-size="11" lengthAdjust="spacingAndGlyphs" textLength="216" x="513.374" y="400.8667">void visit(AttemptController controller)</text><ellipse cx="504.374" cy="410.4609" fill="#84BE84" rx="3" ry="3" style="stroke: #038048; stroke-width: 1.0;"/><text fill="#000000" font-family="sans-serif" font-size="11" lengthAdjust="spacingAndGlyphs" textLength="192" x="513.374" y="413.6714">void interact(Controller controller)</text><!--MD5=[59700ed214cd3dc42bd6ac0da61a0232]
class SolutionView--><rect fill="#FEFECE" filter="url(#fvpczrzjsabuv)" height="73.6094" id="SolutionView" style="stroke: #A80036; stroke-width: 1.5;" width="195" x="130.874" y="518"/><ellipse cx="184.624" cy="534" fill="#ADD1B2" rx="11" ry="11" style="stroke: #A80036; stroke-width: 1.0;"/><path d="M186.9678,529.6719 L187.1396,529.75 C187.3584,529.4375 187.5615,529.3438 187.8584,529.3438 C188.1553,529.3438 188.4365,529.4844 188.5928,529.75 C188.6865,529.9063 188.7021,530.0313 188.7021,530.4688 L188.7021,531.8906 C188.7021,532.3125 188.6709,532.5 188.5615,532.6563 C188.3896,532.875 188.124,533.0156 187.8584,533.0156 C187.6396,533.0156 187.4053,532.9063 187.2646,532.7656 C187.124,532.6406 187.0928,532.5156 187.0303,532.1094 C186.9365,531.7031 186.7646,531.4844 186.2803,531.2031 C185.8115,530.9531 185.2021,530.7969 184.624,530.7969 C182.8896,530.7969 181.6396,532.1094 181.6396,533.8906 L181.6396,534.9844 C181.6396,536.6875 182.9365,537.7813 184.9834,537.7813 C185.749,537.7813 186.4365,537.6563 186.8584,537.3906 C187.0459,537.2969 187.0459,537.2969 187.499,536.8125 C187.6865,536.625 187.8896,536.5469 188.1084,536.5469 C188.5771,536.5469 188.9678,536.9375 188.9678,537.3906 C188.9678,537.7813 188.6396,538.2344 188.0615,538.6406 C187.3115,539.1875 186.1553,539.4844 184.9365,539.4844 C182.0459,539.4844 179.9365,537.5938 179.9365,535.0156 L179.9365,533.8906 C179.9365,531.1719 181.9365,529.0938 184.5615,529.0938 C185.4365,529.0938 186.0303,529.2344 186.9678,529.6719 Z "/><text fill="#000000" font-family="sans-serif" font-size="12" lengthAdjust="spacingAndGlyphs" textLength="79" x="205.124" y="538.1543">SolutionView</text><line style="stroke: #A80036; stroke-width: 1.5;" x1="131.874" x2="324.874" y1="550" y2="550"/><line style="stroke: #A80036; stroke-width: 1.5;" x1="131.874" x2="324.874" y1="558" y2="558"/><ellipse cx="141.874" cy="569" fill="#84BE84" rx="3" ry="3" style="stroke: #038048; stroke-width: 1.0;"/><text fill="#000000" font-family="sans-serif" font-size="11" lengthAdjust="spacingAndGlyphs" textLength="80" x="150.874" y="572.2104">SolutionView()</text><ellipse cx="141.874" cy="581.8047" fill="#84BE84" rx="3" ry="3" style="stroke: #038048; stroke-width: 1.0;"/><text fill="#000000" font-family="sans-serif" font-size="11" lengthAdjust="spacingAndGlyphs" textLength="169" x="150.874" y="585.0151">void printSecretCombination()</text><!--MD5=[87664ed6879b4b0a59edb92235ba1529]
class AttemptView--><rect fill="#FEFECE" filter="url(#fvpczrzjsabuv)" height="99.2188" id="AttemptView" style="stroke: #A80036; stroke-width: 1.5;" width="241" x="360.874" y="505.5"/><ellipse cx="438.124" cy="521.5" fill="#ADD1B2" rx="11" ry="11" style="stroke: #A80036; stroke-width: 1.0;"/><path d="M440.4678,517.1719 L440.6396,517.25 C440.8584,516.9375 441.0615,516.8438 441.3584,516.8438 C441.6553,516.8438 441.9365,516.9844 442.0928,517.25 C442.1865,517.4063 442.2021,517.5313 442.2021,517.9688 L442.2021,519.3906 C442.2021,519.8125 442.1709,520 442.0615,520.1563 C441.8896,520.375 441.624,520.5156 441.3584,520.5156 C441.1396,520.5156 440.9053,520.4063 440.7646,520.2656 C440.624,520.1406 440.5928,520.0156 440.5303,519.6094 C440.4365,519.2031 440.2646,518.9844 439.7803,518.7031 C439.3115,518.4531 438.7021,518.2969 438.124,518.2969 C436.3896,518.2969 435.1396,519.6094 435.1396,521.3906 L435.1396,522.4844 C435.1396,524.1875 436.4365,525.2813 438.4834,525.2813 C439.249,525.2813 439.9365,525.1563 440.3584,524.8906 C440.5459,524.7969 440.5459,524.7969 440.999,524.3125 C441.1865,524.125 441.3896,524.0469 441.6084,524.0469 C442.0771,524.0469 442.4678,524.4375 442.4678,524.8906 C442.4678,525.2813 442.1396,525.7344 441.5615,526.1406 C440.8115,526.6875 439.6553,526.9844 438.4365,526.9844 C435.5459,526.9844 433.4365,525.0938 433.4365,522.5156 L433.4365,521.3906 C433.4365,518.6719 435.4365,516.5938 438.0615,516.5938 C438.9365,516.5938 439.5303,516.7344 440.4678,517.1719 Z "/><text fill="#000000" font-family="sans-serif" font-size="12" lengthAdjust="spacingAndGlyphs" textLength="78" x="458.624" y="525.6543">AttemptView</text><line style="stroke: #A80036; stroke-width: 1.5;" x1="361.874" x2="600.874" y1="537.5" y2="537.5"/><line style="stroke: #A80036; stroke-width: 1.5;" x1="361.874" x2="600.874" y1="545.5" y2="545.5"/><ellipse cx="371.874" cy="556.5" fill="#84BE84" rx="3" ry="3" style="stroke: #038048; stroke-width: 1.0;"/><text fill="#000000" font-family="sans-serif" font-size="11" lengthAdjust="spacingAndGlyphs" textLength="78" x="380.874" y="559.7104">AttemptView()</text><ellipse cx="371.874" cy="569.3047" fill="#84BE84" rx="3" ry="3" style="stroke: #038048; stroke-width: 1.0;"/><text fill="#000000" font-family="sans-serif" font-size="11" lengthAdjust="spacingAndGlyphs" textLength="116" x="380.874" y="572.5151">String readAttempt()</text><rect fill="#F24D5C" height="6" style="stroke: #C82930; stroke-width: 1.0;" width="6" x="368.874" y="579.1094"/><text fill="#000000" font-family="sans-serif" font-size="11" lengthAdjust="spacingAndGlyphs" textLength="215" x="380.874" y="585.3198">boolean checkAttempt(String attempt)</text><ellipse cx="371.874" cy="594.9141" fill="#84BE84" rx="3" ry="3" style="stroke: #038048; stroke-width: 1.0;"/><text fill="#000000" font-family="sans-serif" font-size="11" lengthAdjust="spacingAndGlyphs" textLength="188" x="380.874" y="598.1245">void printResult(Attempt attempt)</text><!--MD5=[a40873b740e53ca026148d30ccb3c321]
class ResultView--><rect fill="#FEFECE" filter="url(#fvpczrzjsabuv)" height="86.4141" id="ResultView" style="stroke: #A80036; stroke-width: 1.5;" width="167" x="130.874" y="263.5"/><ellipse cx="176.624" cy="279.5" fill="#ADD1B2" rx="11" ry="11" style="stroke: #A80036; stroke-width: 1.0;"/><path d="M178.9678,275.1719 L179.1396,275.25 C179.3584,274.9375 179.5615,274.8438 179.8584,274.8438 C180.1553,274.8438 180.4365,274.9844 180.5928,275.25 C180.6865,275.4063 180.7021,275.5313 180.7021,275.9688 L180.7021,277.3906 C180.7021,277.8125 180.6709,278 180.5615,278.1563 C180.3896,278.375 180.124,278.5156 179.8584,278.5156 C179.6396,278.5156 179.4053,278.4063 179.2646,278.2656 C179.124,278.1406 179.0928,278.0156 179.0303,277.6094 C178.9365,277.2031 178.7646,276.9844 178.2803,276.7031 C177.8115,276.4531 177.2021,276.2969 176.624,276.2969 C174.8896,276.2969 173.6396,277.6094 173.6396,279.3906 L173.6396,280.4844 C173.6396,282.1875 174.9365,283.2813 176.9834,283.2813 C177.749,283.2813 178.4365,283.1563 178.8584,282.8906 C179.0459,282.7969 179.0459,282.7969 179.499,282.3125 C179.6865,282.125 179.8896,282.0469 180.1084,282.0469 C180.5771,282.0469 180.9678,282.4375 180.9678,282.8906 C180.9678,283.2813 180.6396,283.7344 180.0615,284.1406 C179.3115,284.6875 178.1553,284.9844 176.9365,284.9844 C174.0459,284.9844 171.9365,283.0938 171.9365,280.5156 L171.9365,279.3906 C171.9365,276.6719 173.9365,274.5938 176.5615,274.5938 C177.4365,274.5938 178.0303,274.7344 178.9678,275.1719 Z "/><text fill="#000000" font-family="sans-serif" font-size="12" lengthAdjust="spacingAndGlyphs" textLength="67" x="197.124" y="283.6543">ResultView</text><line style="stroke: #A80036; stroke-width: 1.5;" x1="131.874" x2="296.874" y1="295.5" y2="295.5"/><rect fill="none" height="6" style="stroke: #C82930; stroke-width: 1.0;" width="6" x="138.874" y="303.5"/><text fill="#000000" font-family="sans-serif" font-size="11" lengthAdjust="spacingAndGlyphs" textLength="72" x="150.874" y="309.7104">Result result</text><line style="stroke: #A80036; stroke-width: 1.5;" x1="131.874" x2="296.874" y1="316.3047" y2="316.3047"/><ellipse cx="141.874" cy="327.3047" fill="#84BE84" rx="3" ry="3" style="stroke: #038048; stroke-width: 1.0;"/><text fill="#000000" font-family="sans-serif" font-size="11" lengthAdjust="spacingAndGlyphs" textLength="141" x="150.874" y="330.5151">ResultView(Result result)</text><ellipse cx="141.874" cy="340.1094" fill="#84BE84" rx="3" ry="3" style="stroke: #038048; stroke-width: 1.0;"/><text fill="#000000" font-family="sans-serif" font-size="11" lengthAdjust="spacingAndGlyphs" textLength="121" x="150.874" y="343.3198">getImprimibleResult()</text><!--MD5=[153973e0405221f6a20dc6ad197c532d]
class MasterMind--><rect fill="#FEFECE" filter="url(#fvpczrzjsabuv)" height="124.8281" id="MasterMind" style="stroke: #A80036; stroke-width: 1.5;" width="196" x="1547.37" y="8"/><ellipse cx="1605.12" cy="24" fill="#ADD1B2" rx="11" ry="11" style="stroke: #A80036; stroke-width: 1.0;"/><path d="M1607.4638,19.6719 L1607.6356,19.75 C1607.8544,19.4375 1608.0575,19.3438 1608.3544,19.3438 C1608.6513,19.3438 1608.9325,19.4844 1609.0888,19.75 C1609.1825,19.9063 1609.1981,20.0313 1609.1981,20.4688 L1609.1981,21.8906 C1609.1981,22.3125 1609.1669,22.5 1609.0575,22.6563 C1608.8856,22.875 1608.62,23.0156 1608.3544,23.0156 C1608.1356,23.0156 1607.9013,22.9063 1607.7606,22.7656 C1607.62,22.6406 1607.5888,22.5156 1607.5263,22.1094 C1607.4325,21.7031 1607.2606,21.4844 1606.7763,21.2031 C1606.3075,20.9531 1605.6981,20.7969 1605.12,20.7969 C1603.3856,20.7969 1602.1356,22.1094 1602.1356,23.8906 L1602.1356,24.9844 C1602.1356,26.6875 1603.4325,27.7813 1605.4794,27.7813 C1606.245,27.7813 1606.9325,27.6563 1607.3544,27.3906 C1607.5419,27.2969 1607.5419,27.2969 1607.995,26.8125 C1608.1825,26.625 1608.3856,26.5469 1608.6044,26.5469 C1609.0731,26.5469 1609.4638,26.9375 1609.4638,27.3906 C1609.4638,27.7813 1609.1356,28.2344 1608.5575,28.6406 C1607.8075,29.1875 1606.6513,29.4844 1605.4325,29.4844 C1602.5419,29.4844 1600.4325,27.5938 1600.4325,25.0156 L1600.4325,23.8906 C1600.4325,21.1719 1602.4325,19.0938 1605.0575,19.0938 C1605.9325,19.0938 1606.5263,19.2344 1607.4638,19.6719 Z "/><text fill="#000000" font-family="sans-serif" font-size="12" lengthAdjust="spacingAndGlyphs" textLength="72" x="1625.62" y="28.1543">MasterMind</text><line style="stroke: #A80036; stroke-width: 1.5;" x1="1548.37" x2="1742.37" y1="40" y2="40"/><rect fill="none" height="6" style="stroke: #C82930; stroke-width: 1.0;" width="6" x="1555.37" y="48"/><text fill="#000000" font-family="sans-serif" font-size="11" lengthAdjust="spacingAndGlyphs" textLength="59" x="1567.37" y="54.2104">Logic logic</text><text fill="#000000" font-family="sans-serif" font-size="11" lengthAdjust="spacingAndGlyphs" textLength="0" x="1571.37" y="67.0151"/><rect fill="none" height="6" style="stroke: #C82930; stroke-width: 1.0;" width="6" x="1555.37" y="73.6094"/><text fill="#000000" font-family="sans-serif" font-size="11" lengthAdjust="spacingAndGlyphs" textLength="122" x="1567.37" y="79.8198">GameView gameView</text><line style="stroke: #A80036; stroke-width: 1.5;" x1="1548.37" x2="1742.37" y1="86.4141" y2="86.4141"/><ellipse cx="1558.37" cy="97.4141" fill="#84BE84" rx="3" ry="3" style="stroke: #038048; stroke-width: 1.0;"/><text fill="#000000" font-family="sans-serif" font-size="11" lengthAdjust="spacingAndGlyphs" textLength="73" x="1567.37" y="100.6245">MasterMind()</text><rect fill="#F24D5C" height="6" style="stroke: #C82930; stroke-width: 1.0;" width="6" x="1555.37" y="107.2188"/><text fill="#000000" font-family="sans-serif" font-size="11" lengthAdjust="spacingAndGlyphs" textLength="58" x="1567.37" y="113.4292">void play()</text><ellipse cx="1558.37" cy="123.0234" fill="#84BE84" rx="3" ry="3" style="stroke: #038048; stroke-width: 1.0;"/><text fill="#000000" font-family="sans-serif" font-size="11" lengthAdjust="spacingAndGlyphs" textLength="170" x="1567.37" y="126.2339">static void main(String[] args)</text><!--MD5=[ae37996fe37499b4347554a2458feb99]
reverse link MasterMind to GameView--><path d="M1534.28,75.82 C1351.95,84.09 997.84,105.44 881.374,150 C853.386,160.71 825.763,176.06 800.137,192.99 " fill="none" id="MasterMind&lt;-GameView" style="stroke: #A80036; stroke-width: 1.0;"/><polygon fill="#A80036" points="1547.37,75.24,1541.1959,71.5144,1535.3822,75.7807,1541.5563,79.5063,1547.37,75.24" style="stroke: #A80036; stroke-width: 1.0;"/><!--MD5=[a87683c97af1adc31cbdd532f9dc4c2b]
reverse link MasterMind to Logic--><path d="M1645.37,146.39 C1645.37,180.09 1645.37,219.17 1645.37,250.17 " fill="none" id="MasterMind&lt;-Logic" style="stroke: #A80036; stroke-width: 1.0;"/><polygon fill="#A80036" points="1645.37,133.29,1641.37,139.29,1645.37,145.29,1649.37,139.29,1645.37,133.29" style="stroke: #A80036; stroke-width: 1.0;"/><!--MD5=[437b837bc90284db9693d08cf0a9839e]
link MasterMind to Controller--><path d="M1743.42,95.73 C1770.73,107.48 1797.3,124.74 1813.37,150 C1877.81,251.23 1837.03,302.35 1813.37,420 C1793.43,519.21 1799.42,561.02 1725.37,630 C1684.51,668.07 1629.81,692.82 1577.15,708.9 " fill="none" id="MasterMind-&gt;Controller" style="stroke: #A80036; stroke-width: 1.0;"/><polygon fill="#A80036" points="1572.06,710.43,1581.8281,711.6886,1576.8511,708.9998,1579.5398,704.0228,1572.06,710.43" style="stroke: #A80036; stroke-width: 1.0;"/><!--MD5=[7876f6a4f6f17b718beea8add4db1f8d]
reverse link Game to Solution--><path d="M2037.81,1336.583 C2048.61,1353.931 2059.12,1370.812 2067.87,1384.862 " fill="none" id="Game&lt;-Solution" style="stroke: #A80036; stroke-width: 1.0;"/><polygon fill="#A80036" points="2030.68,1325.14,2030.4537,1332.3476,2037.0198,1335.3285,2037.2461,1328.121,2030.68,1325.14" style="stroke: #A80036; stroke-width: 1.0;"/><!--MD5=[dd30a8d25c09949520e822d603e437c9]
reverse link Game to Attempt--><path d="M1969.42,1338.403 C1967.81,1396.496 1965.86,1466.881 1964.42,1518.909 " fill="none" id="Game&lt;-Attempt" style="stroke: #A80036; stroke-width: 1.0;"/><polygon fill="#A80036" points="1969.79,1325.065,1965.6259,1330.9523,1969.4588,1337.0604,1973.6229,1331.1731,1969.79,1325.065" style="stroke: #A80036; stroke-width: 1.0;"/><!--MD5=[d9249be97a352e3fe01bfc6aa6a6cdec]
reverse link Combination to Color--><path d="M2076.29,1836.95 C2029.4,1875.565 1957.93,1934.422 1916.73,1968.356 " fill="none" id="Combination&lt;-Color" style="stroke: #A80036; stroke-width: 1.0;"/><polygon fill="#A80036" points="2086.49,1828.555,2079.3153,1829.2783,2077.2234,1836.1793,2084.3981,1835.456,2086.49,1828.555" style="stroke: #A80036; stroke-width: 1.0;"/><!--MD5=[1908729f1be421ff62258fc0720b2855]
link Solution to Combination--><path d="M2103,1459.447 C2108.53,1477.185 2114.43,1498.959 2117.37,1519 C2129,1598.052 2127.69,1691.102 2125.3,1746.997 " fill="none" id="Solution-&gt;Combination" style="stroke: #A80036; stroke-width: 1.0;"/><polygon fill="none" points="2132.28,1747.536,2124.32,1767.173,2118.3,1746.857,2132.28,1747.536" style="stroke: #A80036; stroke-width: 1.0;"/><!--MD5=[c6b0309f238368897ab8957b2543030d]
link Solution to Result--><path d="M2099.39,1459.303 C2109.82,1509.235 2121.73,1600.68 2089.37,1669 C2081.23,1686.206 2051.87,1711.995 2020.86,1735.925 " fill="none" id="Solution-&gt;Result" style="stroke: #A80036; stroke-width: 1.0; stroke-dasharray: 7.0,7.0;"/><polygon fill="#A80036" points="2016.68,1739.137,2026.2557,1736.8334,2020.6474,1736.094,2021.3868,1730.4857,2016.68,1739.137" style="stroke: #A80036; stroke-width: 1.0;"/><!--MD5=[3be283035b64c21d094efec9e9b20b0a]
link Solution to Attempt--><path d="M2063.23,1459.053 C2051.02,1475.272 2036.09,1495.099 2021.5,1514.474 " fill="none" id="Solution-&gt;Attempt" style="stroke: #A80036; stroke-width: 1.0; stroke-dasharray: 7.0,7.0;"/><polygon fill="#A80036" points="2018.2,1518.861,2026.8137,1514.0856,2021.2114,1514.8696,2020.4275,1509.2673,2018.2,1518.861" style="stroke: #A80036; stroke-width: 1.0;"/><!--MD5=[d9a73ba61c3d9fbab37d4c248a066035]
link Attempt to Combination--><path d="M2021.04,1669.07 C2042.93,1696.699 2067.11,1727.229 2086.36,1751.533 " fill="none" id="Attempt-&gt;Combination" style="stroke: #A80036; stroke-width: 1.0;"/><polygon fill="none" points="2091.88,1747.228,2098.81,1767.252,2080.91,1755.92,2091.88,1747.228" style="stroke: #A80036; stroke-width: 1.0;"/><!--MD5=[0ab07085b7bec1aa4e5e3876db584384]
reverse link Attempt to Result--><path d="M1950.3,1682.103 C1948.13,1697.786 1945.89,1713.925 1943.8,1728.968 " fill="none" id="Attempt&lt;-Result" style="stroke: #A80036; stroke-width: 1.0;"/><polygon fill="#A80036" points="1952.11,1669.07,1947.3234,1674.4634,1950.461,1680.9562,1955.2475,1675.5628,1952.11,1669.07" style="stroke: #A80036; stroke-width: 1.0;"/><!--MD5=[3b4ab882adddfa3a424965fb24a8c7d8]
link View to ControllerVisitor--><path d="M795.994,524.39 C821.988,510.83 853.226,494.56 881.374,480 C960.431,439.11 1050.11,393.08 1116.93,358.87 " fill="none" id="View-&gt;ControllerVisitor" style="stroke: #A80036; stroke-width: 1.0;"/><polygon fill="none" points="1114.15,352.43,1135.14,349.54,1120.53,364.89,1114.15,352.43" style="stroke: #A80036; stroke-width: 1.0;"/><!--MD5=[57070e04af1ab79c5a79c6aefe469b18]
link View to Controller--><path d="M787.804,585.5 C814.574,600.7 848.905,618.42 881.374,630 C994.972,670.5 1128.13,697.85 1231.66,714.96 " fill="none" id="View-&gt;Controller" style="stroke: #A80036; stroke-width: 1.0; stroke-dasharray: 7.0,7.0;"/><polygon fill="#A80036" points="1236.87,715.82,1228.6399,710.4103,1231.9365,715.0073,1227.3395,718.3039,1236.87,715.82" style="stroke: #A80036; stroke-width: 1.0;"/><!--MD5=[2490644df483a15e1259025752a5ce2c]
reverse link GameView to SolutionView--><path d="M481.611,403.02 C436,427.4 387.586,454.07 343.374,480 C323.203,491.83 301.529,505.51 282.495,517.87 " fill="none" id="GameView&lt;-SolutionView" style="stroke: #A80036; stroke-width: 1.0;"/><polygon fill="#A80036" points="493.143,396.87,485.9667,396.1623,482.5533,402.5143,489.7296,403.2221,493.143,396.87" style="stroke: #A80036; stroke-width: 1.0;"/><!--MD5=[855af7434dd07f4f42eb84c1a74982a9]
reverse link GameView to AttemptView--><path d="M574.314,430.83 C554.32,457.33 534.33,483.82 518.041,505.41 " fill="none" id="GameView&lt;-AttemptView" style="stroke: #A80036; stroke-width: 1.0;"/><polygon fill="#A80036" points="582.267,420.29,575.4603,422.6709,575.04,429.8697,581.8467,427.4888,582.267,420.29" style="stroke: #A80036; stroke-width: 1.0;"/><!--MD5=[ff80cfb5f9e9f38516aa9282ef354a6f]
link GameView to Result--><path d="M493.032,364 C436.44,382.13 373.312,402.14 315.374,420 C225.876,447.59 174.437,408.99 113.374,480 C37.7438,567.95 77.3745,622.5 77.3745,738.5 C77.3745,738.5 77.3745,738.5 77.3745,963.5 C77.3745,1356.572 1479.7,1695.91 1847.12,1778.072 " fill="none" id="GameView-&gt;Result" style="stroke: #A80036; stroke-width: 1.0; stroke-dasharray: 7.0,7.0;"/><polygon fill="#A80036" points="1852.19,1779.204,1844.2902,1773.3224,1847.3124,1778.1042,1842.5306,1781.1265,1852.19,1779.204" style="stroke: #A80036; stroke-width: 1.0;"/><!--MD5=[9e2c34abc69c4f0d4198a9a2cc8e019b]
link GameView to GameController--><path d="M837.317,420.11 C866.396,439.38 896.003,459 923.265,477.06 " fill="none" id="GameView-&gt;GameController" style="stroke: #A80036; stroke-width: 1.0; stroke-dasharray: 7.0,7.0;"/><polygon fill="#A80036" points="927.62,479.95,922.3365,471.6383,923.4551,477.1834,917.91,478.3021,927.62,479.95" style="stroke: #A80036; stroke-width: 1.0;"/><!--MD5=[87de8c9bea92377554b6de3ddcef5446]
link GameView to AttemptController--><path d="M841.433,405.77 C854.714,411.17 868.112,416 881.374,420 C1133.31,495.94 1221.84,393.57 1470.37,480 C1497.34,489.38 1524.42,506.13 1545.62,521.33 " fill="none" id="GameView-&gt;AttemptController" style="stroke: #A80036; stroke-width: 1.0; stroke-dasharray: 7.0,7.0;"/><polygon fill="#A80036" points="1549.78,524.35,1544.8433,515.8277,1545.7326,521.4142,1540.1461,522.3035,1549.78,524.35" style="stroke: #A80036; stroke-width: 1.0;"/><!--MD5=[a0fcefe5799227bccb07e4f4764c680e]
link GameView to SolutionController--><path d="M841.551,404.36 C854.832,410.11 868.196,415.4 881.374,420 C1016.77,467.21 1062.09,435.41 1198.37,480 C1231.73,490.92 1267.18,507.44 1295.75,522.1 " fill="none" id="GameView-&gt;SolutionController" style="stroke: #A80036; stroke-width: 1.0; stroke-dasharray: 7.0,7.0;"/><polygon fill="#A80036" points="1300.27,524.44,1294.0969,516.7658,1295.8239,522.1526,1290.4371,523.8796,1300.27,524.44" style="stroke: #A80036; stroke-width: 1.0;"/><!--MD5=[098334ea5cb8f24f1f0c94c950ef6ebf]
link GameView to View--><path d="M700.319,420.29 C709.012,450.05 717.944,480.63 725.068,505.02 " fill="none" id="GameView-&gt;View" style="stroke: #A80036; stroke-width: 1.0;"/><polygon fill="none" points="731.809,503.13,730.697,524.29,718.37,507.06,731.809,503.13" style="stroke: #A80036; stroke-width: 1.0;"/><!--MD5=[77bffac4ca0697f6c91cd0406305192a]
link SolutionView to Color--><path d="M216.311,592.15 C193.962,662.45 148.374,822.83 148.374,961.5 C148.374,961.5 148.374,961.5 148.374,1595 C148.374,1733.484 183.853,1792.162 300.374,1867 C434.684,1953.262 1620.67,1988.167 1847.11,1994.073 " fill="none" id="SolutionView-&gt;Color" style="stroke: #A80036; stroke-width: 1.0; stroke-dasharray: 7.0,7.0;"/><polygon fill="#A80036" points="1852.28,1994.207,1843.3858,1989.9769,1847.2817,1994.0784,1843.1801,1997.9743,1852.28,1994.207" style="stroke: #A80036; stroke-width: 1.0;"/><!--MD5=[5b84e25e3dab6e8b51fe1e344127faa3]
link AttemptView to Color--><path d="M422.903,604.74 C345.685,674.93 219.374,812.52 219.374,961.5 C219.374,961.5 219.374,961.5 219.374,1595 C219.374,1941.57 1600.47,1988.649 1846.96,1994.292 " fill="none" id="AttemptView-&gt;Color" style="stroke: #A80036; stroke-width: 1.0; stroke-dasharray: 7.0,7.0;"/><polygon fill="#A80036" points="1852.23,1994.41,1843.3238,1990.2054,1847.2313,1994.2957,1843.1409,1998.2033,1852.23,1994.41" style="stroke: #A80036; stroke-width: 1.0;"/><!--MD5=[4079cc8db7d9e2db3cac8e224b2d457a]
link AttemptView to Attempt--><path d="M519.737,604.63 C573.399,677.68 664.374,822.09 664.374,961.5 C664.374,961.5 664.374,961.5 664.374,1231.5 C664.374,1475.946 1529.49,1562.203 1847.17,1585.637 " fill="none" id="AttemptView-&gt;Attempt" style="stroke: #A80036; stroke-width: 1.0; stroke-dasharray: 7.0,7.0;"/><polygon fill="#A80036" points="1852.27,1586.011,1843.592,1581.3534,1847.2838,1585.6395,1842.9977,1589.3313,1852.27,1586.011" style="stroke: #A80036; stroke-width: 1.0;"/><!--MD5=[240e0d3a29516ccbf70cccd42f94df5c]
link ResultView to Result--><path d="M164.486,349.63 C129.678,381.8 85.0292,429.13 59.3745,480 C6.5618,584.71 6.3745,621.22 6.3745,738.5 C6.3745,738.5 6.3745,738.5 6.3745,963.5 C6.3745,1142.294 0.383,1217.362 121.374,1349 C384.71,1635.507 559.411,1572.403 936.374,1669 C1266.06,1753.481 1671.97,1783.51 1847.13,1793.038 " fill="none" id="ResultView-&gt;Result" style="stroke: #A80036; stroke-width: 1.0; stroke-dasharray: 7.0,7.0;"/><polygon fill="#A80036" points="1852.24,1793.314,1843.4704,1788.8313,1847.2474,1793.0426,1843.0361,1796.8196,1852.24,1793.314" style="stroke: #A80036; stroke-width: 1.0;"/><!--MD5=[a550abbf8fad0aadf60a05f5aa88c9c5]
link ControllerVisitor to GameController--><path d="M1186.98,349.59 C1162.11,384.03 1126.27,433.67 1096.12,475.41 " fill="none" id="ControllerVisitor-&gt;GameController" style="stroke: #A80036; stroke-width: 1.0; stroke-dasharray: 7.0,7.0;"/><polygon fill="#A80036" points="1093.04,479.68,1101.5509,474.7237,1095.9664,475.6259,1095.0642,470.0414,1093.04,479.68" style="stroke: #A80036; stroke-width: 1.0;"/><!--MD5=[4cee98bad8a00fd2b5d443e607829ff6]
link ControllerVisitor to SolutionController--><path d="M1240.6,349.59 C1267.15,397.72 1310.1,475.56 1334.62,520.01 " fill="none" id="ControllerVisitor-&gt;SolutionController" style="stroke: #A80036; stroke-width: 1.0; stroke-dasharray: 7.0,7.0;"/><polygon fill="#A80036" points="1337.08,524.46,1336.2439,514.6467,1334.6688,520.0798,1329.2356,518.5047,1337.08,524.46" style="stroke: #A80036; stroke-width: 1.0;"/><!--MD5=[91d51b978b84eb509c001e6ad8f72290]
link ControllerVisitor to AttemptController--><path d="M1280.39,349.59 C1353.3,398.3 1471.78,477.45 1537.88,521.61 " fill="none" id="ControllerVisitor-&gt;AttemptController" style="stroke: #A80036; stroke-width: 1.0; stroke-dasharray: 7.0,7.0;"/><polygon fill="#A80036" points="1542.16,524.46,1536.9101,516.127,1538.0063,521.6766,1532.4567,522.7728,1542.16,524.46" style="stroke: #A80036; stroke-width: 1.0;"/><!--MD5=[cb217f6ff521d06af4489ff5b0a76c04]
reverse link Controller to State--><path d="M1482.74,796.91 C1526.6,828.48 1581.31,867.87 1626.22,900.2 " fill="none" id="Controller&lt;-State" style="stroke: #A80036; stroke-width: 1.0;"/><polygon fill="#A80036" points="1472.13,789.27,1474.6581,796.0234,1481.8644,796.2872,1479.3363,789.5338,1472.13,789.27" style="stroke: #A80036; stroke-width: 1.0;"/><!--MD5=[ae37b17517c5efafb2d85820dda60839]
link Controller to ControllerVisitor--><path d="M1296.05,689.77 C1272.57,674.07 1250.55,654.29 1236.37,630 C1185.97,543.6 1196.58,421.05 1207.65,354.66 " fill="none" id="Controller-&gt;ControllerVisitor" style="stroke: #A80036; stroke-width: 1.0; stroke-dasharray: 7.0,7.0;"/><polygon fill="#A80036" points="1208.51,349.59,1203.0501,357.7869,1207.6672,354.5185,1210.9357,359.1355,1208.51,349.59" style="stroke: #A80036; stroke-width: 1.0;"/><!--MD5=[e19a160a16ed09b7706f23310fe2e065]
link GameController to Controller--><path d="M1181.54,627.08 C1217.17,644.9 1254.96,663.79 1289.1,680.86 " fill="none" id="GameController-&gt;Controller" style="stroke: #A80036; stroke-width: 1.0;"/><polygon fill="none" points="1292.36,674.67,1307.12,689.87,1286.1,687.19,1292.36,674.67" style="stroke: #A80036; stroke-width: 1.0;"/><!--MD5=[fd6d96117d07c7ddcead29a879aede5a]
link GameController to Attempt--><path d="M1060.59,630.04 C1081.83,710.8 1111.37,844.24 1111.37,961.5 C1111.37,961.5 1111.37,961.5 1111.37,1231.5 C1111.37,1389.451 1614.29,1518.188 1846.89,1569.284 " fill="none" id="GameController-&gt;Attempt" style="stroke: #A80036; stroke-width: 1.0; stroke-dasharray: 7.0,7.0;"/><polygon fill="#A80036" points="1851.99,1570.403,1844.0561,1564.5675,1847.1061,1569.3317,1842.342,1572.3817,1851.99,1570.403" style="stroke: #A80036; stroke-width: 1.0;"/><!--MD5=[3069411f0c3efdedde0fd6c048421305]
link AttemptController to Controller--><path d="M1556.73,585.73 C1532.58,609.95 1497.63,644.98 1467.3,675.4 " fill="none" id="AttemptController-&gt;Controller" style="stroke: #A80036; stroke-width: 1.0;"/><polygon fill="none" points="1471.93,680.67,1452.85,689.89,1462.02,670.78,1471.93,680.67" style="stroke: #A80036; stroke-width: 1.0;"/><!--MD5=[240ba2bbb290313e6d621e1757ed5958]
link SolutionController to Controller--><path d="M1361.68,585.73 C1368.08,608.62 1377.18,641.19 1385.34,670.38 " fill="none" id="SolutionController-&gt;Controller" style="stroke: #A80036; stroke-width: 1.0;"/><polygon fill="none" points="1392.15,668.74,1390.79,689.89,1378.67,672.51,1392.15,668.74" style="stroke: #A80036; stroke-width: 1.0;"/><!--MD5=[c7ee3ddf12dab1a6573079a13c9ba857]
link Logic to GameController--><path d="M1513.02,362.57 C1468.67,380.94 1418.93,401.44 1373.37,420 C1312.31,444.88 1244.83,472.01 1186.61,495.32 " fill="none" id="Logic-&gt;GameController" style="stroke: #A80036; stroke-width: 1.0;"/><polygon fill="#A80036" points="1181.72,497.28,1191.5619,497.6514,1186.3624,495.423,1188.5907,490.2236,1181.72,497.28" style="stroke: #A80036; stroke-width: 1.0;"/><!--MD5=[332b6b406274cd2d2540a924ea64bb96]
link Logic to AttemptController--><path d="M1632.21,362.51 C1620.77,410.31 1604.54,478.11 1594.78,518.89 " fill="none" id="Logic-&gt;AttemptController" style="stroke: #A80036; stroke-width: 1.0;"/><polygon fill="#A80036" points="1593.5,524.22,1599.4934,516.4047,1594.669,519.3586,1591.7151,514.5342,1593.5,524.22" style="stroke: #A80036; stroke-width: 1.0;"/><!--MD5=[6526fa266e093aac6a20f189223fc7c6]
link Logic to SolutionController--><path d="M1580.21,362.51 C1522.66,411.09 1440.65,480.33 1392.62,520.87 " fill="none" id="Logic-&gt;SolutionController" style="stroke: #A80036; stroke-width: 1.0;"/><polygon fill="#A80036" points="1388.65,524.22,1398.1038,521.4585,1392.4664,520.9896,1392.9352,515.3523,1388.65,524.22" style="stroke: #A80036; stroke-width: 1.0;"/><!--MD5=[63338b9150ac7d4921123327ce1a1ef0]
reverse link Logic to State--><path d="M1706.35,373.19 C1730.3,403.36 1755,441.07 1767.37,480 C1806.19,602.11 1779.03,749.28 1750.64,848.52 " fill="none" id="Logic&lt;-State" style="stroke: #A80036; stroke-width: 1.0;"/><polygon fill="#A80036" points="1697.92,362.84,1698.6014,370.0188,1705.4901,372.1509,1704.8087,364.9721,1697.92,362.84" style="stroke: #A80036; stroke-width: 1.0;"/><!--MD5=[b6188329c976d4ab41bf32c7748c8bb4]
reverse link Logic to StateValue--><path d="M1669.31,374.74 C1683.81,405.69 1700.34,443.57 1708.37,480 C1722.74,545.1 1724.57,565.33 1708.37,630 C1681.57,737.05 1620.7,742.61 1591.37,849 C1565.15,944.15 1563.38,1057.69 1569.84,1135.829 " fill="none" id="Logic&lt;-StateValue" style="stroke: #A80036; stroke-width: 1.0;"/><polygon fill="#A80036" points="1663.67,362.8,1662.6176,369.9339,1668.798,373.6491,1669.8504,366.5152,1663.67,362.8" style="stroke: #A80036; stroke-width: 1.0;"/><!--MD5=[a1b898f3a923a590d26eba28684d77cb]
link Logic to StateValue--><path d="M1694.3,362.8 C1714.27,395.61 1734.27,438.74 1743.37,480 C1757.74,545.1 1759.57,565.33 1743.37,630 C1716.57,737.05 1655.7,742.61 1626.37,849 C1600.71,942.11 1598.47,1052.82 1597.94,1130.744 " fill="none" id="Logic-&gt;StateValue" style="stroke: #A80036; stroke-width: 1.0; stroke-dasharray: 7.0,7.0;"/><polygon fill="#A80036" points="1597.9,1135.829,1601.9591,1126.8555,1597.9329,1130.8291,1593.9592,1126.8029,1597.9,1135.829" style="stroke: #A80036; stroke-width: 1.0;"/><!--MD5=[fbb5acb253a1bc4be7784d42d803d38f]
reverse link Logic to Controller--><path d="M1683.63,374.42 C1717.96,444.32 1755.47,554.16 1702.37,630 C1671.98,673.41 1622.32,699.52 1572.17,715.19 " fill="none" id="Logic&lt;-Controller" style="stroke: #A80036; stroke-width: 1.0;"/><polygon fill="#A80036" points="1677.72,362.7,1676.8502,369.8585,1683.1234,373.4146,1683.9933,366.2562,1677.72,362.7" style="stroke: #A80036; stroke-width: 1.0;"/><!--MD5=[d1692ebd3ce5641dd174f825e7be490d]
reverse link State to Game--><path d="M1805.68,1059.61 C1829.95,1084.34 1856.03,1110.924 1880.19,1135.546 " fill="none" id="State&lt;-Game" style="stroke: #A80036; stroke-width: 1.0;"/><polygon fill="#A80036" points="1796.47,1050.23,1797.8183,1057.3139,1804.8759,1058.794,1803.5276,1051.71,1796.47,1050.23" style="stroke: #A80036; stroke-width: 1.0;"/><!--MD5=[159ec9f8adfff7f9b422ced66bda5b65]
reverse link State to StateValue--><path d="M1654.54,1088.45 C1647.29,1104.384 1639.97,1120.475 1633,1135.8 " fill="none" id="State&lt;-StateValue" style="stroke: #A80036; stroke-width: 1.0;"/><polygon fill="#A80036" points="1660.06,1076.31,1653.9333,1080.1131,1655.0874,1087.2312,1661.2141,1083.4281,1660.06,1076.31" style="stroke: #A80036; stroke-width: 1.0;"/><!--MD5=[21da9f5e1b46cdbb84afeb1010ceaad9]
@startuml
class MasterMind{

    - Logic logic
    
    - GameView gameView
    
    + MasterMind()
    
    - void play()
    
    + static void main(String[] args)
    
}

package models {
    
    class Game{
      
        - Solution solution
        
        - boolean win
        
        - ArrayList<Attempt> attempt
        
        + Game()
        
        + void start()
        
        + void nextAttempt(String attemptInput)
        
        + boolean isWon()
        
        + ArrayList<Attempt> getResult()
        
        + int getAttemptNumber()
        
    }
    
    class Combination{
    
        # Color [] combination
        
    }
    
    class Solution{
    
        + Solution()
        
        + Attempt check(Attempt attempt)
        
    }
    
    class Attempt{
        
        - Result result    
        
        + Attempt(String input)
        
        + Color getCombination(int position)
        
        + void setResult(Result result)
        
        + Result getResult()
        
    }
    
    class Result{
    
        - int dead
        
    	- int hurt
    	
        + Result(int dead, int hurt)
        
        + boolean win()
        
        + int getDead()
        
        + int getHurt()
    
        
    }
    
    enum Color{
        r,
        b,
        y,
        o,
        p,
        g,
        all
    }
    
}

package controller {
    
    interface ControllerVisitor{
    
        void visit(GameController gameController)
        
        void visit(SolutionController solutionController)
        
        void visit(AttemptController attemptController)
        
    }
    
    abstract Controller {
    
        # State state
        
        + Controller(State state)
        
        + void next()
        
        + abstract void accept(ControllerVisitor controllerVisitor)
        
    }
    
    
    class GameController {
    
        + GameController(State state)
        
        + void start()
        
        + boolean isWon()
        
        + ArrayList<Attempt> getAttempt()
        
        + int getAttemptNumber()
        
        + void accept(ControllerVisitor controllerVisitor)
        
        + int getStateValue()
        
        - void reset()
        
    }
    
    class AttemptController {
    
        + AttemptController(State state)
        
    }
    
    class SolutionController {
    
        + SolutionController(State state)
        
    }
    
    class Logic {
    
        - Map<StateValue, Controller> acceptorController
    
        - State state
    
        + Logic()
        
        + Controller getController()
    
    }
    
    class State {
    
        - StateValue stateValue
        
        - Game game
        
        + State()
        
        + void next()
        
        + void reset()
        
        + void iterate()
        
        + StateValue getValueState
        
        + Game getGame()
        
    }
    
    enum StateValue {
    
        initialize,
        
        printSolution,
        
        printResult,
        
        nextAttempt,
        
        gameEnd,
        
        exit
        
    }
}

package View {
    interface View{
        void interact(Controller controller)
    }
    
    class GameView{
    
    	- SolutionView solutionView
    	
    	- AttemptView attemptView
    	
        + GameView(Logic logic)
        
        - void headGame()
        
        - void printAttemptNumberInformation(int attemptNumber)
        
        - void winLose()
        
        - void printResults(ArrayList<Result> result)
        
        - void menuOption()
    
        + void visit(GameController controller)
        
        + void visit(SolutionController controller)
        
        + void visit(AttemptController controller)
        
        + void interact(Controller controller)
        
    }
    
    class SolutionView{
    
        + SolutionView()
        
        + void printSecretCombination()
        
    }
    
    class AttemptView{
    
        + AttemptView()
        
        + String readAttempt()
        
        - boolean checkAttempt(String attempt)
        
        + void printResult(Attempt attempt)
    }
    
    class ResultView{
    
        - Result result
    
        + ResultView(Result result)
        
        + getImprimibleResult()
        
    }
    
}

MasterMind *- -GameView

MasterMind *- - Logic

MasterMind - -> Controller

Game *- - Solution

Game *- - Attempt

Combination *- - Color

Solution - -|> Combination

Solution ..> Result

Solution ..> Attempt

Attempt - -|> Combination

Attempt *- - Result

View - -|> ControllerVisitor

View ..> Controller

GameView *- - SolutionView

GameView *- - AttemptView

GameView ..> Result

GameView ..> GameController

GameView ..> AttemptController

GameView ..> SolutionController

GameView - -|> View

SolutionView ..> Color

AttemptView ..> Color

AttemptView ..> Attempt

ResultView ..> Result

ControllerVisitor ..> GameController

ControllerVisitor ..> SolutionController

ControllerVisitor ..> AttemptController

Controller *- - State

Controller ..> ControllerVisitor

GameController - -|> Controller

GameController ..> Attempt

AttemptController - -|> Controller

SolutionController - -|> Controller

Logic - -> GameController

Logic - -> AttemptController

Logic - -> SolutionController

Logic *- - State

Logic *- - StateValue

Logic *- - Controller

Logic ..> StateValue

State *- - Game

State *- -StateValue
@enduml

PlantUML version 1.2019.11(Sun Sep 22 10:02:15 UTC 2019)
(GPL source distribution)
Java Runtime: Java(TM) SE Runtime Environment
JVM: Java HotSpot(TM) 64-Bit Server VM
Java Version: 1.7.0_25-b15
Operating System: Linux
Default Encoding: UTF-8
Language: en
Country: US
--></g></svg>