<?xml version="1.0" encoding="UTF-8" standalone="no"?><svg xmlns="http://www.w3.org/2000/svg" xmlns:xlink="http://www.w3.org/1999/xlink" contentScriptType="application/ecmascript" contentStyleType="text/css" height="2393px" preserveAspectRatio="none" style="width:1582px;height:2393px;" version="1.1" viewBox="0 0 1582 2393" width="1582px" zoomAndPan="magnify"><defs><filter height="300%" id="f1s7v4qj2cdczm" width="300%" x="-1" y="-1"><feGaussianBlur result="blurOut" stdDeviation="2.0"/><feColorMatrix in="blurOut" result="blurOut2" type="matrix" values="0 0 0 0 0 0 0 0 0 0 0 0 0 0 0 0 0 0 .4 0"/><feOffset dx="4.0" dy="4.0" in="blurOut2" result="blurOut3"/><feBlend in="SourceGraphic" in2="blurOut3" mode="normal"/></filter></defs><g><!--MD5=[153973e0405221f6a20dc6ad197c532d]
class MasterMind--><rect fill="#FEFECE" filter="url(#f1s7v4qj2cdczm)" height="124.8281" id="MasterMind" style="stroke: #A80036; stroke-width: 1.5;" width="196" x="714" y="8"/><ellipse cx="771.75" cy="24" fill="#ADD1B2" rx="11" ry="11" style="stroke: #A80036; stroke-width: 1.0;"/><path d="M774.0938,19.6719 L774.2656,19.75 C774.4844,19.4375 774.6875,19.3438 774.9844,19.3438 C775.2813,19.3438 775.5625,19.4844 775.7188,19.75 C775.8125,19.9063 775.8281,20.0313 775.8281,20.4688 L775.8281,21.8906 C775.8281,22.3125 775.7969,22.5 775.6875,22.6563 C775.5156,22.875 775.25,23.0156 774.9844,23.0156 C774.7656,23.0156 774.5313,22.9063 774.3906,22.7656 C774.25,22.6406 774.2188,22.5156 774.1563,22.1094 C774.0625,21.7031 773.8906,21.4844 773.4063,21.2031 C772.9375,20.9531 772.3281,20.7969 771.75,20.7969 C770.0156,20.7969 768.7656,22.1094 768.7656,23.8906 L768.7656,24.9844 C768.7656,26.6875 770.0625,27.7813 772.1094,27.7813 C772.875,27.7813 773.5625,27.6563 773.9844,27.3906 C774.1719,27.2969 774.1719,27.2969 774.625,26.8125 C774.8125,26.625 775.0156,26.5469 775.2344,26.5469 C775.7031,26.5469 776.0938,26.9375 776.0938,27.3906 C776.0938,27.7813 775.7656,28.2344 775.1875,28.6406 C774.4375,29.1875 773.2813,29.4844 772.0625,29.4844 C769.1719,29.4844 767.0625,27.5938 767.0625,25.0156 L767.0625,23.8906 C767.0625,21.1719 769.0625,19.0938 771.6875,19.0938 C772.5625,19.0938 773.1563,19.2344 774.0938,19.6719 Z "/><text fill="#000000" font-family="sans-serif" font-size="12" lengthAdjust="spacingAndGlyphs" textLength="72" x="792.25" y="28.1543">MasterMind</text><line style="stroke: #A80036; stroke-width: 1.5;" x1="715" x2="909" y1="40" y2="40"/><rect fill="none" height="6" style="stroke: #C82930; stroke-width: 1.0;" width="6" x="722" y="48"/><text fill="#000000" font-family="sans-serif" font-size="11" lengthAdjust="spacingAndGlyphs" textLength="59" x="734" y="54.2104">Logic logic</text><text fill="#000000" font-family="sans-serif" font-size="11" lengthAdjust="spacingAndGlyphs" textLength="0" x="738" y="67.0151"/><rect fill="none" height="6" style="stroke: #C82930; stroke-width: 1.0;" width="6" x="722" y="73.6094"/><text fill="#000000" font-family="sans-serif" font-size="11" lengthAdjust="spacingAndGlyphs" textLength="122" x="734" y="79.8198">GameView gameView</text><line style="stroke: #A80036; stroke-width: 1.5;" x1="715" x2="909" y1="86.4141" y2="86.4141"/><ellipse cx="725" cy="97.4141" fill="#84BE84" rx="3" ry="3" style="stroke: #038048; stroke-width: 1.0;"/><text fill="#000000" font-family="sans-serif" font-size="11" lengthAdjust="spacingAndGlyphs" textLength="73" x="734" y="100.6245">MasterMind()</text><rect fill="#F24D5C" height="6" style="stroke: #C82930; stroke-width: 1.0;" width="6" x="722" y="107.2188"/><text fill="#000000" font-family="sans-serif" font-size="11" lengthAdjust="spacingAndGlyphs" textLength="58" x="734" y="113.4292">void play()</text><ellipse cx="725" cy="123.0234" fill="#84BE84" rx="3" ry="3" style="stroke: #038048; stroke-width: 1.0;"/><text fill="#000000" font-family="sans-serif" font-size="11" lengthAdjust="spacingAndGlyphs" textLength="170" x="734" y="126.2339">static void main(String[] args)</text><!--MD5=[b6dcce5e5ef3c84b0b048d11301373dd]
class Game--><rect fill="#FEFECE" filter="url(#f1s7v4qj2cdczm)" height="188.8516" id="Game" style="stroke: #A80036; stroke-width: 1.5;" width="239" x="639.5" y="1429"/><ellipse cx="736.75" cy="1445" fill="#ADD1B2" rx="11" ry="11" style="stroke: #A80036; stroke-width: 1.0;"/><path d="M739.0938,1440.6719 L739.2656,1440.75 C739.4844,1440.4375 739.6875,1440.3438 739.9844,1440.3438 C740.2813,1440.3438 740.5625,1440.4844 740.7188,1440.75 C740.8125,1440.9063 740.8281,1441.0313 740.8281,1441.4688 L740.8281,1442.8906 C740.8281,1443.3125 740.7969,1443.5 740.6875,1443.6563 C740.5156,1443.875 740.25,1444.0156 739.9844,1444.0156 C739.7656,1444.0156 739.5313,1443.9063 739.3906,1443.7656 C739.25,1443.6406 739.2188,1443.5156 739.1563,1443.1094 C739.0625,1442.7031 738.8906,1442.4844 738.4063,1442.2031 C737.9375,1441.9531 737.3281,1441.7969 736.75,1441.7969 C735.0156,1441.7969 733.7656,1443.1094 733.7656,1444.8906 L733.7656,1445.9844 C733.7656,1447.6875 735.0625,1448.7813 737.1094,1448.7813 C737.875,1448.7813 738.5625,1448.6563 738.9844,1448.3906 C739.1719,1448.2969 739.1719,1448.2969 739.625,1447.8125 C739.8125,1447.625 740.0156,1447.5469 740.2344,1447.5469 C740.7031,1447.5469 741.0938,1447.9375 741.0938,1448.3906 C741.0938,1448.7813 740.7656,1449.2344 740.1875,1449.6406 C739.4375,1450.1875 738.2813,1450.4844 737.0625,1450.4844 C734.1719,1450.4844 732.0625,1448.5938 732.0625,1446.0156 L732.0625,1444.8906 C732.0625,1442.1719 734.0625,1440.0938 736.6875,1440.0938 C737.5625,1440.0938 738.1563,1440.2344 739.0938,1440.6719 Z "/><text fill="#000000" font-family="sans-serif" font-size="12" lengthAdjust="spacingAndGlyphs" textLength="36" x="757.25" y="1449.1543">Game</text><line style="stroke: #A80036; stroke-width: 1.5;" x1="640.5" x2="877.5" y1="1461" y2="1461"/><rect fill="none" height="6" style="stroke: #C82930; stroke-width: 1.0;" width="6" x="647.5" y="1469"/><text fill="#000000" font-family="sans-serif" font-size="11" lengthAdjust="spacingAndGlyphs" textLength="95" x="659.5" y="1475.2104">Solution solution</text><text fill="#000000" font-family="sans-serif" font-size="11" lengthAdjust="spacingAndGlyphs" textLength="0" x="663.5" y="1488.0151"/><rect fill="none" height="6" style="stroke: #C82930; stroke-width: 1.0;" width="6" x="647.5" y="1494.6094"/><text fill="#000000" font-family="sans-serif" font-size="11" lengthAdjust="spacingAndGlyphs" textLength="68" x="659.5" y="1500.8198">boolean win</text><text fill="#000000" font-family="sans-serif" font-size="11" lengthAdjust="spacingAndGlyphs" textLength="0" x="663.5" y="1513.6245"/><rect fill="none" height="6" style="stroke: #C82930; stroke-width: 1.0;" width="6" x="647.5" y="1520.2188"/><text fill="#000000" font-family="sans-serif" font-size="11" lengthAdjust="spacingAndGlyphs" textLength="160" x="659.5" y="1526.4292">ArrayList&lt;Attempt&gt; attempt</text><line style="stroke: #A80036; stroke-width: 1.5;" x1="640.5" x2="877.5" y1="1533.0234" y2="1533.0234"/><ellipse cx="650.5" cy="1544.0234" fill="#84BE84" rx="3" ry="3" style="stroke: #038048; stroke-width: 1.0;"/><text fill="#000000" font-family="sans-serif" font-size="11" lengthAdjust="spacingAndGlyphs" textLength="42" x="659.5" y="1547.2339">Game()</text><ellipse cx="650.5" cy="1556.8281" fill="#84BE84" rx="3" ry="3" style="stroke: #038048; stroke-width: 1.0;"/><text fill="#000000" font-family="sans-serif" font-size="11" lengthAdjust="spacingAndGlyphs" textLength="62" x="659.5" y="1560.0386">void start()</text><ellipse cx="650.5" cy="1569.6328" fill="#84BE84" rx="3" ry="3" style="stroke: #038048; stroke-width: 1.0;"/><text fill="#000000" font-family="sans-serif" font-size="11" lengthAdjust="spacingAndGlyphs" textLength="213" x="659.5" y="1572.8433">void nextAttempt(String attemptInput)</text><ellipse cx="650.5" cy="1582.4375" fill="#84BE84" rx="3" ry="3" style="stroke: #038048; stroke-width: 1.0;"/><text fill="#000000" font-family="sans-serif" font-size="11" lengthAdjust="spacingAndGlyphs" textLength="90" x="659.5" y="1585.6479">boolean isWon()</text><ellipse cx="650.5" cy="1595.2422" fill="#84BE84" rx="3" ry="3" style="stroke: #038048; stroke-width: 1.0;"/><text fill="#000000" font-family="sans-serif" font-size="11" lengthAdjust="spacingAndGlyphs" textLength="177" x="659.5" y="1598.4526">ArrayList&lt;Attempt&gt; getResult()</text><ellipse cx="650.5" cy="1608.0469" fill="#84BE84" rx="3" ry="3" style="stroke: #038048; stroke-width: 1.0;"/><text fill="#000000" font-family="sans-serif" font-size="11" lengthAdjust="spacingAndGlyphs" textLength="133" x="659.5" y="1611.2573">int getAttemptNumber()</text><!--MD5=[28491d17d5ee38c9c116625a5ffc259a]
class Combination--><rect fill="#FEFECE" filter="url(#f1s7v4qj2cdczm)" height="60.8047" id="Combination" style="stroke: #A80036; stroke-width: 1.5;" width="141" x="883.5" y="2085.5"/><ellipse cx="912.45" cy="2101.5" fill="#ADD1B2" rx="11" ry="11" style="stroke: #A80036; stroke-width: 1.0;"/><path d="M914.7938,2097.1719 L914.9656,2097.25 C915.1844,2096.9375 915.3875,2096.8438 915.6844,2096.8438 C915.9813,2096.8438 916.2625,2096.9844 916.4188,2097.25 C916.5125,2097.4063 916.5281,2097.5313 916.5281,2097.9688 L916.5281,2099.3906 C916.5281,2099.8125 916.4969,2100 916.3875,2100.1563 C916.2156,2100.375 915.95,2100.5156 915.6844,2100.5156 C915.4656,2100.5156 915.2313,2100.4063 915.0906,2100.2656 C914.95,2100.1406 914.9188,2100.0156 914.8563,2099.6094 C914.7625,2099.2031 914.5906,2098.9844 914.1063,2098.7031 C913.6375,2098.4531 913.0281,2098.2969 912.45,2098.2969 C910.7156,2098.2969 909.4656,2099.6094 909.4656,2101.3906 L909.4656,2102.4844 C909.4656,2104.1875 910.7625,2105.2813 912.8094,2105.2813 C913.575,2105.2813 914.2625,2105.1563 914.6844,2104.8906 C914.8719,2104.7969 914.8719,2104.7969 915.325,2104.3125 C915.5125,2104.125 915.7156,2104.0469 915.9344,2104.0469 C916.4031,2104.0469 916.7938,2104.4375 916.7938,2104.8906 C916.7938,2105.2813 916.4656,2105.7344 915.8875,2106.1406 C915.1375,2106.6875 913.9813,2106.9844 912.7625,2106.9844 C909.8719,2106.9844 907.7625,2105.0938 907.7625,2102.5156 L907.7625,2101.3906 C907.7625,2098.6719 909.7625,2096.5938 912.3875,2096.5938 C913.2625,2096.5938 913.8563,2096.7344 914.7938,2097.1719 Z "/><text fill="#000000" font-family="sans-serif" font-size="12" lengthAdjust="spacingAndGlyphs" textLength="78" x="929.55" y="2105.6543">Combination</text><line style="stroke: #A80036; stroke-width: 1.5;" x1="884.5" x2="1023.5" y1="2117.5" y2="2117.5"/><polygon fill="none" points="894.5,2123.5,898.5,2127.5,894.5,2131.5,890.5,2127.5" style="stroke: #B38D22; stroke-width: 1.0;"/><text fill="#000000" font-family="sans-serif" font-size="11" lengthAdjust="spacingAndGlyphs" textLength="115" x="903.5" y="2131.7104">Color [] combination</text><line style="stroke: #A80036; stroke-width: 1.5;" x1="884.5" x2="1023.5" y1="2138.3047" y2="2138.3047"/><!--MD5=[14dcd1c6f0ba10ad7a0e543e42252a17]
class Solution--><rect fill="#FEFECE" filter="url(#f1s7v4qj2cdczm)" height="73.6094" id="Solution" style="stroke: #A80036; stroke-width: 1.5;" width="206" x="656" y="1690.5"/><ellipse cx="729.25" cy="1706.5" fill="#ADD1B2" rx="11" ry="11" style="stroke: #A80036; stroke-width: 1.0;"/><path d="M731.5938,1702.1719 L731.7656,1702.25 C731.9844,1701.9375 732.1875,1701.8438 732.4844,1701.8438 C732.7813,1701.8438 733.0625,1701.9844 733.2188,1702.25 C733.3125,1702.4063 733.3281,1702.5313 733.3281,1702.9688 L733.3281,1704.3906 C733.3281,1704.8125 733.2969,1705 733.1875,1705.1563 C733.0156,1705.375 732.75,1705.5156 732.4844,1705.5156 C732.2656,1705.5156 732.0313,1705.4063 731.8906,1705.2656 C731.75,1705.1406 731.7188,1705.0156 731.6563,1704.6094 C731.5625,1704.2031 731.3906,1703.9844 730.9063,1703.7031 C730.4375,1703.4531 729.8281,1703.2969 729.25,1703.2969 C727.5156,1703.2969 726.2656,1704.6094 726.2656,1706.3906 L726.2656,1707.4844 C726.2656,1709.1875 727.5625,1710.2813 729.6094,1710.2813 C730.375,1710.2813 731.0625,1710.1563 731.4844,1709.8906 C731.6719,1709.7969 731.6719,1709.7969 732.125,1709.3125 C732.3125,1709.125 732.5156,1709.0469 732.7344,1709.0469 C733.2031,1709.0469 733.5938,1709.4375 733.5938,1709.8906 C733.5938,1710.2813 733.2656,1710.7344 732.6875,1711.1406 C731.9375,1711.6875 730.7813,1711.9844 729.5625,1711.9844 C726.6719,1711.9844 724.5625,1710.0938 724.5625,1707.5156 L724.5625,1706.3906 C724.5625,1703.6719 726.5625,1701.5938 729.1875,1701.5938 C730.0625,1701.5938 730.6563,1701.7344 731.5938,1702.1719 Z "/><text fill="#000000" font-family="sans-serif" font-size="12" lengthAdjust="spacingAndGlyphs" textLength="51" x="749.75" y="1710.6543">Solution</text><line style="stroke: #A80036; stroke-width: 1.5;" x1="657" x2="861" y1="1722.5" y2="1722.5"/><line style="stroke: #A80036; stroke-width: 1.5;" x1="657" x2="861" y1="1730.5" y2="1730.5"/><ellipse cx="667" cy="1741.5" fill="#84BE84" rx="3" ry="3" style="stroke: #038048; stroke-width: 1.0;"/><text fill="#000000" font-family="sans-serif" font-size="11" lengthAdjust="spacingAndGlyphs" textLength="54" x="676" y="1744.7104">Solution()</text><ellipse cx="667" cy="1754.3047" fill="#84BE84" rx="3" ry="3" style="stroke: #038048; stroke-width: 1.0;"/><text fill="#000000" font-family="sans-serif" font-size="11" lengthAdjust="spacingAndGlyphs" textLength="180" x="676" y="1757.5151">Attempt check(Attempt attempt)</text><!--MD5=[9bcb9a691789609c473493f37f542ed0]
class Attempt--><rect fill="#FEFECE" filter="url(#f1s7v4qj2cdczm)" height="150.4375" id="Attempt" style="stroke: #A80036; stroke-width: 1.5;" width="220" x="844" y="1837"/><ellipse cx="924.75" cy="1853" fill="#ADD1B2" rx="11" ry="11" style="stroke: #A80036; stroke-width: 1.0;"/><path d="M927.0938,1848.6719 L927.2656,1848.75 C927.4844,1848.4375 927.6875,1848.3438 927.9844,1848.3438 C928.2813,1848.3438 928.5625,1848.4844 928.7188,1848.75 C928.8125,1848.9063 928.8281,1849.0313 928.8281,1849.4688 L928.8281,1850.8906 C928.8281,1851.3125 928.7969,1851.5 928.6875,1851.6563 C928.5156,1851.875 928.25,1852.0156 927.9844,1852.0156 C927.7656,1852.0156 927.5313,1851.9063 927.3906,1851.7656 C927.25,1851.6406 927.2188,1851.5156 927.1563,1851.1094 C927.0625,1850.7031 926.8906,1850.4844 926.4063,1850.2031 C925.9375,1849.9531 925.3281,1849.7969 924.75,1849.7969 C923.0156,1849.7969 921.7656,1851.1094 921.7656,1852.8906 L921.7656,1853.9844 C921.7656,1855.6875 923.0625,1856.7813 925.1094,1856.7813 C925.875,1856.7813 926.5625,1856.6563 926.9844,1856.3906 C927.1719,1856.2969 927.1719,1856.2969 927.625,1855.8125 C927.8125,1855.625 928.0156,1855.5469 928.2344,1855.5469 C928.7031,1855.5469 929.0938,1855.9375 929.0938,1856.3906 C929.0938,1856.7813 928.7656,1857.2344 928.1875,1857.6406 C927.4375,1858.1875 926.2813,1858.4844 925.0625,1858.4844 C922.1719,1858.4844 920.0625,1856.5938 920.0625,1854.0156 L920.0625,1852.8906 C920.0625,1850.1719 922.0625,1848.0938 924.6875,1848.0938 C925.5625,1848.0938 926.1563,1848.2344 927.0938,1848.6719 Z "/><text fill="#000000" font-family="sans-serif" font-size="12" lengthAdjust="spacingAndGlyphs" textLength="50" x="945.25" y="1857.1543">Attempt</text><line style="stroke: #A80036; stroke-width: 1.5;" x1="845" x2="1063" y1="1869" y2="1869"/><rect fill="none" height="6" style="stroke: #C82930; stroke-width: 1.0;" width="6" x="852" y="1877"/><text fill="#000000" font-family="sans-serif" font-size="11" lengthAdjust="spacingAndGlyphs" textLength="72" x="864" y="1883.2104">Result result</text><line style="stroke: #A80036; stroke-width: 1.5;" x1="845" x2="1063" y1="1889.8047" y2="1889.8047"/><ellipse cx="855" cy="1900.8047" fill="#84BE84" rx="3" ry="3" style="stroke: #038048; stroke-width: 1.0;"/><text fill="#000000" font-family="sans-serif" font-size="11" lengthAdjust="spacingAndGlyphs" textLength="118" x="864" y="1904.0151">Attempt(String input)</text><text fill="#000000" font-family="sans-serif" font-size="11" lengthAdjust="spacingAndGlyphs" textLength="0" x="868" y="1916.8198"/><ellipse cx="855" cy="1926.4141" fill="#84BE84" rx="3" ry="3" style="stroke: #038048; stroke-width: 1.0;"/><text fill="#000000" font-family="sans-serif" font-size="11" lengthAdjust="spacingAndGlyphs" textLength="194" x="864" y="1929.6245">Color getCombination(int position)</text><text fill="#000000" font-family="sans-serif" font-size="11" lengthAdjust="spacingAndGlyphs" textLength="0" x="868" y="1942.4292"/><ellipse cx="855" cy="1952.0234" fill="#84BE84" rx="3" ry="3" style="stroke: #038048; stroke-width: 1.0;"/><text fill="#000000" font-family="sans-serif" font-size="11" lengthAdjust="spacingAndGlyphs" textLength="160" x="864" y="1955.2339">void setResult(Result result)</text><text fill="#000000" font-family="sans-serif" font-size="11" lengthAdjust="spacingAndGlyphs" textLength="0" x="868" y="1968.0386"/><ellipse cx="855" cy="1977.6328" fill="#84BE84" rx="3" ry="3" style="stroke: #038048; stroke-width: 1.0;"/><text fill="#000000" font-family="sans-serif" font-size="11" lengthAdjust="spacingAndGlyphs" textLength="100" x="864" y="1980.8433">Result getResult()</text><!--MD5=[2741598bdf59a7d7e0d5c97658fd3022]
class Result--><rect fill="#FEFECE" filter="url(#f1s7v4qj2cdczm)" height="137.6328" id="Result" style="stroke: #A80036; stroke-width: 1.5;" width="164" x="503" y="2047"/><ellipse cx="561.25" cy="2063" fill="#ADD1B2" rx="11" ry="11" style="stroke: #A80036; stroke-width: 1.0;"/><path d="M563.5938,2058.6719 L563.7656,2058.75 C563.9844,2058.4375 564.1875,2058.3438 564.4844,2058.3438 C564.7813,2058.3438 565.0625,2058.4844 565.2188,2058.75 C565.3125,2058.9063 565.3281,2059.0313 565.3281,2059.4688 L565.3281,2060.8906 C565.3281,2061.3125 565.2969,2061.5 565.1875,2061.6563 C565.0156,2061.875 564.75,2062.0156 564.4844,2062.0156 C564.2656,2062.0156 564.0313,2061.9063 563.8906,2061.7656 C563.75,2061.6406 563.7188,2061.5156 563.6563,2061.1094 C563.5625,2060.7031 563.3906,2060.4844 562.9063,2060.2031 C562.4375,2059.9531 561.8281,2059.7969 561.25,2059.7969 C559.5156,2059.7969 558.2656,2061.1094 558.2656,2062.8906 L558.2656,2063.9844 C558.2656,2065.6875 559.5625,2066.7813 561.6094,2066.7813 C562.375,2066.7813 563.0625,2066.6563 563.4844,2066.3906 C563.6719,2066.2969 563.6719,2066.2969 564.125,2065.8125 C564.3125,2065.625 564.5156,2065.5469 564.7344,2065.5469 C565.2031,2065.5469 565.5938,2065.9375 565.5938,2066.3906 C565.5938,2066.7813 565.2656,2067.2344 564.6875,2067.6406 C563.9375,2068.1875 562.7813,2068.4844 561.5625,2068.4844 C558.6719,2068.4844 556.5625,2066.5938 556.5625,2064.0156 L556.5625,2062.8906 C556.5625,2060.1719 558.5625,2058.0938 561.1875,2058.0938 C562.0625,2058.0938 562.6563,2058.2344 563.5938,2058.6719 Z "/><text fill="#000000" font-family="sans-serif" font-size="12" lengthAdjust="spacingAndGlyphs" textLength="39" x="581.75" y="2067.1543">Result</text><line style="stroke: #A80036; stroke-width: 1.5;" x1="504" x2="666" y1="2079" y2="2079"/><rect fill="none" height="6" style="stroke: #C82930; stroke-width: 1.0;" width="6" x="511" y="2087"/><text fill="#000000" font-family="sans-serif" font-size="11" lengthAdjust="spacingAndGlyphs" textLength="46" x="523" y="2093.2104">int dead</text><text fill="#000000" font-family="sans-serif" font-size="11" lengthAdjust="spacingAndGlyphs" textLength="0" x="527" y="2106.0151"/><rect fill="none" height="6" style="stroke: #C82930; stroke-width: 1.0;" width="6" x="511" y="2112.6094"/><text fill="#000000" font-family="sans-serif" font-size="11" lengthAdjust="spacingAndGlyphs" textLength="41" x="523" y="2118.8198">int hurt</text><line style="stroke: #A80036; stroke-width: 1.5;" x1="504" x2="666" y1="2125.4141" y2="2125.4141"/><ellipse cx="514" cy="2136.4141" fill="#84BE84" rx="3" ry="3" style="stroke: #038048; stroke-width: 1.0;"/><text fill="#000000" font-family="sans-serif" font-size="11" lengthAdjust="spacingAndGlyphs" textLength="138" x="523" y="2139.6245">Result(int dead, int hurt)</text><ellipse cx="514" cy="2149.2188" fill="#84BE84" rx="3" ry="3" style="stroke: #038048; stroke-width: 1.0;"/><text fill="#000000" font-family="sans-serif" font-size="11" lengthAdjust="spacingAndGlyphs" textLength="76" x="523" y="2152.4292">boolean win()</text><ellipse cx="514" cy="2162.0234" fill="#84BE84" rx="3" ry="3" style="stroke: #038048; stroke-width: 1.0;"/><text fill="#000000" font-family="sans-serif" font-size="11" lengthAdjust="spacingAndGlyphs" textLength="73" x="523" y="2165.2339">int getDead()</text><ellipse cx="514" cy="2174.8281" fill="#84BE84" rx="3" ry="3" style="stroke: #038048; stroke-width: 1.0;"/><text fill="#000000" font-family="sans-serif" font-size="11" lengthAdjust="spacingAndGlyphs" textLength="68" x="523" y="2178.0386">int getHurt()</text><!--MD5=[c045e12321b83266d36d22b9096c24ea]
class View--><rect fill="#FEFECE" filter="url(#f1s7v4qj2cdczm)" height="60.8047" id="View" style="stroke: #A80036; stroke-width: 1.5;" width="204" x="710" y="480"/><ellipse cx="793.25" cy="496" fill="#B4A7E5" rx="11" ry="11" style="stroke: #A80036; stroke-width: 1.0;"/><path d="M794.2031,492.7813 L794.2031,499.2969 L795.9219,499.2969 C796.375,499.2969 796.5156,499.3281 796.6875,499.4531 C796.9219,499.625 797.0313,499.875 797.0313,500.1563 C797.0313,500.7188 796.6719,501 795.9219,501 L790.7813,501 C790.375,501 790.1719,500.9531 790.0156,500.8281 C789.7969,500.6719 789.6563,500.4063 789.6563,500.1563 C789.6563,499.8594 789.8125,499.5781 790.0625,499.4219 C790.2188,499.3125 790.3438,499.2969 790.7813,499.2969 L792.5,499.2969 L792.5,492.7813 L790.7813,492.7813 C790.3594,492.7813 790.1719,492.75 790.0156,492.6406 C789.7969,492.4688 789.6563,492.2188 789.6563,491.9375 C789.6563,491.6563 789.8125,491.3594 790.0625,491.2031 C790.2188,491.1094 790.3438,491.0938 790.7813,491.0938 L795.9219,491.0938 C796.375,491.0938 796.5156,491.125 796.6875,491.2344 C796.9219,491.4063 797.0313,491.6719 797.0313,491.9375 C797.0313,492.2344 796.8906,492.5156 796.625,492.6719 C796.5,492.75 796.3125,492.7813 795.9219,492.7813 Z "/><text fill="#000000" font-family="sans-serif" font-size="12" font-style="italic" lengthAdjust="spacingAndGlyphs" textLength="29" x="813.75" y="500.1543">View</text><line style="stroke: #A80036; stroke-width: 1.5;" x1="711" x2="913" y1="512" y2="512"/><line style="stroke: #A80036; stroke-width: 1.5;" x1="711" x2="913" y1="520" y2="520"/><text fill="#000000" font-family="sans-serif" font-size="11" lengthAdjust="spacingAndGlyphs" textLength="192" x="716" y="534.2104">void interact(Controller controller)</text><!--MD5=[5d3822d29342fbd355d1b65ea3562ec9]
class GameView--><rect fill="#FEFECE" filter="url(#f1s7v4qj2cdczm)" height="227.2656" id="GameView" style="stroke: #A80036; stroke-width: 1.5;" width="348" x="638" y="193"/><ellipse cx="775.75" cy="209" fill="#ADD1B2" rx="11" ry="11" style="stroke: #A80036; stroke-width: 1.0;"/><path d="M778.0938,204.6719 L778.2656,204.75 C778.4844,204.4375 778.6875,204.3438 778.9844,204.3438 C779.2813,204.3438 779.5625,204.4844 779.7188,204.75 C779.8125,204.9063 779.8281,205.0313 779.8281,205.4688 L779.8281,206.8906 C779.8281,207.3125 779.7969,207.5 779.6875,207.6563 C779.5156,207.875 779.25,208.0156 778.9844,208.0156 C778.7656,208.0156 778.5313,207.9063 778.3906,207.7656 C778.25,207.6406 778.2188,207.5156 778.1563,207.1094 C778.0625,206.7031 777.8906,206.4844 777.4063,206.2031 C776.9375,205.9531 776.3281,205.7969 775.75,205.7969 C774.0156,205.7969 772.7656,207.1094 772.7656,208.8906 L772.7656,209.9844 C772.7656,211.6875 774.0625,212.7813 776.1094,212.7813 C776.875,212.7813 777.5625,212.6563 777.9844,212.3906 C778.1719,212.2969 778.1719,212.2969 778.625,211.8125 C778.8125,211.625 779.0156,211.5469 779.2344,211.5469 C779.7031,211.5469 780.0938,211.9375 780.0938,212.3906 C780.0938,212.7813 779.7656,213.2344 779.1875,213.6406 C778.4375,214.1875 777.2813,214.4844 776.0625,214.4844 C773.1719,214.4844 771.0625,212.5938 771.0625,210.0156 L771.0625,208.8906 C771.0625,206.1719 773.0625,204.0938 775.6875,204.0938 C776.5625,204.0938 777.1563,204.2344 778.0938,204.6719 Z "/><text fill="#000000" font-family="sans-serif" font-size="12" lengthAdjust="spacingAndGlyphs" textLength="64" x="796.25" y="213.1543">GameView</text><line style="stroke: #A80036; stroke-width: 1.5;" x1="639" x2="985" y1="225" y2="225"/><rect fill="none" height="6" style="stroke: #C82930; stroke-width: 1.0;" width="6" x="646" y="233"/><text fill="#000000" font-family="sans-serif" font-size="11" lengthAdjust="spacingAndGlyphs" textLength="147" x="658" y="239.2104">SolutionView solutionView</text><text fill="#000000" font-family="sans-serif" font-size="11" lengthAdjust="spacingAndGlyphs" textLength="0" x="662" y="252.0151"/><rect fill="none" height="6" style="stroke: #C82930; stroke-width: 1.0;" width="6" x="646" y="258.6094"/><text fill="#000000" font-family="sans-serif" font-size="11" lengthAdjust="spacingAndGlyphs" textLength="144" x="658" y="264.8198">AttemptView attemptView</text><line style="stroke: #A80036; stroke-width: 1.5;" x1="639" x2="985" y1="271.4141" y2="271.4141"/><ellipse cx="649" cy="282.4141" fill="#84BE84" rx="3" ry="3" style="stroke: #038048; stroke-width: 1.0;"/><text fill="#000000" font-family="sans-serif" font-size="11" lengthAdjust="spacingAndGlyphs" textLength="127" x="658" y="285.6245">GameView(Logic logic)</text><rect fill="#F24D5C" height="6" style="stroke: #C82930; stroke-width: 1.0;" width="6" x="646" y="292.2188"/><text fill="#000000" font-family="sans-serif" font-size="11" lengthAdjust="spacingAndGlyphs" textLength="97" x="658" y="298.4292">void headGame()</text><rect fill="#F24D5C" height="6" style="stroke: #C82930; stroke-width: 1.0;" width="6" x="646" y="305.0234"/><text fill="#000000" font-family="sans-serif" font-size="11" lengthAdjust="spacingAndGlyphs" textLength="322" x="658" y="311.2339">void printAttemptNumberInformation(int attemptNumber)</text><rect fill="#F24D5C" height="6" style="stroke: #C82930; stroke-width: 1.0;" width="6" x="646" y="317.8281"/><text fill="#000000" font-family="sans-serif" font-size="11" lengthAdjust="spacingAndGlyphs" textLength="81" x="658" y="324.0386">void winLose()</text><rect fill="#F24D5C" height="6" style="stroke: #C82930; stroke-width: 1.0;" width="6" x="646" y="330.6328"/><text fill="#000000" font-family="sans-serif" font-size="11" lengthAdjust="spacingAndGlyphs" textLength="243" x="658" y="336.8433">void printResults(ArrayList&lt;Result&gt; result)</text><rect fill="#F24D5C" height="6" style="stroke: #C82930; stroke-width: 1.0;" width="6" x="646" y="343.4375"/><text fill="#000000" font-family="sans-serif" font-size="11" lengthAdjust="spacingAndGlyphs" textLength="104" x="658" y="349.6479">void menuOption()</text><text fill="#000000" font-family="sans-serif" font-size="11" lengthAdjust="spacingAndGlyphs" textLength="0" x="662" y="362.4526"/><ellipse cx="649" cy="372.0469" fill="#84BE84" rx="3" ry="3" style="stroke: #038048; stroke-width: 1.0;"/><text fill="#000000" font-family="sans-serif" font-size="11" lengthAdjust="spacingAndGlyphs" textLength="206" x="658" y="375.2573">void visit(GameController controller)</text><ellipse cx="649" cy="384.8516" fill="#84BE84" rx="3" ry="3" style="stroke: #038048; stroke-width: 1.0;"/><text fill="#000000" font-family="sans-serif" font-size="11" lengthAdjust="spacingAndGlyphs" textLength="218" x="658" y="388.062">void visit(SolutionController controller)</text><ellipse cx="649" cy="397.6563" fill="#84BE84" rx="3" ry="3" style="stroke: #038048; stroke-width: 1.0;"/><text fill="#000000" font-family="sans-serif" font-size="11" lengthAdjust="spacingAndGlyphs" textLength="216" x="658" y="400.8667">void visit(AttemptController controller)</text><ellipse cx="649" cy="410.4609" fill="#84BE84" rx="3" ry="3" style="stroke: #038048; stroke-width: 1.0;"/><text fill="#000000" font-family="sans-serif" font-size="11" lengthAdjust="spacingAndGlyphs" textLength="192" x="658" y="413.6714">void interact(Controller controller)</text><!--MD5=[59700ed214cd3dc42bd6ac0da61a0232]
class SolutionView--><rect fill="#FEFECE" filter="url(#f1s7v4qj2cdczm)" height="73.6094" id="SolutionView" style="stroke: #A80036; stroke-width: 1.5;" width="195" x="1376.5" y="995.5"/><ellipse cx="1430.25" cy="1011.5" fill="#ADD1B2" rx="11" ry="11" style="stroke: #A80036; stroke-width: 1.0;"/><path d="M1432.5938,1007.1719 L1432.7656,1007.25 C1432.9844,1006.9375 1433.1875,1006.8438 1433.4844,1006.8438 C1433.7813,1006.8438 1434.0625,1006.9844 1434.2188,1007.25 C1434.3125,1007.4063 1434.3281,1007.5313 1434.3281,1007.9688 L1434.3281,1009.3906 C1434.3281,1009.8125 1434.2969,1010 1434.1875,1010.1563 C1434.0156,1010.375 1433.75,1010.5156 1433.4844,1010.5156 C1433.2656,1010.5156 1433.0313,1010.4063 1432.8906,1010.2656 C1432.75,1010.1406 1432.7188,1010.0156 1432.6563,1009.6094 C1432.5625,1009.2031 1432.3906,1008.9844 1431.9063,1008.7031 C1431.4375,1008.4531 1430.8281,1008.2969 1430.25,1008.2969 C1428.5156,1008.2969 1427.2656,1009.6094 1427.2656,1011.3906 L1427.2656,1012.4844 C1427.2656,1014.1875 1428.5625,1015.2813 1430.6094,1015.2813 C1431.375,1015.2813 1432.0625,1015.1563 1432.4844,1014.8906 C1432.6719,1014.7969 1432.6719,1014.7969 1433.125,1014.3125 C1433.3125,1014.125 1433.5156,1014.0469 1433.7344,1014.0469 C1434.2031,1014.0469 1434.5938,1014.4375 1434.5938,1014.8906 C1434.5938,1015.2813 1434.2656,1015.7344 1433.6875,1016.1406 C1432.9375,1016.6875 1431.7813,1016.9844 1430.5625,1016.9844 C1427.6719,1016.9844 1425.5625,1015.0938 1425.5625,1012.5156 L1425.5625,1011.3906 C1425.5625,1008.6719 1427.5625,1006.5938 1430.1875,1006.5938 C1431.0625,1006.5938 1431.6563,1006.7344 1432.5938,1007.1719 Z "/><text fill="#000000" font-family="sans-serif" font-size="12" lengthAdjust="spacingAndGlyphs" textLength="79" x="1450.75" y="1015.6543">SolutionView</text><line style="stroke: #A80036; stroke-width: 1.5;" x1="1377.5" x2="1570.5" y1="1027.5" y2="1027.5"/><line style="stroke: #A80036; stroke-width: 1.5;" x1="1377.5" x2="1570.5" y1="1035.5" y2="1035.5"/><ellipse cx="1387.5" cy="1046.5" fill="#84BE84" rx="3" ry="3" style="stroke: #038048; stroke-width: 1.0;"/><text fill="#000000" font-family="sans-serif" font-size="11" lengthAdjust="spacingAndGlyphs" textLength="80" x="1396.5" y="1049.7104">SolutionView()</text><ellipse cx="1387.5" cy="1059.3047" fill="#84BE84" rx="3" ry="3" style="stroke: #038048; stroke-width: 1.0;"/><text fill="#000000" font-family="sans-serif" font-size="11" lengthAdjust="spacingAndGlyphs" textLength="169" x="1396.5" y="1062.5151">void printSecretCombination()</text><!--MD5=[87664ed6879b4b0a59edb92235ba1529]
class AttemptView--><rect fill="#FEFECE" filter="url(#f1s7v4qj2cdczm)" height="99.2188" id="AttemptView" style="stroke: #A80036; stroke-width: 1.5;" width="241" x="1109.5" y="1678"/><ellipse cx="1186.75" cy="1694" fill="#ADD1B2" rx="11" ry="11" style="stroke: #A80036; stroke-width: 1.0;"/><path d="M1189.0938,1689.6719 L1189.2656,1689.75 C1189.4844,1689.4375 1189.6875,1689.3438 1189.9844,1689.3438 C1190.2813,1689.3438 1190.5625,1689.4844 1190.7188,1689.75 C1190.8125,1689.9063 1190.8281,1690.0313 1190.8281,1690.4688 L1190.8281,1691.8906 C1190.8281,1692.3125 1190.7969,1692.5 1190.6875,1692.6563 C1190.5156,1692.875 1190.25,1693.0156 1189.9844,1693.0156 C1189.7656,1693.0156 1189.5313,1692.9063 1189.3906,1692.7656 C1189.25,1692.6406 1189.2188,1692.5156 1189.1563,1692.1094 C1189.0625,1691.7031 1188.8906,1691.4844 1188.4063,1691.2031 C1187.9375,1690.9531 1187.3281,1690.7969 1186.75,1690.7969 C1185.0156,1690.7969 1183.7656,1692.1094 1183.7656,1693.8906 L1183.7656,1694.9844 C1183.7656,1696.6875 1185.0625,1697.7813 1187.1094,1697.7813 C1187.875,1697.7813 1188.5625,1697.6563 1188.9844,1697.3906 C1189.1719,1697.2969 1189.1719,1697.2969 1189.625,1696.8125 C1189.8125,1696.625 1190.0156,1696.5469 1190.2344,1696.5469 C1190.7031,1696.5469 1191.0938,1696.9375 1191.0938,1697.3906 C1191.0938,1697.7813 1190.7656,1698.2344 1190.1875,1698.6406 C1189.4375,1699.1875 1188.2813,1699.4844 1187.0625,1699.4844 C1184.1719,1699.4844 1182.0625,1697.5938 1182.0625,1695.0156 L1182.0625,1693.8906 C1182.0625,1691.1719 1184.0625,1689.0938 1186.6875,1689.0938 C1187.5625,1689.0938 1188.1563,1689.2344 1189.0938,1689.6719 Z "/><text fill="#000000" font-family="sans-serif" font-size="12" lengthAdjust="spacingAndGlyphs" textLength="78" x="1207.25" y="1698.1543">AttemptView</text><line style="stroke: #A80036; stroke-width: 1.5;" x1="1110.5" x2="1349.5" y1="1710" y2="1710"/><line style="stroke: #A80036; stroke-width: 1.5;" x1="1110.5" x2="1349.5" y1="1718" y2="1718"/><ellipse cx="1120.5" cy="1729" fill="#84BE84" rx="3" ry="3" style="stroke: #038048; stroke-width: 1.0;"/><text fill="#000000" font-family="sans-serif" font-size="11" lengthAdjust="spacingAndGlyphs" textLength="78" x="1129.5" y="1732.2104">AttemptView()</text><ellipse cx="1120.5" cy="1741.8047" fill="#84BE84" rx="3" ry="3" style="stroke: #038048; stroke-width: 1.0;"/><text fill="#000000" font-family="sans-serif" font-size="11" lengthAdjust="spacingAndGlyphs" textLength="116" x="1129.5" y="1745.0151">String readAttempt()</text><rect fill="#F24D5C" height="6" style="stroke: #C82930; stroke-width: 1.0;" width="6" x="1117.5" y="1751.6094"/><text fill="#000000" font-family="sans-serif" font-size="11" lengthAdjust="spacingAndGlyphs" textLength="215" x="1129.5" y="1757.8198">boolean checkAttempt(String attempt)</text><ellipse cx="1120.5" cy="1767.4141" fill="#84BE84" rx="3" ry="3" style="stroke: #038048; stroke-width: 1.0;"/><text fill="#000000" font-family="sans-serif" font-size="11" lengthAdjust="spacingAndGlyphs" textLength="188" x="1129.5" y="1770.6245">void printResult(Attempt attempt)</text><!--MD5=[a40873b740e53ca026148d30ccb3c321]
class ResultView--><rect fill="#FEFECE" filter="url(#f1s7v4qj2cdczm)" height="86.4141" id="ResultView" style="stroke: #A80036; stroke-width: 1.5;" width="167" x="570.5" y="1869"/><ellipse cx="616.25" cy="1885" fill="#ADD1B2" rx="11" ry="11" style="stroke: #A80036; stroke-width: 1.0;"/><path d="M618.5938,1880.6719 L618.7656,1880.75 C618.9844,1880.4375 619.1875,1880.3438 619.4844,1880.3438 C619.7813,1880.3438 620.0625,1880.4844 620.2188,1880.75 C620.3125,1880.9063 620.3281,1881.0313 620.3281,1881.4688 L620.3281,1882.8906 C620.3281,1883.3125 620.2969,1883.5 620.1875,1883.6563 C620.0156,1883.875 619.75,1884.0156 619.4844,1884.0156 C619.2656,1884.0156 619.0313,1883.9063 618.8906,1883.7656 C618.75,1883.6406 618.7188,1883.5156 618.6563,1883.1094 C618.5625,1882.7031 618.3906,1882.4844 617.9063,1882.2031 C617.4375,1881.9531 616.8281,1881.7969 616.25,1881.7969 C614.5156,1881.7969 613.2656,1883.1094 613.2656,1884.8906 L613.2656,1885.9844 C613.2656,1887.6875 614.5625,1888.7813 616.6094,1888.7813 C617.375,1888.7813 618.0625,1888.6563 618.4844,1888.3906 C618.6719,1888.2969 618.6719,1888.2969 619.125,1887.8125 C619.3125,1887.625 619.5156,1887.5469 619.7344,1887.5469 C620.2031,1887.5469 620.5938,1887.9375 620.5938,1888.3906 C620.5938,1888.7813 620.2656,1889.2344 619.6875,1889.6406 C618.9375,1890.1875 617.7813,1890.4844 616.5625,1890.4844 C613.6719,1890.4844 611.5625,1888.5938 611.5625,1886.0156 L611.5625,1884.8906 C611.5625,1882.1719 613.5625,1880.0938 616.1875,1880.0938 C617.0625,1880.0938 617.6563,1880.2344 618.5938,1880.6719 Z "/><text fill="#000000" font-family="sans-serif" font-size="12" lengthAdjust="spacingAndGlyphs" textLength="67" x="636.75" y="1889.1543">ResultView</text><line style="stroke: #A80036; stroke-width: 1.5;" x1="571.5" x2="736.5" y1="1901" y2="1901"/><rect fill="none" height="6" style="stroke: #C82930; stroke-width: 1.0;" width="6" x="578.5" y="1909"/><text fill="#000000" font-family="sans-serif" font-size="11" lengthAdjust="spacingAndGlyphs" textLength="72" x="590.5" y="1915.2104">Result result</text><line style="stroke: #A80036; stroke-width: 1.5;" x1="571.5" x2="736.5" y1="1921.8047" y2="1921.8047"/><ellipse cx="581.5" cy="1932.8047" fill="#84BE84" rx="3" ry="3" style="stroke: #038048; stroke-width: 1.0;"/><text fill="#000000" font-family="sans-serif" font-size="11" lengthAdjust="spacingAndGlyphs" textLength="141" x="590.5" y="1936.0151">ResultView(Result result)</text><ellipse cx="581.5" cy="1945.6094" fill="#84BE84" rx="3" ry="3" style="stroke: #038048; stroke-width: 1.0;"/><text fill="#000000" font-family="sans-serif" font-size="11" lengthAdjust="spacingAndGlyphs" textLength="121" x="590.5" y="1948.8198">getImprimibleResult()</text><!--MD5=[18eee71c88ab61f27581b8cbdd3ef5ee]
class Color--><rect fill="#FEFECE" filter="url(#f1s7v4qj2cdczm)" height="137.6328" id="Color" style="stroke: #A80036; stroke-width: 1.5;" width="64" x="1198" y="2245"/><ellipse cx="1213" cy="2261" fill="#EB937F" rx="11" ry="11" style="stroke: #A80036; stroke-width: 1.0;"/><path d="M1211.2969,2261.875 L1211.2969,2264.2969 L1215.6563,2264.2969 L1215.6563,2263.4219 C1215.6563,2262.9375 1215.6875,2262.7969 1215.7969,2262.6406 C1215.9688,2262.3906 1216.2344,2262.2813 1216.5,2262.2813 C1216.7813,2262.2813 1217.0625,2262.4375 1217.2344,2262.6875 C1217.3125,2262.8438 1217.3438,2262.9844 1217.3438,2263.4219 L1217.3438,2266 L1209.3438,2266 C1208.9531,2266 1208.7188,2265.9531 1208.5781,2265.8281 C1208.3594,2265.6719 1208.2188,2265.4219 1208.2188,2265.1563 C1208.2188,2264.8594 1208.375,2264.5938 1208.625,2264.4219 C1208.7813,2264.3125 1208.9375,2264.2969 1209.3438,2264.2969 L1209.5938,2264.2969 L1209.5938,2257.7813 L1209.3438,2257.7813 C1208.9219,2257.7813 1208.7344,2257.75 1208.5781,2257.6406 C1208.3594,2257.4688 1208.2188,2257.2188 1208.2188,2256.9375 C1208.2188,2256.6563 1208.375,2256.3594 1208.625,2256.2031 C1208.7813,2256.1094 1208.9063,2256.0938 1209.3438,2256.0938 L1216.9688,2256.0938 L1216.9688,2258.6406 C1216.9688,2259.1094 1216.9375,2259.25 1216.8281,2259.4219 C1216.6563,2259.6406 1216.3906,2259.7813 1216.125,2259.7813 C1215.8438,2259.7813 1215.5625,2259.625 1215.3906,2259.375 C1215.3125,2259.2188 1215.2813,2259.0469 1215.2813,2258.6406 L1215.2813,2257.7813 L1211.2969,2257.7813 L1211.2969,2260.1875 L1212.75,2260.1875 L1212.75,2260.0625 C1212.75,2259.6094 1212.7813,2259.4531 1212.8906,2259.2813 C1213.0625,2259.0625 1213.3281,2258.9219 1213.5781,2258.9219 C1214.0313,2258.9219 1214.3438,2259.2344 1214.4063,2259.7031 C1214.4219,2259.8594 1214.4219,2259.9063 1214.4219,2260.0625 L1214.4219,2261.9844 C1214.4219,2262.4375 1214.3906,2262.5938 1214.2656,2262.75 C1214.1094,2262.9688 1213.8438,2263.1094 1213.5938,2263.1094 C1213.2969,2263.1094 1213.0156,2262.9531 1212.8594,2262.7031 C1212.7813,2262.5469 1212.75,2262.3906 1212.75,2261.9844 L1212.75,2261.875 Z "/><text fill="#000000" font-family="sans-serif" font-size="12" lengthAdjust="spacingAndGlyphs" textLength="32" x="1227" y="2265.1543">Color</text><line style="stroke: #A80036; stroke-width: 1.5;" x1="1199" x2="1261" y1="2277" y2="2277"/><text fill="#000000" font-family="sans-serif" font-size="11" lengthAdjust="spacingAndGlyphs" textLength="9" x="1204" y="2291.2104">r,</text><text fill="#000000" font-family="sans-serif" font-size="11" lengthAdjust="spacingAndGlyphs" textLength="11" x="1204" y="2304.0151">b,</text><text fill="#000000" font-family="sans-serif" font-size="11" lengthAdjust="spacingAndGlyphs" textLength="10" x="1204" y="2316.8198">y,</text><text fill="#000000" font-family="sans-serif" font-size="11" lengthAdjust="spacingAndGlyphs" textLength="11" x="1204" y="2329.6245">o,</text><text fill="#000000" font-family="sans-serif" font-size="11" lengthAdjust="spacingAndGlyphs" textLength="11" x="1204" y="2342.4292">p,</text><text fill="#000000" font-family="sans-serif" font-size="11" lengthAdjust="spacingAndGlyphs" textLength="11" x="1204" y="2355.2339">g,</text><text fill="#000000" font-family="sans-serif" font-size="11" lengthAdjust="spacingAndGlyphs" textLength="13" x="1204" y="2368.0386">all</text><line style="stroke: #A80036; stroke-width: 1.5;" x1="1199" x2="1261" y1="2374.6328" y2="2374.6328"/><!--MD5=[202eb055b61e3635d6abeb6d1809ebdd]
class ControllerVisitor--><rect fill="#FEFECE" filter="url(#f1s7v4qj2cdczm)" height="86.4141" id="ControllerVisitor" style="stroke: #A80036; stroke-width: 1.5;" width="277" x="655.5" y="614"/><ellipse cx="740.25" cy="630" fill="#B4A7E5" rx="11" ry="11" style="stroke: #A80036; stroke-width: 1.0;"/><path d="M741.2031,626.7813 L741.2031,633.2969 L742.9219,633.2969 C743.375,633.2969 743.5156,633.3281 743.6875,633.4531 C743.9219,633.625 744.0313,633.875 744.0313,634.1563 C744.0313,634.7188 743.6719,635 742.9219,635 L737.7813,635 C737.375,635 737.1719,634.9531 737.0156,634.8281 C736.7969,634.6719 736.6563,634.4063 736.6563,634.1563 C736.6563,633.8594 736.8125,633.5781 737.0625,633.4219 C737.2188,633.3125 737.3438,633.2969 737.7813,633.2969 L739.5,633.2969 L739.5,626.7813 L737.7813,626.7813 C737.3594,626.7813 737.1719,626.75 737.0156,626.6406 C736.7969,626.4688 736.6563,626.2188 736.6563,625.9375 C736.6563,625.6563 736.8125,625.3594 737.0625,625.2031 C737.2188,625.1094 737.3438,625.0938 737.7813,625.0938 L742.9219,625.0938 C743.375,625.0938 743.5156,625.125 743.6875,625.2344 C743.9219,625.4063 744.0313,625.6719 744.0313,625.9375 C744.0313,626.2344 743.8906,626.5156 743.625,626.6719 C743.5,626.75 743.3125,626.7813 742.9219,626.7813 Z "/><text fill="#000000" font-family="sans-serif" font-size="12" font-style="italic" lengthAdjust="spacingAndGlyphs" textLength="99" x="760.75" y="634.1543">ControllerVisitor</text><line style="stroke: #A80036; stroke-width: 1.5;" x1="656.5" x2="931.5" y1="646" y2="646"/><line style="stroke: #A80036; stroke-width: 1.5;" x1="656.5" x2="931.5" y1="654" y2="654"/><text fill="#000000" font-family="sans-serif" font-size="11" lengthAdjust="spacingAndGlyphs" textLength="240" x="661.5" y="668.2104">void visit(GameController gameController)</text><text fill="#000000" font-family="sans-serif" font-size="11" lengthAdjust="spacingAndGlyphs" textLength="265" x="661.5" y="681.0151">void visit(SolutionController solutionController)</text><text fill="#000000" font-family="sans-serif" font-size="11" lengthAdjust="spacingAndGlyphs" textLength="262" x="661.5" y="693.8198">void visit(AttemptController attemptController)</text><!--MD5=[1d7ba1c7002d54515419844fbd155368]
class Controller--><rect fill="#FEFECE" filter="url(#f1s7v4qj2cdczm)" height="99.2188" id="Controller" style="stroke: #A80036; stroke-width: 1.5;" width="335" x="533.5" y="983"/><ellipse cx="666.25" cy="999" fill="#A9DCDF" rx="11" ry="11" style="stroke: #A80036; stroke-width: 1.0;"/><path d="M667.8281,1000.8125 L663.7813,1000.8125 L663.3906,1001.7969 L663.7813,1001.7969 C664.2344,1001.7969 664.375,1001.8281 664.5469,1001.9531 C664.7656,1002.125 664.8906,1002.375 664.8906,1002.6563 C664.8906,1002.9375 664.75,1003.2344 664.4844,1003.375 C664.3594,1003.4688 664.1406,1003.5 663.7813,1003.5 L661.5156,1003.5 C660.7656,1003.5 660.3906,1003.2188 660.3906,1002.6563 C660.3906,1002.3594 660.5469,1002.0781 660.7969,1001.9219 C660.9531,1001.8125 661.1094,1001.7969 661.5313,1001.7969 L664.1719,995.2813 L663.0938,995.2813 C662.6563,995.2813 662.4844,995.25 662.3125,995.1406 C662.0938,994.9688 661.9531,994.7188 661.9531,994.4375 C661.9531,994.1563 662.1094,993.875 662.3594,993.7031 C662.5156,993.6094 662.6406,993.5938 663.0938,993.5938 L666.7656,993.5938 L670.1563,1001.7969 C670.625,1001.7969 670.7813,1001.8281 670.9531,1001.9688 C671.1719,1002.125 671.3125,1002.375 671.3125,1002.6563 C671.3125,1002.9375 671.1563,1003.2344 670.9063,1003.375 C670.7656,1003.4688 670.5469,1003.5 670.1875,1003.5 L667.8281,1003.5 C667.4063,1003.5 667.2031,1003.4531 667.0625,1003.3281 C666.8438,1003.1719 666.7031,1002.9219 666.7031,1002.6563 C666.7031,1002.3594 666.8594,1002.0781 667.1094,1001.9219 C667.2656,1001.8125 667.375,1001.7969 667.8281,1001.7969 L668.2188,1001.7969 Z M667.125,999.1094 L665.7969,995.8438 L664.4531,999.1094 Z "/><text fill="#000000" font-family="sans-serif" font-size="12" font-style="italic" lengthAdjust="spacingAndGlyphs" textLength="61" x="686.75" y="1003.1543">Controller</text><line style="stroke: #A80036; stroke-width: 1.5;" x1="534.5" x2="867.5" y1="1015" y2="1015"/><polygon fill="none" points="544.5,1021,548.5,1025,544.5,1029,540.5,1025" style="stroke: #B38D22; stroke-width: 1.0;"/><text fill="#000000" font-family="sans-serif" font-size="11" lengthAdjust="spacingAndGlyphs" textLength="63" x="553.5" y="1029.2104">State state</text><line style="stroke: #A80036; stroke-width: 1.5;" x1="534.5" x2="867.5" y1="1035.8047" y2="1035.8047"/><ellipse cx="544.5" cy="1046.8047" fill="#84BE84" rx="3" ry="3" style="stroke: #038048; stroke-width: 1.0;"/><text fill="#000000" font-family="sans-serif" font-size="11" lengthAdjust="spacingAndGlyphs" textLength="127" x="553.5" y="1050.0151">Controller(State state)</text><ellipse cx="544.5" cy="1059.6094" fill="#84BE84" rx="3" ry="3" style="stroke: #038048; stroke-width: 1.0;"/><text fill="#000000" font-family="sans-serif" font-size="11" lengthAdjust="spacingAndGlyphs" textLength="59" x="553.5" y="1062.8198">void next()</text><ellipse cx="544.5" cy="1072.4141" fill="#84BE84" rx="3" ry="3" style="stroke: #038048; stroke-width: 1.0;"/><text fill="#000000" font-family="sans-serif" font-size="11" lengthAdjust="spacingAndGlyphs" textLength="309" x="553.5" y="1075.6245">abstract void accept(ControllerVisitor controllerVisitor)</text><!--MD5=[82d9c97a467af7c0b2c072e754b85475]
class GameController--><rect fill="#FEFECE" filter="url(#f1s7v4qj2cdczm)" height="150.4375" id="GameController" style="stroke: #A80036; stroke-width: 1.5;" width="284" x="844" y="773"/><ellipse cx="933.25" cy="789" fill="#ADD1B2" rx="11" ry="11" style="stroke: #A80036; stroke-width: 1.0;"/><path d="M935.5938,784.6719 L935.7656,784.75 C935.9844,784.4375 936.1875,784.3438 936.4844,784.3438 C936.7813,784.3438 937.0625,784.4844 937.2188,784.75 C937.3125,784.9063 937.3281,785.0313 937.3281,785.4688 L937.3281,786.8906 C937.3281,787.3125 937.2969,787.5 937.1875,787.6563 C937.0156,787.875 936.75,788.0156 936.4844,788.0156 C936.2656,788.0156 936.0313,787.9063 935.8906,787.7656 C935.75,787.6406 935.7188,787.5156 935.6563,787.1094 C935.5625,786.7031 935.3906,786.4844 934.9063,786.2031 C934.4375,785.9531 933.8281,785.7969 933.25,785.7969 C931.5156,785.7969 930.2656,787.1094 930.2656,788.8906 L930.2656,789.9844 C930.2656,791.6875 931.5625,792.7813 933.6094,792.7813 C934.375,792.7813 935.0625,792.6563 935.4844,792.3906 C935.6719,792.2969 935.6719,792.2969 936.125,791.8125 C936.3125,791.625 936.5156,791.5469 936.7344,791.5469 C937.2031,791.5469 937.5938,791.9375 937.5938,792.3906 C937.5938,792.7813 937.2656,793.2344 936.6875,793.6406 C935.9375,794.1875 934.7813,794.4844 933.5625,794.4844 C930.6719,794.4844 928.5625,792.5938 928.5625,790.0156 L928.5625,788.8906 C928.5625,786.1719 930.5625,784.0938 933.1875,784.0938 C934.0625,784.0938 934.6563,784.2344 935.5938,784.6719 Z "/><text fill="#000000" font-family="sans-serif" font-size="12" lengthAdjust="spacingAndGlyphs" textLength="97" x="953.75" y="793.1543">GameController</text><line style="stroke: #A80036; stroke-width: 1.5;" x1="845" x2="1127" y1="805" y2="805"/><line style="stroke: #A80036; stroke-width: 1.5;" x1="845" x2="1127" y1="813" y2="813"/><ellipse cx="855" cy="824" fill="#84BE84" rx="3" ry="3" style="stroke: #038048; stroke-width: 1.0;"/><text fill="#000000" font-family="sans-serif" font-size="11" lengthAdjust="spacingAndGlyphs" textLength="161" x="864" y="827.2104">GameController(State state)</text><ellipse cx="855" cy="836.8047" fill="#84BE84" rx="3" ry="3" style="stroke: #038048; stroke-width: 1.0;"/><text fill="#000000" font-family="sans-serif" font-size="11" lengthAdjust="spacingAndGlyphs" textLength="62" x="864" y="840.0151">void start()</text><ellipse cx="855" cy="849.6094" fill="#84BE84" rx="3" ry="3" style="stroke: #038048; stroke-width: 1.0;"/><text fill="#000000" font-family="sans-serif" font-size="11" lengthAdjust="spacingAndGlyphs" textLength="90" x="864" y="852.8198">boolean isWon()</text><ellipse cx="855" cy="862.4141" fill="#84BE84" rx="3" ry="3" style="stroke: #038048; stroke-width: 1.0;"/><text fill="#000000" font-family="sans-serif" font-size="11" lengthAdjust="spacingAndGlyphs" textLength="186" x="864" y="865.6245">ArrayList&lt;Attempt&gt; getAttempt()</text><ellipse cx="855" cy="875.2188" fill="#84BE84" rx="3" ry="3" style="stroke: #038048; stroke-width: 1.0;"/><text fill="#000000" font-family="sans-serif" font-size="11" lengthAdjust="spacingAndGlyphs" textLength="133" x="864" y="878.4292">int getAttemptNumber()</text><ellipse cx="855" cy="888.0234" fill="#84BE84" rx="3" ry="3" style="stroke: #038048; stroke-width: 1.0;"/><text fill="#000000" font-family="sans-serif" font-size="11" lengthAdjust="spacingAndGlyphs" textLength="258" x="864" y="891.2339">void accept(ControllerVisitor controllerVisitor)</text><ellipse cx="855" cy="900.8281" fill="#84BE84" rx="3" ry="3" style="stroke: #038048; stroke-width: 1.0;"/><text fill="#000000" font-family="sans-serif" font-size="11" lengthAdjust="spacingAndGlyphs" textLength="105" x="864" y="904.0386">int getStateValue()</text><rect fill="#F24D5C" height="6" style="stroke: #C82930; stroke-width: 1.0;" width="6" x="852" y="910.6328"/><text fill="#000000" font-family="sans-serif" font-size="11" lengthAdjust="spacingAndGlyphs" textLength="65" x="864" y="916.8433">void reset()</text><!--MD5=[b138570f890fce2c1faa390234055ad5]
class AttemptController--><rect fill="#FEFECE" filter="url(#f1s7v4qj2cdczm)" height="60.8047" id="AttemptController" style="stroke: #A80036; stroke-width: 1.5;" width="197" x="306.5" y="817.5"/><ellipse cx="345.8" cy="833.5" fill="#ADD1B2" rx="11" ry="11" style="stroke: #A80036; stroke-width: 1.0;"/><path d="M348.1438,829.1719 L348.3156,829.25 C348.5344,828.9375 348.7375,828.8438 349.0344,828.8438 C349.3313,828.8438 349.6125,828.9844 349.7688,829.25 C349.8625,829.4063 349.8781,829.5313 349.8781,829.9688 L349.8781,831.3906 C349.8781,831.8125 349.8469,832 349.7375,832.1563 C349.5656,832.375 349.3,832.5156 349.0344,832.5156 C348.8156,832.5156 348.5813,832.4063 348.4406,832.2656 C348.3,832.1406 348.2688,832.0156 348.2063,831.6094 C348.1125,831.2031 347.9406,830.9844 347.4563,830.7031 C346.9875,830.4531 346.3781,830.2969 345.8,830.2969 C344.0656,830.2969 342.8156,831.6094 342.8156,833.3906 L342.8156,834.4844 C342.8156,836.1875 344.1125,837.2813 346.1594,837.2813 C346.925,837.2813 347.6125,837.1563 348.0344,836.8906 C348.2219,836.7969 348.2219,836.7969 348.675,836.3125 C348.8625,836.125 349.0656,836.0469 349.2844,836.0469 C349.7531,836.0469 350.1438,836.4375 350.1438,836.8906 C350.1438,837.2813 349.8156,837.7344 349.2375,838.1406 C348.4875,838.6875 347.3313,838.9844 346.1125,838.9844 C343.2219,838.9844 341.1125,837.0938 341.1125,834.5156 L341.1125,833.3906 C341.1125,830.6719 343.1125,828.5938 345.7375,828.5938 C346.6125,828.5938 347.2063,828.7344 348.1438,829.1719 Z "/><text fill="#000000" font-family="sans-serif" font-size="12" lengthAdjust="spacingAndGlyphs" textLength="111" x="365.2" y="837.6543">AttemptController</text><line style="stroke: #A80036; stroke-width: 1.5;" x1="307.5" x2="502.5" y1="849.5" y2="849.5"/><line style="stroke: #A80036; stroke-width: 1.5;" x1="307.5" x2="502.5" y1="857.5" y2="857.5"/><ellipse cx="317.5" cy="868.5" fill="#84BE84" rx="3" ry="3" style="stroke: #038048; stroke-width: 1.0;"/><text fill="#000000" font-family="sans-serif" font-size="11" lengthAdjust="spacingAndGlyphs" textLength="171" x="326.5" y="871.7104">AttemptController(State state)</text><!--MD5=[14f028d922d9ed5631da998c56db54ff]
class SolutionController--><rect fill="#FEFECE" filter="url(#f1s7v4qj2cdczm)" height="60.8047" id="SolutionController" style="stroke: #A80036; stroke-width: 1.5;" width="199" x="538.5" y="817.5"/><ellipse cx="578.25" cy="833.5" fill="#ADD1B2" rx="11" ry="11" style="stroke: #A80036; stroke-width: 1.0;"/><path d="M580.5938,829.1719 L580.7656,829.25 C580.9844,828.9375 581.1875,828.8438 581.4844,828.8438 C581.7813,828.8438 582.0625,828.9844 582.2188,829.25 C582.3125,829.4063 582.3281,829.5313 582.3281,829.9688 L582.3281,831.3906 C582.3281,831.8125 582.2969,832 582.1875,832.1563 C582.0156,832.375 581.75,832.5156 581.4844,832.5156 C581.2656,832.5156 581.0313,832.4063 580.8906,832.2656 C580.75,832.1406 580.7188,832.0156 580.6563,831.6094 C580.5625,831.2031 580.3906,830.9844 579.9063,830.7031 C579.4375,830.4531 578.8281,830.2969 578.25,830.2969 C576.5156,830.2969 575.2656,831.6094 575.2656,833.3906 L575.2656,834.4844 C575.2656,836.1875 576.5625,837.2813 578.6094,837.2813 C579.375,837.2813 580.0625,837.1563 580.4844,836.8906 C580.6719,836.7969 580.6719,836.7969 581.125,836.3125 C581.3125,836.125 581.5156,836.0469 581.7344,836.0469 C582.2031,836.0469 582.5938,836.4375 582.5938,836.8906 C582.5938,837.2813 582.2656,837.7344 581.6875,838.1406 C580.9375,838.6875 579.7813,838.9844 578.5625,838.9844 C575.6719,838.9844 573.5625,837.0938 573.5625,834.5156 L573.5625,833.3906 C573.5625,830.6719 575.5625,828.5938 578.1875,828.5938 C579.0625,828.5938 579.6563,828.7344 580.5938,829.1719 Z "/><text fill="#000000" font-family="sans-serif" font-size="12" lengthAdjust="spacingAndGlyphs" textLength="112" x="597.75" y="837.6543">SolutionController</text><line style="stroke: #A80036; stroke-width: 1.5;" x1="539.5" x2="736.5" y1="849.5" y2="849.5"/><line style="stroke: #A80036; stroke-width: 1.5;" x1="539.5" x2="736.5" y1="857.5" y2="857.5"/><ellipse cx="549.5" cy="868.5" fill="#84BE84" rx="3" ry="3" style="stroke: #038048; stroke-width: 1.0;"/><text fill="#000000" font-family="sans-serif" font-size="11" lengthAdjust="spacingAndGlyphs" textLength="173" x="558.5" y="871.7104">SolutionController(State state)</text><!--MD5=[42fa18dda7351a0ae87d9497de925436]
class Logic--><rect fill="#FEFECE" filter="url(#f1s7v4qj2cdczm)" height="112.0234" id="Logic" style="stroke: #A80036; stroke-width: 1.5;" width="301" x="80.5" y="601"/><ellipse cx="210.75" cy="617" fill="#ADD1B2" rx="11" ry="11" style="stroke: #A80036; stroke-width: 1.0;"/><path d="M213.0938,612.6719 L213.2656,612.75 C213.4844,612.4375 213.6875,612.3438 213.9844,612.3438 C214.2813,612.3438 214.5625,612.4844 214.7188,612.75 C214.8125,612.9063 214.8281,613.0313 214.8281,613.4688 L214.8281,614.8906 C214.8281,615.3125 214.7969,615.5 214.6875,615.6563 C214.5156,615.875 214.25,616.0156 213.9844,616.0156 C213.7656,616.0156 213.5313,615.9063 213.3906,615.7656 C213.25,615.6406 213.2188,615.5156 213.1563,615.1094 C213.0625,614.7031 212.8906,614.4844 212.4063,614.2031 C211.9375,613.9531 211.3281,613.7969 210.75,613.7969 C209.0156,613.7969 207.7656,615.1094 207.7656,616.8906 L207.7656,617.9844 C207.7656,619.6875 209.0625,620.7813 211.1094,620.7813 C211.875,620.7813 212.5625,620.6563 212.9844,620.3906 C213.1719,620.2969 213.1719,620.2969 213.625,619.8125 C213.8125,619.625 214.0156,619.5469 214.2344,619.5469 C214.7031,619.5469 215.0938,619.9375 215.0938,620.3906 C215.0938,620.7813 214.7656,621.2344 214.1875,621.6406 C213.4375,622.1875 212.2813,622.4844 211.0625,622.4844 C208.1719,622.4844 206.0625,620.5938 206.0625,618.0156 L206.0625,616.8906 C206.0625,614.1719 208.0625,612.0938 210.6875,612.0938 C211.5625,612.0938 212.1563,612.2344 213.0938,612.6719 Z "/><text fill="#000000" font-family="sans-serif" font-size="12" lengthAdjust="spacingAndGlyphs" textLength="32" x="231.25" y="621.1543">Logic</text><line style="stroke: #A80036; stroke-width: 1.5;" x1="81.5" x2="380.5" y1="633" y2="633"/><rect fill="none" height="6" style="stroke: #C82930; stroke-width: 1.0;" width="6" x="88.5" y="641"/><text fill="#000000" font-family="sans-serif" font-size="11" lengthAdjust="spacingAndGlyphs" textLength="275" x="100.5" y="647.2104">Map&lt;StateValue, Controller&gt; acceptorController</text><text fill="#000000" font-family="sans-serif" font-size="11" lengthAdjust="spacingAndGlyphs" textLength="0" x="104.5" y="660.0151"/><rect fill="none" height="6" style="stroke: #C82930; stroke-width: 1.0;" width="6" x="88.5" y="666.6094"/><text fill="#000000" font-family="sans-serif" font-size="11" lengthAdjust="spacingAndGlyphs" textLength="63" x="100.5" y="672.8198">State state</text><line style="stroke: #A80036; stroke-width: 1.5;" x1="81.5" x2="380.5" y1="679.4141" y2="679.4141"/><ellipse cx="91.5" cy="690.4141" fill="#84BE84" rx="3" ry="3" style="stroke: #038048; stroke-width: 1.0;"/><text fill="#000000" font-family="sans-serif" font-size="11" lengthAdjust="spacingAndGlyphs" textLength="37" x="100.5" y="693.6245">Logic()</text><ellipse cx="91.5" cy="703.2188" fill="#84BE84" rx="3" ry="3" style="stroke: #038048; stroke-width: 1.0;"/><text fill="#000000" font-family="sans-serif" font-size="11" lengthAdjust="spacingAndGlyphs" textLength="142" x="100.5" y="706.4292">Controller getController()</text><!--MD5=[60d6b92408f98aed8df94d5c6e04aa63]
class State--><rect fill="#FEFECE" filter="url(#f1s7v4qj2cdczm)" height="227.2656" id="State" style="stroke: #A80036; stroke-width: 1.5;" width="170" x="422" y="1142"/><ellipse cx="485.75" cy="1158" fill="#ADD1B2" rx="11" ry="11" style="stroke: #A80036; stroke-width: 1.0;"/><path d="M488.0938,1153.6719 L488.2656,1153.75 C488.4844,1153.4375 488.6875,1153.3438 488.9844,1153.3438 C489.2813,1153.3438 489.5625,1153.4844 489.7188,1153.75 C489.8125,1153.9063 489.8281,1154.0313 489.8281,1154.4688 L489.8281,1155.8906 C489.8281,1156.3125 489.7969,1156.5 489.6875,1156.6563 C489.5156,1156.875 489.25,1157.0156 488.9844,1157.0156 C488.7656,1157.0156 488.5313,1156.9063 488.3906,1156.7656 C488.25,1156.6406 488.2188,1156.5156 488.1563,1156.1094 C488.0625,1155.7031 487.8906,1155.4844 487.4063,1155.2031 C486.9375,1154.9531 486.3281,1154.7969 485.75,1154.7969 C484.0156,1154.7969 482.7656,1156.1094 482.7656,1157.8906 L482.7656,1158.9844 C482.7656,1160.6875 484.0625,1161.7813 486.1094,1161.7813 C486.875,1161.7813 487.5625,1161.6563 487.9844,1161.3906 C488.1719,1161.2969 488.1719,1161.2969 488.625,1160.8125 C488.8125,1160.625 489.0156,1160.5469 489.2344,1160.5469 C489.7031,1160.5469 490.0938,1160.9375 490.0938,1161.3906 C490.0938,1161.7813 489.7656,1162.2344 489.1875,1162.6406 C488.4375,1163.1875 487.2813,1163.4844 486.0625,1163.4844 C483.1719,1163.4844 481.0625,1161.5938 481.0625,1159.0156 L481.0625,1157.8906 C481.0625,1155.1719 483.0625,1153.0938 485.6875,1153.0938 C486.5625,1153.0938 487.1563,1153.2344 488.0938,1153.6719 Z "/><text fill="#000000" font-family="sans-serif" font-size="12" lengthAdjust="spacingAndGlyphs" textLength="34" x="506.25" y="1162.1543">State</text><line style="stroke: #A80036; stroke-width: 1.5;" x1="423" x2="591" y1="1174" y2="1174"/><rect fill="none" height="6" style="stroke: #C82930; stroke-width: 1.0;" width="6" x="430" y="1182"/><text fill="#000000" font-family="sans-serif" font-size="11" lengthAdjust="spacingAndGlyphs" textLength="125" x="442" y="1188.2104">StateValue stateValue</text><text fill="#000000" font-family="sans-serif" font-size="11" lengthAdjust="spacingAndGlyphs" textLength="0" x="446" y="1201.0151"/><rect fill="none" height="6" style="stroke: #C82930; stroke-width: 1.0;" width="6" x="430" y="1207.6094"/><text fill="#000000" font-family="sans-serif" font-size="11" lengthAdjust="spacingAndGlyphs" textLength="70" x="442" y="1213.8198">Game game</text><text fill="#000000" font-family="sans-serif" font-size="11" lengthAdjust="spacingAndGlyphs" textLength="0" x="446" y="1226.6245"/><text fill="#000000" font-family="sans-serif" font-size="11" lengthAdjust="spacingAndGlyphs" textLength="0" x="446" y="1239.4292"/><text fill="#000000" font-family="sans-serif" font-size="11" lengthAdjust="spacingAndGlyphs" textLength="0" x="446" y="1252.2339"/><text fill="#000000" font-family="sans-serif" font-size="11" lengthAdjust="spacingAndGlyphs" textLength="0" x="446" y="1265.0386"/><text fill="#000000" font-family="sans-serif" font-size="11" lengthAdjust="spacingAndGlyphs" textLength="0" x="446" y="1277.8433"/><ellipse cx="433" cy="1287.4375" fill="none" rx="3" ry="3" style="stroke: #038048; stroke-width: 1.0;"/><text fill="#000000" font-family="sans-serif" font-size="11" lengthAdjust="spacingAndGlyphs" textLength="144" x="442" y="1290.6479">StateValue getValueState</text><line style="stroke: #A80036; stroke-width: 1.5;" x1="423" x2="591" y1="1297.2422" y2="1297.2422"/><ellipse cx="433" cy="1308.2422" fill="#84BE84" rx="3" ry="3" style="stroke: #038048; stroke-width: 1.0;"/><text fill="#000000" font-family="sans-serif" font-size="11" lengthAdjust="spacingAndGlyphs" textLength="38" x="442" y="1311.4526">State()</text><ellipse cx="433" cy="1321.0469" fill="#84BE84" rx="3" ry="3" style="stroke: #038048; stroke-width: 1.0;"/><text fill="#000000" font-family="sans-serif" font-size="11" lengthAdjust="spacingAndGlyphs" textLength="59" x="442" y="1324.2573">void next()</text><ellipse cx="433" cy="1333.8516" fill="#84BE84" rx="3" ry="3" style="stroke: #038048; stroke-width: 1.0;"/><text fill="#000000" font-family="sans-serif" font-size="11" lengthAdjust="spacingAndGlyphs" textLength="65" x="442" y="1337.062">void reset()</text><ellipse cx="433" cy="1346.6563" fill="#84BE84" rx="3" ry="3" style="stroke: #038048; stroke-width: 1.0;"/><text fill="#000000" font-family="sans-serif" font-size="11" lengthAdjust="spacingAndGlyphs" textLength="72" x="442" y="1349.8667">void iterate()</text><ellipse cx="433" cy="1359.4609" fill="#84BE84" rx="3" ry="3" style="stroke: #038048; stroke-width: 1.0;"/><text fill="#000000" font-family="sans-serif" font-size="11" lengthAdjust="spacingAndGlyphs" textLength="98" x="442" y="1362.6714">Game getGame()</text><!--MD5=[167506e288131cdf3986fedef83acd94]
class StateValue--><rect fill="#FEFECE" filter="url(#f1s7v4qj2cdczm)" height="188.8516" id="StateValue" style="stroke: #A80036; stroke-width: 1.5;" width="101" x="59.5" y="1429"/><ellipse cx="74.5" cy="1445" fill="#EB937F" rx="11" ry="11" style="stroke: #A80036; stroke-width: 1.0;"/><path d="M72.7969,1445.875 L72.7969,1448.2969 L77.1563,1448.2969 L77.1563,1447.4219 C77.1563,1446.9375 77.1875,1446.7969 77.2969,1446.6406 C77.4688,1446.3906 77.7344,1446.2813 78,1446.2813 C78.2813,1446.2813 78.5625,1446.4375 78.7344,1446.6875 C78.8125,1446.8438 78.8438,1446.9844 78.8438,1447.4219 L78.8438,1450 L70.8438,1450 C70.4531,1450 70.2188,1449.9531 70.0781,1449.8281 C69.8594,1449.6719 69.7188,1449.4219 69.7188,1449.1563 C69.7188,1448.8594 69.875,1448.5938 70.125,1448.4219 C70.2813,1448.3125 70.4375,1448.2969 70.8438,1448.2969 L71.0938,1448.2969 L71.0938,1441.7813 L70.8438,1441.7813 C70.4219,1441.7813 70.2344,1441.75 70.0781,1441.6406 C69.8594,1441.4688 69.7188,1441.2188 69.7188,1440.9375 C69.7188,1440.6563 69.875,1440.3594 70.125,1440.2031 C70.2813,1440.1094 70.4063,1440.0938 70.8438,1440.0938 L78.4688,1440.0938 L78.4688,1442.6406 C78.4688,1443.1094 78.4375,1443.25 78.3281,1443.4219 C78.1563,1443.6406 77.8906,1443.7813 77.625,1443.7813 C77.3438,1443.7813 77.0625,1443.625 76.8906,1443.375 C76.8125,1443.2188 76.7813,1443.0469 76.7813,1442.6406 L76.7813,1441.7813 L72.7969,1441.7813 L72.7969,1444.1875 L74.25,1444.1875 L74.25,1444.0625 C74.25,1443.6094 74.2813,1443.4531 74.3906,1443.2813 C74.5625,1443.0625 74.8281,1442.9219 75.0781,1442.9219 C75.5313,1442.9219 75.8438,1443.2344 75.9063,1443.7031 C75.9219,1443.8594 75.9219,1443.9063 75.9219,1444.0625 L75.9219,1445.9844 C75.9219,1446.4375 75.8906,1446.5938 75.7656,1446.75 C75.6094,1446.9688 75.3438,1447.1094 75.0938,1447.1094 C74.7969,1447.1094 74.5156,1446.9531 74.3594,1446.7031 C74.2813,1446.5469 74.25,1446.3906 74.25,1445.9844 L74.25,1445.875 Z "/><text fill="#000000" font-family="sans-serif" font-size="12" lengthAdjust="spacingAndGlyphs" textLength="69" x="88.5" y="1449.1543">StateValue</text><line style="stroke: #A80036; stroke-width: 1.5;" x1="60.5" x2="159.5" y1="1461" y2="1461"/><text fill="#000000" font-family="sans-serif" font-size="11" lengthAdjust="spacingAndGlyphs" textLength="49" x="65.5" y="1475.2104">initialize,</text><text fill="#000000" font-family="sans-serif" font-size="11" lengthAdjust="spacingAndGlyphs" textLength="0" x="69.5" y="1488.0151"/><text fill="#000000" font-family="sans-serif" font-size="11" lengthAdjust="spacingAndGlyphs" textLength="76" x="65.5" y="1500.8198">printSolution,</text><text fill="#000000" font-family="sans-serif" font-size="11" lengthAdjust="spacingAndGlyphs" textLength="0" x="69.5" y="1513.6245"/><text fill="#000000" font-family="sans-serif" font-size="11" lengthAdjust="spacingAndGlyphs" textLength="65" x="65.5" y="1526.4292">printResult,</text><text fill="#000000" font-family="sans-serif" font-size="11" lengthAdjust="spacingAndGlyphs" textLength="0" x="69.5" y="1539.2339"/><text fill="#000000" font-family="sans-serif" font-size="11" lengthAdjust="spacingAndGlyphs" textLength="72" x="65.5" y="1552.0386">nextAttempt,</text><text fill="#000000" font-family="sans-serif" font-size="11" lengthAdjust="spacingAndGlyphs" textLength="0" x="69.5" y="1564.8433"/><text fill="#000000" font-family="sans-serif" font-size="11" lengthAdjust="spacingAndGlyphs" textLength="57" x="65.5" y="1577.6479">gameEnd,</text><text fill="#000000" font-family="sans-serif" font-size="11" lengthAdjust="spacingAndGlyphs" textLength="0" x="69.5" y="1590.4526"/><text fill="#000000" font-family="sans-serif" font-size="11" lengthAdjust="spacingAndGlyphs" textLength="20" x="65.5" y="1603.2573">exit</text><line style="stroke: #A80036; stroke-width: 1.5;" x1="60.5" x2="159.5" y1="1609.8516" y2="1609.8516"/><!--MD5=[ae37996fe37499b4347554a2458feb99]
reverse link MasterMind to GameView--><path d="M812,146.49 C812,161.22 812,176.97 812,192.62 " fill="none" id="MasterMind&lt;-GameView" style="stroke: #A80036; stroke-width: 1.0;"/><polygon fill="#A80036" points="812,133.29,808,139.29,812,145.29,816,139.29,812,133.29" style="stroke: #A80036; stroke-width: 1.0;"/><!--MD5=[a87683c97af1adc31cbdd532f9dc4c2b]
reverse link MasterMind to Logic--><path d="M702.551,132.62 C674.417,150.47 645.044,171.12 620,193 C472.553,321.83 333.485,508.68 268.843,600.64 " fill="none" id="MasterMind&lt;-Logic" style="stroke: #A80036; stroke-width: 1.0;"/><polygon fill="#A80036" points="713.676,125.66,706.4679,125.4522,703.5037,132.0259,710.7118,132.2337,713.676,125.66" style="stroke: #A80036; stroke-width: 1.0;"/><!--MD5=[437b837bc90284db9693d08cf0a9839e]
link MasterMind to Controller--><path d="M910.211,116.26 C943.677,135.69 978.728,161.34 1003,193 C1206.46,458.35 1393.99,661.98 1185,923 C1146.05,971.65 996.418,999.97 873.716,1015.4 " fill="none" id="MasterMind-&gt;Controller" style="stroke: #A80036; stroke-width: 1.0;"/><polygon fill="#A80036" points="868.63,1016.03,878.056,1018.8848,873.5915,1015.4109,877.0654,1010.9464,868.63,1016.03" style="stroke: #A80036; stroke-width: 1.0;"/><!--MD5=[7876f6a4f6f17b718beea8add4db1f8d]
reverse link Game to Solution--><path d="M759,1631.328 C759,1652.543 759,1673.413 759,1690.179 " fill="none" id="Game&lt;-Solution" style="stroke: #A80036; stroke-width: 1.0;"/><polygon fill="#A80036" points="759,1618.108,755,1624.108,759,1630.108,763,1624.108,759,1618.108" style="stroke: #A80036; stroke-width: 1.0;"/><!--MD5=[dd30a8d25c09949520e822d603e437c9]
reverse link Game to Attempt--><path d="M848.495,1629.175 C859.682,1644.953 870.246,1661.488 879,1678 C905.672,1728.311 924.971,1789.792 937.307,1836.964 " fill="none" id="Game&lt;-Attempt" style="stroke: #A80036; stroke-width: 1.0;"/><polygon fill="#A80036" points="840.666,1618.382,840.9517,1625.5874,847.7128,1628.095,847.4271,1620.8896,840.666,1618.382" style="stroke: #A80036; stroke-width: 1.0;"/><!--MD5=[d9249be97a352e3fe01bfc6aa6a6cdec]
reverse link Combination to Color--><path d="M1006.47,2154.264 C1062.96,2194.376 1151,2256.901 1197.96,2290.2469 " fill="none" id="Combination&lt;-Color" style="stroke: #A80036; stroke-width: 1.0;"/><polygon fill="#A80036" points="995.619,2146.555,998.1965,2153.2897,1005.4045,2153.5008,1002.827,2146.766,995.619,2146.555" style="stroke: #A80036; stroke-width: 1.0;"/><!--MD5=[1908729f1be421ff62258fc0720b2855]
link Solution to Combination--><path d="M762.305,1764.602 C768.369,1816.736 784.686,1914.761 826,1987 C844.605,2019.532 873.652,2049.531 899.375,2072.297 " fill="none" id="Solution-&gt;Combination" style="stroke: #A80036; stroke-width: 1.0;"/><polygon fill="none" points="904.17,2067.187,914.838,2085.495,895.081,2077.836,904.17,2067.187" style="stroke: #A80036; stroke-width: 1.0;"/><!--MD5=[c6b0309f238368897ab8957b2543030d]
link Solution to Result--><path d="M655.755,1757.427 C616.491,1774.009 575.766,1799.278 553,1837 C515.703,1898.798 532.476,1982.502 553.121,2041.87 " fill="none" id="Solution-&gt;Result" style="stroke: #A80036; stroke-width: 1.0; stroke-dasharray: 7.0,7.0;"/><polygon fill="#A80036" points="554.87,2046.818,555.6405,2036.9993,553.203,2042.1041,548.0982,2039.6666,554.87,2046.818" style="stroke: #A80036; stroke-width: 1.0;"/><!--MD5=[3be283035b64c21d094efec9e9b20b0a]
link Solution to Attempt--><path d="M797.526,1764.556 C818.578,1784.259 845.507,1809.461 871.068,1833.384 " fill="none" id="Solution-&gt;Attempt" style="stroke: #A80036; stroke-width: 1.0; stroke-dasharray: 7.0,7.0;"/><polygon fill="#A80036" points="874.829,1836.904,870.9927,1827.833,871.179,1833.4868,865.5252,1833.6731,874.829,1836.904" style="stroke: #A80036; stroke-width: 1.0;"/><!--MD5=[d9a73ba61c3d9fbab37d4c248a066035]
link Attempt to Combination--><path d="M954,1987.07 C954,2012.973 954,2041.424 954,2064.905 " fill="none" id="Attempt-&gt;Combination" style="stroke: #A80036; stroke-width: 1.0;"/><polygon fill="none" points="961,2065.252,954,2085.252,947,2065.252,961,2065.252" style="stroke: #A80036; stroke-width: 1.0;"/><!--MD5=[0ab07085b7bec1aa4e5e3876db584384]
reverse link Attempt to Result--><path d="M832.351,1979.594 C778.133,2009.274 715.69,2043.457 667.109,2070.052 " fill="none" id="Attempt&lt;-Result" style="stroke: #A80036; stroke-width: 1.0;"/><polygon fill="#A80036" points="843.788,1973.333,836.6043,1972.7047,833.2614,1979.0941,840.4451,1979.7224,843.788,1973.333" style="stroke: #A80036; stroke-width: 1.0;"/><!--MD5=[3b4ab882adddfa3a424965fb24a8c7d8]
link View to ControllerVisitor--><path d="M808.314,541.09 C806.416,556.33 804.026,575.51 801.746,593.81 " fill="none" id="View-&gt;ControllerVisitor" style="stroke: #A80036; stroke-width: 1.0;"/><polygon fill="none" points="808.669,594.87,799.251,613.85,794.777,593.14,808.669,594.87" style="stroke: #A80036; stroke-width: 1.0;"/><!--MD5=[57070e04af1ab79c5a79c6aefe469b18]
link View to Controller--><path d="M869.126,541.2 C991.409,608.59 1258.5,778.42 1145,923 C1111.03,966.28 983.574,994.51 873.887,1011.29 " fill="none" id="View-&gt;Controller" style="stroke: #A80036; stroke-width: 1.0; stroke-dasharray: 7.0,7.0;"/><polygon fill="#A80036" points="868.678,1012.08,878.1762,1014.6846,873.6214,1011.3299,876.9761,1006.7751,868.678,1012.08" style="stroke: #A80036; stroke-width: 1.0;"/><!--MD5=[2490644df483a15e1259025752a5ce2c]
reverse link GameView to SolutionView--><path d="M998.891,337.8 C1093.44,361.89 1203.62,404.64 1278,480 C1425.94,629.88 1462.8,898.54 1471.48,995.42 " fill="none" id="GameView&lt;-SolutionView" style="stroke: #A80036; stroke-width: 1.0;"/><polygon fill="#A80036" points="986.254,334.67,991.1161,339.9954,997.9019,337.5556,993.0398,332.2302,986.254,334.67" style="stroke: #A80036; stroke-width: 1.0;"/><!--MD5=[855af7434dd07f4f42eb84c1a74982a9]
reverse link GameView to AttemptView--><path d="M969.38,428.97 C1119.53,559.82 1323,782.98 1323,1031.5 C1323,1031.5 1323,1031.5 1323,1256.5 C1323,1412.877 1272.84,1593.049 1246.2,1677.733 " fill="none" id="GameView&lt;-AttemptView" style="stroke: #A80036; stroke-width: 1.0;"/><polygon fill="#A80036" points="959.117,420.09,961.0426,427.0393,968.1979,427.9346,966.2723,420.9853,959.117,420.09" style="stroke: #A80036; stroke-width: 1.0;"/><!--MD5=[ff80cfb5f9e9f38516aa9282ef354a6f]
link GameView to Result--><path d="M637.606,345.97 C400.609,403.37 6,519.46 6,656 C6,656 6,656 6,1728.5 C6,1962.092 336.032,2063.273 497.757,2098.832 " fill="none" id="GameView-&gt;Result" style="stroke: #A80036; stroke-width: 1.0; stroke-dasharray: 7.0,7.0;"/><polygon fill="#A80036" points="502.965,2099.967,495.0242,2094.1408,498.0799,2098.9014,493.3193,2101.957,502.965,2099.967" style="stroke: #A80036; stroke-width: 1.0;"/><!--MD5=[9e2c34abc69c4f0d4198a9a2cc8e019b]
link GameView to GameController--><path d="M900.221,420.36 C912.07,439.48 922.907,459.73 931,480 C968.556,574.08 980.727,691.03 984.528,767.27 " fill="none" id="GameView-&gt;GameController" style="stroke: #A80036; stroke-width: 1.0; stroke-dasharray: 7.0,7.0;"/><polygon fill="#A80036" points="984.787,772.69,988.3452,763.5063,984.5442,767.6959,980.3546,763.8949,984.787,772.69" style="stroke: #A80036; stroke-width: 1.0;"/><!--MD5=[87de8c9bea92377554b6de3ddcef5446]
link GameView to AttemptController--><path d="M701.201,420.19 C683.516,439.65 665.844,460.06 650,480 C557.86,595.99 465.138,746.13 425.278,812.67 " fill="none" id="GameView-&gt;AttemptController" style="stroke: #A80036; stroke-width: 1.0; stroke-dasharray: 7.0,7.0;"/><polygon fill="#A80036" points="422.5,817.31,430.5571,811.6458,425.07,813.021,423.6947,807.5339,422.5,817.31" style="stroke: #A80036; stroke-width: 1.0;"/><!--MD5=[a0fcefe5799227bccb07e4f4764c680e]
link GameView to SolutionController--><path d="M721.893,420.03 C686.855,471.82 651.822,536.11 638,601 C622.246,674.96 628.283,764.28 633.505,812.34 " fill="none" id="GameView-&gt;SolutionController" style="stroke: #A80036; stroke-width: 1.0; stroke-dasharray: 7.0,7.0;"/><polygon fill="#A80036" points="634.071,817.43,637.0432,808.0403,633.5138,812.4611,629.093,808.9318,634.071,817.43" style="stroke: #A80036; stroke-width: 1.0;"/><!--MD5=[098334ea5cb8f24f1f0c94c950ef6ebf]
link GameView to View--><path d="M812,420.02 C812,433.83 812,447.36 812,459.54 " fill="none" id="GameView-&gt;View" style="stroke: #A80036; stroke-width: 1.0;"/><polygon fill="none" points="819,459.78,812,479.78,805,459.78,819,459.78" style="stroke: #A80036; stroke-width: 1.0;"/><!--MD5=[77bffac4ca0697f6c91cd0406305192a]
link SolutionView to Color--><path d="M1469.01,1069.61 C1458.29,1150.52 1434,1352.57 1434,1522.5 C1434,1522.5 1434,1522.5 1434,1913 C1434,2059.558 1323.98,2206.587 1265.53,2274.352 " fill="none" id="SolutionView-&gt;Color" style="stroke: #A80036; stroke-width: 1.0; stroke-dasharray: 7.0,7.0;"/><polygon fill="#A80036" points="1262.1,2278.306,1271.0138,2274.1175,1265.3717,2274.525,1264.9642,2268.8828,1262.1,2278.306" style="stroke: #A80036; stroke-width: 1.0;"/><!--MD5=[5b84e25e3dab6e8b51fe1e344127faa3]
link AttemptView to Color--><path d="M1230,1777.329 C1230,1879.928 1230,2118.395 1230,2239.539 " fill="none" id="AttemptView-&gt;Color" style="stroke: #A80036; stroke-width: 1.0; stroke-dasharray: 7.0,7.0;"/><polygon fill="#A80036" points="1230,2244.864,1234,2235.864,1230,2239.864,1226,2235.864,1230,2244.864" style="stroke: #A80036; stroke-width: 1.0;"/><!--MD5=[4079cc8db7d9e2db3cac8e224b2d457a]
link AttemptView to Attempt--><path d="M1156.4,1777.167 C1129.46,1794.981 1098.3,1815.585 1068.62,1835.208 " fill="none" id="AttemptView-&gt;Attempt" style="stroke: #A80036; stroke-width: 1.0; stroke-dasharray: 7.0,7.0;"/><polygon fill="#A80036" points="1064.26,1838.095,1073.9735,1836.4678,1068.4308,1835.3373,1069.5613,1829.7946,1064.26,1838.095" style="stroke: #A80036; stroke-width: 1.0;"/><!--MD5=[240e0d3a29516ccbf70cccd42f94df5c]
link ResultView to Result--><path d="M639.535,1955.346 C630.981,1980.39 619.911,2012.797 609.982,2041.864 " fill="none" id="ResultView-&gt;Result" style="stroke: #A80036; stroke-width: 1.0; stroke-dasharray: 7.0,7.0;"/><polygon fill="#A80036" points="608.271,2046.873,614.9661,2039.6498,609.8877,2042.1416,607.3958,2037.0631,608.271,2046.873" style="stroke: #A80036; stroke-width: 1.0;"/><!--MD5=[a550abbf8fad0aadf60a05f5aa88c9c5]
link ControllerVisitor to GameController--><path d="M837.089,700.42 C857.658,720.66 882.941,745.55 906.796,769.03 " fill="none" id="ControllerVisitor-&gt;GameController" style="stroke: #A80036; stroke-width: 1.0; stroke-dasharray: 7.0,7.0;"/><polygon fill="#A80036" points="910.612,772.79,906.9931,763.6301,907.0445,769.2867,901.3879,769.3381,910.612,772.79" style="stroke: #A80036; stroke-width: 1.0;"/><!--MD5=[4cee98bad8a00fd2b5d443e607829ff6]
link ControllerVisitor to SolutionController--><path d="M758.991,700.42 C730.878,734.48 691.929,781.66 665.895,813.2 " fill="none" id="ControllerVisitor-&gt;SolutionController" style="stroke: #A80036; stroke-width: 1.0; stroke-dasharray: 7.0,7.0;"/><polygon fill="#A80036" points="662.468,817.36,671.2737,812.9486,665.6435,813.4979,665.0942,807.8677,662.468,817.36" style="stroke: #A80036; stroke-width: 1.0;"/><!--MD5=[91d51b978b84eb509c001e6ad8f72290]
link ControllerVisitor to AttemptController--><path d="M682.451,700.02 C632.206,720.2 572.688,745.88 521,773 C497.5,785.33 472.55,800.9 451.835,814.57 " fill="none" id="ControllerVisitor-&gt;AttemptController" style="stroke: #A80036; stroke-width: 1.0; stroke-dasharray: 7.0,7.0;"/><polygon fill="#A80036" points="447.481,817.45,457.1932,815.8151,451.6496,814.689,452.7757,809.1454,447.481,817.45" style="stroke: #A80036; stroke-width: 1.0;"/><!--MD5=[cb217f6ff521d06af4489ff5b0a76c04]
reverse link Controller to State--><path d="M649.516,1092.15 C631.943,1112.17 611.794,1135.12 592.286,1157.34 " fill="none" id="Controller&lt;-State" style="stroke: #A80036; stroke-width: 1.0;"/><polygon fill="#A80036" points="658.186,1082.27,651.2222,1084.1423,650.2721,1091.2905,657.2359,1089.4182,658.186,1082.27" style="stroke: #A80036; stroke-width: 1.0;"/><!--MD5=[ae37b17517c5efafb2d85820dda60839]
link Controller to ControllerVisitor--><path d="M729.28,982.91 C738.796,964.65 748.608,943.38 755,923 C778.191,849.07 787.715,759.11 791.539,705.31 " fill="none" id="Controller-&gt;ControllerVisitor" style="stroke: #A80036; stroke-width: 1.0; stroke-dasharray: 7.0,7.0;"/><polygon fill="#A80036" points="791.891,700.22,787.2833,708.9246,791.5482,705.2082,795.2645,709.4731,791.891,700.22" style="stroke: #A80036; stroke-width: 1.0;"/><!--MD5=[e19a160a16ed09b7706f23310fe2e065]
link GameController to Controller--><path d="M870.08,923.23 C844.659,939.51 818.068,956.54 793.7,972.14 " fill="none" id="GameController-&gt;Controller" style="stroke: #A80036; stroke-width: 1.0;"/><polygon fill="none" points="797.431,978.06,776.813,982.95,789.881,966.27,797.431,978.06" style="stroke: #A80036; stroke-width: 1.0;"/><!--MD5=[fd6d96117d07c7ddcead29a879aede5a]
link GameController to Attempt--><path d="M986,923.37 C986,1004.69 986,1138.87 986,1254.5 C986,1254.5 986,1254.5 986,1524.5 C986,1631.067 973.768,1753.6 964.429,1831.622 " fill="none" id="GameController-&gt;Attempt" style="stroke: #A80036; stroke-width: 1.0; stroke-dasharray: 7.0,7.0;"/><polygon fill="#A80036" points="963.819,1836.696,968.8652,1828.2381,964.4161,1831.7318,960.9225,1827.2827,963.819,1836.696" style="stroke: #A80036; stroke-width: 1.0;"/><!--MD5=[3069411f0c3efdedde0fd6c048421305]
link AttemptController to Controller--><path d="M450.838,878.62 C472.099,892.26 497.756,908.58 521,923 C547.075,939.17 575.441,956.43 601.78,972.31 " fill="none" id="AttemptController-&gt;Controller" style="stroke: #A80036; stroke-width: 1.0;"/><polygon fill="none" points="605.665,966.48,619.193,982.79,598.447,978.47,605.665,966.48" style="stroke: #A80036; stroke-width: 1.0;"/><!--MD5=[240ba2bbb290313e6d621e1757ed5958]
link SolutionController to Controller--><path d="M648.262,878.73 C656.204,901.73 667.517,934.51 677.63,963.8 " fill="none" id="SolutionController-&gt;Controller" style="stroke: #A80036; stroke-width: 1.0;"/><polygon fill="none" points="684.31,961.7,684.219,982.89,671.076,966.27,684.31,961.7" style="stroke: #A80036; stroke-width: 1.0;"/><!--MD5=[c7ee3ddf12dab1a6573079a13c9ba857]
link Logic to GameController--><path d="M381.544,687.13 C486.769,708.44 630.217,739.4 755,773 C782.388,780.37 811.355,788.99 839.174,797.69 " fill="none" id="Logic-&gt;GameController" style="stroke: #A80036; stroke-width: 1.0;"/><polygon fill="#A80036" points="843.99,799.2,836.5985,792.6911,839.2189,797.7044,834.2056,800.3248,843.99,799.2" style="stroke: #A80036; stroke-width: 1.0;"/><!--MD5=[332b6b406274cd2d2540a924ea64bb96]
link Logic to AttemptController--><path d="M281.796,713.17 C311.625,745.58 348.366,785.48 373.927,813.25 " fill="none" id="Logic-&gt;AttemptController" style="stroke: #A80036; stroke-width: 1.0;"/><polygon fill="#A80036" points="377.615,817.25,374.4633,807.9191,374.2289,813.5711,368.5769,813.3367,377.615,817.25" style="stroke: #A80036; stroke-width: 1.0;"/><!--MD5=[6526fa266e093aac6a20f189223fc7c6]
link Logic to SolutionController--><path d="M381.629,711.59 C427.19,729.42 476.833,750.52 521,773 C544.897,785.16 570.186,800.78 591.116,814.53 " fill="none" id="Logic-&gt;SolutionController" style="stroke: #A80036; stroke-width: 1.0;"/><polygon fill="#A80036" points="595.514,817.43,590.1944,809.1413,591.3372,814.6816,585.7969,815.8243,595.514,817.43" style="stroke: #A80036; stroke-width: 1.0;"/><!--MD5=[63338b9150ac7d4921123327ce1a1ef0]
reverse link Logic to State--><path d="M215.189,726.31 C205.684,781.21 199.477,859.39 223,923 C262.492,1029.8 353.456,1125.42 421.869,1186.2 " fill="none" id="Logic&lt;-State" style="stroke: #A80036; stroke-width: 1.0;"/><polygon fill="#A80036" points="217.593,713.22,212.5771,718.4008,215.4301,725.0235,220.4461,719.8427,217.593,713.22" style="stroke: #A80036; stroke-width: 1.0;"/><!--MD5=[b6188329c976d4ab41bf32c7748c8bb4]
reverse link Logic to StateValue--><path d="M193.713,725.83 C189.084,741.23 185.04,757.59 182,773 C135.901,1006.65 110.399,1286.32 105.5674,1428.891 " fill="none" id="Logic&lt;-StateValue" style="stroke: #A80036; stroke-width: 1.0;"/><polygon fill="#A80036" points="197.729,713.16,192.1029,717.6708,194.1028,724.599,199.7289,720.0882,197.729,713.16" style="stroke: #A80036; stroke-width: 1.0;"/><!--MD5=[a1b898f3a923a590d26eba28684d77cb]
link Logic to StateValue--><path d="M230.825,713.16 C226.428,731.99 220.891,753.28 217,773 C171.441,1003.92 146,1279.77 128.656,1423.822 " fill="none" id="Logic-&gt;StateValue" style="stroke: #A80036; stroke-width: 1.0; stroke-dasharray: 7.0,7.0;"/><polygon fill="#A80036" points="128.043,1428.891,133.094,1420.436,128.643,1423.9271,125.1518,1419.4761,128.043,1428.891" style="stroke: #A80036; stroke-width: 1.0;"/><!--MD5=[fbb5acb253a1bc4be7784d42d803d38f]
reverse link Logic to Controller--><path d="M227.384,726.18 C228.063,785.79 238.924,870.77 289,923 C323.362,958.84 434.989,986.93 533.392,1005.54 " fill="none" id="Logic&lt;-Controller" style="stroke: #A80036; stroke-width: 1.0;"/><polygon fill="#A80036" points="227.392,713.12,223.3854,719.1156,227.3788,725.12,231.3854,719.1244,227.392,713.12" style="stroke: #A80036; stroke-width: 1.0;"/><!--MD5=[d1692ebd3ce5641dd174f825e7be490d]
reverse link State to Game--><path d="M601.543,1356.3 C624.086,1380.09 648.064,1405.401 670.331,1428.905 " fill="none" id="State&lt;-Game" style="stroke: #A80036; stroke-width: 1.0;"/><polygon fill="#A80036" points="592.316,1346.56,593.5391,1353.6666,600.5694,1355.2709,599.3464,1348.1643,592.316,1346.56" style="stroke: #A80036; stroke-width: 1.0;"/><!--MD5=[159ec9f8adfff7f9b422ced66bda5b65]
reverse link State to StateValue--><path d="M410.905,1320.89 C331.998,1373.76 223.361,1446.545 160.515,1488.654 " fill="none" id="State&lt;-StateValue" style="stroke: #A80036; stroke-width: 1.0;"/><polygon fill="#A80036" points="421.834,1313.56,414.6229,1313.5765,411.8646,1320.2392,419.0757,1320.2227,421.834,1313.56" style="stroke: #A80036; stroke-width: 1.0;"/><!--MD5=[2cbb1b12ad28f8e120aa95cf3cce912d]
@startuml
class MasterMind{

    - Logic logic
    
    - GameView gameView
    
    + MasterMind()
    
    - void play()
    
    + static void main(String[] args)
    
}

class Game{
  
    - Solution solution
    
    - boolean win
    
    - ArrayList<Attempt> attempt
    
    + Game()
    
    + void start()
    
    + void nextAttempt(String attemptInput)
    
    + boolean isWon()
    
    + ArrayList<Attempt> getResult()
    
    + int getAttemptNumber()
    
}

class Combination{

    # Color [] combination
    
}

class Solution{

    + Solution()
    
    + Attempt check(Attempt attempt)
    
}

class Attempt{
    
    - Result result    
    
    + Attempt(String input)
    
    + Color getCombination(int position)
    
    + void setResult(Result result)
    
    + Result getResult()
    
}

class Result{

    - int dead
    
	- int hurt
	
    + Result(int dead, int hurt)
    
    + boolean win()
    
    + int getDead()
    
    + int getHurt()

    
}

interface View{
    void interact(Controller controller)
}

class GameView{

	- SolutionView solutionView
	
	- AttemptView attemptView
	
    + GameView(Logic logic)
    
    - void headGame()
    
    - void printAttemptNumberInformation(int attemptNumber)
    
    - void winLose()
    
    - void printResults(ArrayList<Result> result)
    
    - void menuOption()

    + void visit(GameController controller)
    
    + void visit(SolutionController controller)
    
    + void visit(AttemptController controller)
    
    + void interact(Controller controller)
    
}

class SolutionView{

    + SolutionView()
    
    + void printSecretCombination()
    
}

class AttemptView{

    + AttemptView()
    
    + String readAttempt()
    
    - boolean checkAttempt(String attempt)
    
    + void printResult(Attempt attempt)
}

class ResultView{

    - Result result

    + ResultView(Result result)
    
    + getImprimibleResult()
    
}

enum Color{
    r,
    b,
    y,
    o,
    p,
    g,
    all
}

interface ControllerVisitor{

    void visit(GameController gameController)
    
    void visit(SolutionController solutionController)
    
    void visit(AttemptController attemptController)
    
}

abstract Controller {

    # State state
    
    + Controller(State state)
    
    + void next()
    
    + abstract void accept(ControllerVisitor controllerVisitor)
    
}


class GameController {

    + GameController(State state)
    
    + void start()
    
    + boolean isWon()
    
    + ArrayList<Attempt> getAttempt()
    
    + int getAttemptNumber()
    
    + void accept(ControllerVisitor controllerVisitor)
    
    + int getStateValue()
    
    - void reset()
    
}

class AttemptController {

    + AttemptController(State state)
    
}

class SolutionController {

    + SolutionController(State state)
    
}

class Logic {

    - Map<StateValue, Controller> acceptorController

    - State state

    + Logic()
    
    + Controller getController()

}

class State {

    - StateValue stateValue
    
    - Game game
    
    + State()
    
    + void next()
    
    + void reset()
    
    + void iterate()
    
    + StateValue getValueState
    
    + Game getGame()
    
}

enum StateValue {

    initialize,
    
    printSolution,
    
    printResult,
    
    nextAttempt,
    
    gameEnd,
    
    exit
    
}

MasterMind *- -GameView

MasterMind *- - Logic

MasterMind - -> Controller

Game *- - Solution

Game *- - Attempt

Combination *- - Color

Solution - -|> Combination

Solution ..> Result

Solution ..> Attempt

Attempt - -|> Combination

Attempt *- - Result

View - -|> ControllerVisitor

View ..> Controller

GameView *- - SolutionView

GameView *- - AttemptView

GameView ..> Result

GameView ..> GameController

GameView ..> AttemptController

GameView ..> SolutionController

GameView - -|> View

SolutionView ..> Color

AttemptView ..> Color

AttemptView ..> Attempt

ResultView ..> Result

ControllerVisitor ..> GameController

ControllerVisitor ..> SolutionController

ControllerVisitor ..> AttemptController

Controller *- - State

Controller ..> ControllerVisitor

GameController - -|> Controller

GameController ..> Attempt

AttemptController - -|> Controller

SolutionController - -|> Controller

Logic - -> GameController

Logic - -> AttemptController

Logic - -> SolutionController

Logic *- - State

Logic *- - StateValue

Logic *- - Controller

Logic ..> StateValue

State *- - Game

State *- -StateValue
@enduml

PlantUML version 1.2019.11(Sun Sep 22 10:02:15 UTC 2019)
(GPL source distribution)
Java Runtime: Java(TM) SE Runtime Environment
JVM: Java HotSpot(TM) 64-Bit Server VM
Java Version: 1.7.0_25-b15
Operating System: Linux
Default Encoding: UTF-8
Language: en
Country: US
--></g></svg>